  0
SECTION
  2
HEADER
  9
$ACADVER
  1
AC1014
  9
$HANDSEED
  5
FFFF
  9
$MEASUREMENT
 70
     1
  0
ENDSEC
  0
SECTION
  2
TABLES
  0
TABLE
  2
VPORT
  5
8
330
0
100
AcDbSymbolTable
 70
     4
  0
VPORT
  5
2E
330
8
100
AcDbSymbolTableRecord
100
AcDbViewportTableRecord
  2
*ACTIVE
 70
     0
 10
0.0
 20
0.0
 11
1.0
 21
1.0
 12
210.0
 22
148.5
 13
0.0
 23
0.0
 14
10.0
 24
10.0
 15
10.0
 25
10.0
 16
0.0
 26
0.0
 36
1.0
 17
0.0
 27
0.0
 37
0.0
 40
341.0
 41
1.24
 42
50.0
 43
0.0
 44
0.0
 50
0.0
 51
0.0
 71
     0
 72
   100
 73
     1
 74
     3
 75
     0
 76
     0
 77
     0
 78
     0
  0
ENDTAB
  0
TABLE
  2
LTYPE
  5
5
330
0
100
AcDbSymbolTable
 70
     1
  0
LTYPE
  5
14
330
5
100
AcDbSymbolTableRecord
100
AcDbLinetypeTableRecord
  2
BYBLOCK
 70
     0
  3

 72
    65
 73
     0
 40
0.0
  0
LTYPE
  5
15
330
5
100
AcDbSymbolTableRecord
100
AcDbLinetypeTableRecord
  2
BYLAYER
 70
     0
  3

 72
    65
 73
     0
 40
0.0
  0
LTYPE
  5
16
330
5
100
AcDbSymbolTableRecord
100
AcDbLinetypeTableRecord
  2
CONTINUOUS
 70
     0
  3
Solid line
 72
    65
 73
     0
 40
0.0
  0
ENDTAB
  0
TABLE
  2
LAYER
  5
2
100
AcDbSymbolTable
 70
2
  0
LAYER
  5
50
100
AcDbSymbolTableRecord
100
AcDbLayerTableRecord
  2
0
 70
0
  6
CONTINUOUS
  0
LAYER
  5
51
100
AcDbSymbolTableRecord
100
AcDbLayerTableRecord
  2
Calque_1
 70
0
  6
CONTINUOUS
  0
ENDTAB
  0
TABLE
  2
STYLE
  5
3
330
0
100
AcDbSymbolTable
 70
     1
  0
STYLE
  5
11
330
3
100
AcDbSymbolTableRecord
100
AcDbTextStyleTableRecord
  2
STANDARD
 70
     0
 40
0.0
 41
1.0
 50
0.0
 71
     0
 42
2.5
  3
txt
  4

  0
ENDTAB
  0
TABLE
  2
VIEW
  5
6
330
0
100
AcDbSymbolTable
 70
     0
  0
ENDTAB
  0
TABLE
  2
UCS
  5
7
330
0
100
AcDbSymbolTable
 70
     0
  0
ENDTAB
  0
TABLE
  2
APPID
  5
9
330
0
100
AcDbSymbolTable
 70
     2
  0
APPID
  5
12
330
9
100
AcDbSymbolTableRecord
100
AcDbRegAppTableRecord
  2
ACAD
 70
     0
  0
ENDTAB
  0
TABLE
  2
DIMSTYLE
  5
A
330
0
100
AcDbSymbolTable
 70
     1
  0
DIMSTYLE
105
27
330
A
100
AcDbSymbolTableRecord
100
AcDbDimStyleTableRecord
  2
ISO-25
 70
     0
  3

  4

  5

  6

  7

 40
1.0
 41
2.5
 42
0.625
 43
3.75
 44
1.25
 45
0.0
 46
0.0
 47
0.0
 48
0.0
140
2.5
141
2.5
142
0.0
143
0.03937007874016
144
1.0
145
0.0
146
1.0
147
0.625
 71
     0
 72
     0
 73
     0
 74
     0
 75
     0
 76
     0
 77
     1
 78
     8
170
     0
171
     3
172
     1
173
     0
174
     0
175
     0
176
     0
177
     0
178
     0
270
     2
271
     2
272
     2
273
     2
274
     3
340
11
275
     0
280
     0
281
     0
282
     0
283
     0
284
     8
285
     0
286
     0
287
     3
288
     0
  0
ENDTAB
  0
TABLE
  2
BLOCK_RECORD
  5
1
330
0
100
AcDbSymbolTable
 70
     1
  0
BLOCK_RECORD
  5
1F
330
1
100
AcDbSymbolTableRecord
100
AcDbBlockTableRecord
  2
*MODEL_SPACE
  0
BLOCK_RECORD
  5
1B
330
1
100
AcDbSymbolTableRecord
100
AcDbBlockTableRecord
  2
*PAPER_SPACE
  0
ENDTAB
  0
ENDSEC
  0
SECTION
  2
BLOCKS
  0
BLOCK
  5
20
330
1F
100
AcDbEntity
  8
0
100
AcDbBlockBegin
  2
*MODEL_SPACE
 70
     0
 10
0.0
 20
0.0
 30
0.0
  3
*MODEL_SPACE
  1

  0
ENDBLK
  5
21
330
1F
100
AcDbEntity
  8
0
100
AcDbBlockEnd
  0
BLOCK
  5
1C
330
1B
100
AcDbEntity
 67
     1
  8
0
100
AcDbBlockBegin
  2
*PAPER_SPACE
  1

  0
ENDBLK
  5
1D
330
1B
100
AcDbEntity
 67
     1
  8
0
100
AcDbBlockEnd
  0
ENDSEC
  0
SECTION
  2
ENTITIES
  0
SPLINE
  5
100
100
AcDbEntity
  8
Calque_1
 62
7
100
AcDbSpline
 70
0
 71
3
 72
25
 73
21
 74
19
 40
0.000000
 40
0.000000
 40
0.000000
 40
0.000000
 40
0.710447
 40
1.473099
 40
2.334111
 40
3.290785
 40
4.314321
 40
5.387555
 40
6.460790
 40
7.484325
 40
8.440999
 40
9.302011
 40
10.064662
 40
10.775110
 40
12.241428
 40
14.005310
 40
16.116869
 40
18.228428
 40
19.992311
 40
21.458629
 40
21.458629
 40
21.458629
 40
21.458629
 10
35.452960
 20
89.494800
 30
0.0
 10
35.423542
 20
89.256769
 30
0.0
 10
35.362543
 20
88.763216
 30
0.0
 10
34.905495
 20
88.102519
 30
0.0
 10
34.239686
 20
87.549780
 30
0.0
 10
33.379846
 20
87.132107
 30
0.0
 10
32.390912
 20
86.870834
 30
0.0
 10
31.332713
 20
86.781690
 30
0.0
 10
30.274733
 20
86.870832
 30
0.0
 10
29.285188
 20
87.132116
 30
0.0
 10
28.427356
 20
87.549751
 30
0.0
 10
27.755124
 20
88.102611
 30
0.0
 10
27.318475
 20
88.762924
 30
0.0
 10
27.103535
 20
89.749513
 30
0.0
 10
27.728583
 20
91.054965
 30
0.0
 10
29.327745
 20
91.962127
 30
0.0
 10
31.340396
 20
92.295314
 30
0.0
 10
33.309690
 20
91.961662
 30
0.0
 10
35.012168
 20
91.056371
 30
0.0
 10
35.315339
 20
89.982344
 30
0.0
 10
35.452960
 20
89.494800
 30
0.0
 11
35.452960
 21
89.494800
 31
0.0
 11
35.311800
 21
88.798517
 31
0.0
 11
34.902467
 21
88.155025
 31
0.0
 11
34.246180
 21
87.597682
 31
0.0
 11
33.390262
 21
87.170332
 31
0.0
 11
32.402041
 21
86.903789
 31
0.0
 11
31.332750
 21
86.811870
 31
0.0
 11
30.263459
 21
86.903789
 31
0.0
 11
29.275239
 21
87.170332
 31
0.0
 11
28.419321
 21
87.597682
 31
0.0
 11
27.763034
 21
88.155025
 31
0.0
 11
27.353701
 21
88.798518
 31
0.0
 11
27.212541
 21
89.494800
 31
0.0
 11
27.775074
 21
90.848922
 31
0.0
 11
29.253205
 21
91.811423
 31
0.0
 11
31.332750
 21
92.177720
 31
0.0
 11
33.412296
 21
91.811423
 31
0.0
 11
34.890427
 21
90.848922
 31
0.0
 11
35.452960
 21
89.494800
 31
0.0
  0
LWPOLYLINE
  5
101
100
AcDbEntity
  8
Calque_1
 62
7
100
AcDbPolyline
 90
1
 70
1
 10
35.452960
 20
89.494800
 30
0.0
  0
LWPOLYLINE
  5
102
100
AcDbEntity
  8
Calque_1
 62
7
100
AcDbPolyline
 90
1
 70
1
 10
157.634000
 20
35.166670
 30
0.0
  0
LWPOLYLINE
  5
103
100
AcDbEntity
  8
Calque_1
 62
7
100
AcDbPolyline
 90
9
 70
1
 10
150.441286
 20
84.495256
 30
0.0
 10
148.403234
 20
84.490369
 30
0.0
 10
144.493753
 20
73.160227
 30
0.0
 10
146.257319
 20
73.160227
 30
0.0
 10
147.187461
 20
75.839260
 30
0.0
 10
151.377611
 20
75.849039
 30
0.0
 10
153.673062
 20
69.064428
 30
0.0
 10
155.913329
 20
69.060751
 30
0.0
 10
150.441286
 20
84.493965
 30
0.0
  0
LWPOLYLINE
  5
104
100
AcDbEntity
  8
Calque_1
 62
7
100
AcDbPolyline
 90
4
 70
1
 10
149.288067
 20
81.870157
 30
0.0
 10
150.800376
 20
77.512103
 30
0.0
 10
147.781878
 20
77.504763
 30
0.0
 10
149.288067
 20
81.870125
 30
0.0
  0
SPLINE
  5
105
100
AcDbEntity
  8
Calque_1
 62
7
100
AcDbSpline
 70
0
 71
3
 72
28
 73
24
 74
22
 40
0.000000
 40
0.000000
 40
0.000000
 40
0.000000
 40
1.570649
 40
3.128301
 40
4.698950
 40
6.269599
 40
7.827251
 40
9.397900
 40
12.535055
 40
15.579163
 40
18.716318
 40
20.286967
 40
21.844619
 40
23.415268
 40
24.985917
 40
26.543569
 40
28.114218
 40
29.684867
 40
31.242519
 40
32.813168
 40
34.383817
 40
35.941469
 40
37.512118
 40
37.512118
 40
37.512118
 40
37.512118
 10
157.634000
 20
35.166670
 30
0.0
 10
157.594001
 20
34.641621
 30
0.0
 10
157.514335
 20
33.595868
 30
0.0
 10
156.884800
 20
32.132369
 30
0.0
 10
155.926938
 20
30.875048
 30
0.0
 10
154.668124
 20
29.910805
 30
0.0
 10
153.204212
 20
29.305175
 30
0.0
 10
151.113955
 20
29.025830
 30
0.0
 10
148.489826
 20
29.730506
 30
0.0
 10
146.197831
 20
32.022478
 30
0.0
 10
145.493161
 20
34.646679
 30
0.0
 10
145.772505
 20
36.736789
 30
0.0
 10
146.378134
 20
38.201147
 30
0.0
 10
147.342378
 20
39.458275
 30
0.0
 10
148.599697
 20
40.422428
 30
0.0
 10
150.063205
 20
41.028608
 30
0.0
 10
151.633974
 20
41.235987
 30
0.0
 10
153.204900
 20
41.028611
 30
0.0
 10
154.667938
 20
40.422415
 30
0.0
 10
155.926988
 20
39.458324
 30
0.0
 10
156.884787
 20
38.200962
 30
0.0
 10
157.514339
 20
36.737475
 30
0.0
 10
157.594003
 20
35.691720
 30
0.0
 10
157.634000
 20
35.166670
 30
0.0
 11
157.634000
 21
35.166670
 31
0.0
 11
157.428437
 21
33.609531
 31
0.0
 11
156.832349
 21
32.170448
 31
0.0
 11
155.876641
 21
30.924029
 31
0.0
 11
154.630222
 21
29.968321
 31
0.0
 11
153.191139
 21
29.372233
 31
0.0
 11
151.634000
 21
29.166670
 31
0.0
 11
148.605685
 21
29.985846
 31
0.0
 11
146.453176
 21
32.138355
 31
0.0
 11
145.634000
 21
35.166670
 31
0.0
 11
145.839563
 21
36.723809
 31
0.0
 11
146.435651
 21
38.162892
 31
0.0
 11
147.391359
 21
39.409311
 31
0.0
 11
148.637778
 21
40.365019
 31
0.0
 11
150.076861
 21
40.961107
 31
0.0
 11
151.634000
 21
41.166670
 31
0.0
 11
153.191139
 21
40.961107
 31
0.0
 11
154.630222
 21
40.365019
 31
0.0
 11
155.876641
 21
39.409311
 31
0.0
 11
156.832349
 21
38.162892
 31
0.0
 11
157.428437
 21
36.723809
 31
0.0
 11
157.634000
 21
35.166670
 31
0.0
  0
SPLINE
  5
106
100
AcDbEntity
  8
Calque_1
 62
7
100
AcDbSpline
 70
0
 71
3
 72
10
 73
6
 74
4
 40
0.000000
 40
0.000000
 40
0.000000
 40
0.000000
 40
2.289701
 40
4.011494
 40
5.653489
 40
5.653489
 40
5.653489
 40
5.653489
 10
160.059537
 20
77.491134
 30
0.0
 10
160.895187
 20
77.636076
 30
0.0
 10
162.359223
 20
77.890009
 30
0.0
 10
162.676096
 20
80.282117
 30
0.0
 10
161.648315
 20
80.906076
 30
0.0
 10
161.146616
 20
81.210654
 30
0.0
 11
160.059537
 21
77.491134
 31
0.0
 11
162.162762
 21
78.396216
 31
0.0
 11
162.361891
 21
80.106455
 31
0.0
 11
161.146616
 21
81.210654
 31
0.0
  0
LWPOLYLINE
  5
107
100
AcDbEntity
  8
Calque_1
 62
7
100
AcDbPolyline
 90
3
 70
0
 10
156.611814
 20
84.742965
 30
0.0
 10
156.620646
 20
77.487767
 30
0.0
 10
160.059537
 20
77.491134
 30
0.0
  0
SPLINE
  5
108
100
AcDbEntity
  8
Calque_1
 62
7
100
AcDbSpline
 70
0
 71
3
 72
10
 73
6
 74
4
 40
0.000000
 40
0.000000
 40
0.000000
 40
0.000000
 40
1.561741
 40
3.109159
 40
4.642940
 40
4.642940
 40
4.642940
 40
4.642940
 10
161.146616
 20
81.210654
 30
0.0
 10
161.544630
 20
81.580761
 30
0.0
 10
162.337006
 20
82.317580
 30
0.0
 10
162.057735
 20
84.196741
 30
0.0
 10
161.026396
 20
84.561228
 30
0.0
 10
160.513009
 20
84.742665
 30
0.0
 11
161.146616
 21
81.210654
 31
0.0
 11
162.093548
 21
82.452570
 31
0.0
 11
161.843537
 21
83.979658
 31
0.0
 11
160.513009
 21
84.742665
 31
0.0
  0
LWPOLYLINE
  5
109
100
AcDbEntity
  8
Calque_1
 62
7
100
AcDbPolyline
 90
2
 70
0
 10
160.513009
 20
84.742665
 30
0.0
 10
156.611814
 20
84.742965
 30
0.0
  0
LWPOLYLINE
  5
10a
100
AcDbEntity
  8
Calque_1
 62
7
100
AcDbPolyline
 90
4
 70
0
 10
159.974722
 20
81.710991
 30
0.0
 10
158.034660
 20
81.710991
 30
0.0
 10
158.034660
 20
83.524781
 30
0.0
 10
159.974722
 20
83.526004
 30
0.0
  0
SPLINE
  5
10b
100
AcDbEntity
  8
Calque_1
 62
7
100
AcDbSpline
 70
0
 71
3
 72
10
 73
6
 74
4
 40
0.000000
 40
0.000000
 40
0.000000
 40
0.000000
 40
0.851495
 40
1.723252
 40
2.577627
 40
2.577627
 40
2.577627
 40
2.577627
 10
159.974722
 20
83.526004
 30
0.0
 10
160.257685
 20
83.411072
 30
0.0
 10
160.830344
 20
83.178471
 30
0.0
 10
160.833535
 20
82.059453
 30
0.0
 10
160.259065
 20
81.826363
 30
0.0
 10
159.974722
 20
81.710991
 30
0.0
 11
159.974722
 21
83.526004
 31
0.0
 11
160.684314
 21
83.055341
 31
0.0
 11
160.686487
 21
82.183587
 31
0.0
 11
159.974722
 21
81.710991
 31
0.0
  0
LWPOLYLINE
  5
10c
100
AcDbEntity
  8
Calque_1
 62
7
100
AcDbPolyline
 90
2
 70
0
 10
158.040801
 20
80.593273
 30
0.0
 10
160.198977
 20
80.593273
 30
0.0
  0
SPLINE
  5
10d
100
AcDbEntity
  8
Calque_1
 62
7
100
AcDbSpline
 70
0
 71
3
 72
10
 73
6
 74
4
 40
0.000000
 40
0.000000
 40
0.000000
 40
0.000000
 40
0.907534
 40
1.792379
 40
2.696673
 40
2.696673
 40
2.696673
 40
2.696673
 10
160.198977
 20
80.593273
 30
0.0
 10
160.503989
 20
80.470505
 30
0.0
 10
161.106387
 20
80.228040
 30
0.0
 10
161.075768
 20
79.072719
 30
0.0
 10
160.493351
 20
78.815259
 30
0.0
 10
160.198977
 20
78.685130
 30
0.0
 11
160.198977
 21
80.593273
 31
0.0
 11
160.954359
 21
80.090266
 31
0.0
 11
160.938502
 21
79.205562
 31
0.0
 11
160.198977
 21
78.685130
 31
0.0
  0
LWPOLYLINE
  5
10e
100
AcDbEntity
  8
Calque_1
 62
7
100
AcDbPolyline
 90
3
 70
0
 10
160.198977
 20
78.685130
 30
0.0
 10
158.033440
 20
78.685130
 30
0.0
 10
158.040801
 20
80.593273
 30
0.0
  0
SPLINE
  5
10f
100
AcDbEntity
  8
Calque_1
 62
7
100
AcDbSpline
 70
0
 71
3
 72
10
 73
6
 74
4
 40
0.000000
 40
0.000000
 40
0.000000
 40
0.000000
 40
0.741338
 40
1.460866
 40
2.202207
 40
2.202207
 40
2.202207
 40
2.202207
 10
139.287794
 20
87.904881
 30
0.0
 10
139.039359
 20
87.865844
 30
0.0
 10
138.549797
 20
87.788919
 30
0.0
 10
137.985713
 20
87.224834
 30
0.0
 10
137.908789
 20
86.735272
 30
0.0
 10
137.869752
 20
86.486836
 30
0.0
 11
139.287794
 21
87.904881
 31
0.0
 11
138.572198
 21
87.711218
 31
0.0
 11
138.063415
 21
87.202434
 31
0.0
 11
137.869752
 21
86.486836
 31
0.0
  0
LWPOLYLINE
  5
110
100
AcDbEntity
  8
Calque_1
 62
7
100
AcDbPolyline
 90
2
 70
0
 10
137.869752
 20
86.486836
 30
0.0
 10
137.869752
 20
61.846440
 30
0.0
  0
SPLINE
  5
111
100
AcDbEntity
  8
Calque_1
 62
7
100
AcDbSpline
 70
0
 71
3
 72
10
 73
6
 74
4
 40
0.000000
 40
0.000000
 40
0.000000
 40
0.000000
 40
0.741303
 40
1.460821
 40
2.202158
 40
2.202158
 40
2.202158
 40
2.202158
 10
137.869752
 20
61.846440
 30
0.0
 10
137.908791
 20
61.598017
 30
0.0
 10
137.985720
 20
61.108472
 30
0.0
 10
138.549803
 20
60.544412
 30
0.0
 10
139.039359
 20
60.467488
 30
0.0
 10
139.287794
 20
60.428451
 30
0.0
 11
137.869752
 21
61.846440
 31
0.0
 11
138.063415
 21
61.130881
 31
0.0
 11
138.572198
 21
60.622112
 31
0.0
 11
139.287794
 21
60.428451
 31
0.0
  0
LWPOLYLINE
  5
112
100
AcDbEntity
  8
Calque_1
 62
7
100
AcDbPolyline
 90
2
 70
0
 10
139.287794
 20
60.428451
 30
0.0
 10
163.980228
 20
60.428451
 30
0.0
  0
SPLINE
  5
113
100
AcDbEntity
  8
Calque_1
 62
7
100
AcDbSpline
 70
0
 71
3
 72
10
 73
6
 74
4
 40
0.000000
 40
0.000000
 40
0.000000
 40
0.000000
 40
0.741323
 40
1.460838
 40
2.202140
 40
2.202140
 40
2.202140
 40
2.202140
 10
163.980228
 20
60.428451
 30
0.0
 10
164.228657
 20
60.467488
 30
0.0
 10
164.718207
 20
60.544414
 30
0.0
 10
165.282281
 20
61.108474
 30
0.0
 10
165.359210
 20
61.598018
 30
0.0
 10
165.398248
 20
61.846440
 30
0.0
 11
163.980228
 21
60.428451
 31
0.0
 11
164.695809
 21
60.622112
 31
0.0
 11
165.204586
 21
61.130881
 31
0.0
 11
165.398248
 21
61.846440
 31
0.0
  0
LWPOLYLINE
  5
114
100
AcDbEntity
  8
Calque_1
 62
7
100
AcDbPolyline
 90
2
 70
0
 10
165.398248
 20
61.846440
 30
0.0
 10
165.398248
 20
86.486836
 30
0.0
  0
LWPOLYLINE
  5
115
100
AcDbEntity
  8
Calque_1
 62
7
100
AcDbPolyline
 90
2
 70
0
 10
163.980228
 20
87.904881
 30
0.0
 10
139.287794
 20
87.904881
 30
0.0
  0
SPLINE
  5
116
100
AcDbEntity
  8
Calque_1
 62
7
100
AcDbSpline
 70
0
 71
3
 72
10
 73
6
 74
4
 40
0.000000
 40
0.000000
 40
0.000000
 40
0.000000
 40
0.741340
 40
1.460865
 40
2.202189
 40
2.202189
 40
2.202189
 40
2.202189
 10
165.398248
 20
86.486836
 30
0.0
 10
165.359212
 20
86.735272
 30
0.0
 10
165.282288
 20
87.224832
 30
0.0
 10
164.718213
 20
87.788917
 30
0.0
 10
164.228658
 20
87.865843
 30
0.0
 10
163.980228
 20
87.904881
 30
0.0
 11
165.398248
 21
86.486836
 31
0.0
 11
165.204586
 21
87.202434
 31
0.0
 11
164.695809
 21
87.711218
 31
0.0
 11
163.980228
 21
87.904881
 31
0.0
  0
SPLINE
  5
117
100
AcDbEntity
  8
Calque_1
 62
7
100
AcDbSpline
 70
0
 71
3
 72
10
 73
6
 74
4
 40
0.000000
 40
0.000000
 40
0.000000
 40
0.000000
 40
2.289729
 40
4.011530
 40
5.653540
 40
5.653540
 40
5.653540
 40
5.653540
 10
160.093584
 20
69.066884
 30
0.0
 10
160.929243
 20
69.211831
 30
0.0
 10
162.393289
 20
69.465774
 30
0.0
 10
162.710169
 20
71.857903
 30
0.0
 10
161.682372
 20
72.481856
 30
0.0
 10
161.180664
 20
72.786432
 30
0.0
 11
160.093584
 21
69.066884
 31
0.0
 11
162.196831
 21
69.971988
 31
0.0
 11
162.395959
 21
71.682236
 31
0.0
 11
161.180664
 21
72.786432
 31
0.0
  0
LWPOLYLINE
  5
118
100
AcDbEntity
  8
Calque_1
 62
7
100
AcDbPolyline
 90
3
 70
0
 10
156.646240
 20
76.318440
 30
0.0
 10
156.654757
 20
69.063206
 30
0.0
 10
160.093584
 20
69.066884
 30
0.0
  0
SPLINE
  5
119
100
AcDbEntity
  8
Calque_1
 62
7
100
AcDbSpline
 70
0
 71
3
 72
10
 73
6
 74
4
 40
0.000000
 40
0.000000
 40
0.000000
 40
0.000000
 40
1.561770
 40
3.109191
 40
4.642981
 40
4.642981
 40
4.642981
 40
4.642981
 10
161.180664
 20
72.786432
 30
0.0
 10
161.578687
 20
73.156544
 30
0.0
 10
162.371075
 20
73.893367
 30
0.0
 10
162.091807
 20
75.772553
 30
0.0
 10
161.060453
 20
76.137021
 30
0.0
 10
160.547057
 20
76.318448
 30
0.0
 11
161.180664
 21
72.786432
 31
0.0
 11
162.127616
 21
74.028370
 31
0.0
 11
161.877606
 21
75.555460
 31
0.0
 11
160.547057
 21
76.318448
 31
0.0
  0
LWPOLYLINE
  5
11a
100
AcDbEntity
  8
Calque_1
 62
7
100
AcDbPolyline
 90
2
 70
0
 10
160.547057
 20
76.318448
 30
0.0
 10
156.646240
 20
76.318440
 30
0.0
  0
LWPOLYLINE
  5
11b
100
AcDbEntity
  8
Calque_1
 62
7
100
AcDbPolyline
 90
4
 70
0
 10
160.009085
 20
73.286458
 30
0.0
 10
158.069087
 20
73.286458
 30
0.0
 10
158.069087
 20
75.100256
 30
0.0
 10
160.009085
 20
75.101479
 30
0.0
  0
SPLINE
  5
11c
100
AcDbEntity
  8
Calque_1
 62
7
100
AcDbSpline
 70
0
 71
3
 72
10
 73
6
 74
4
 40
0.000000
 40
0.000000
 40
0.000000
 40
0.000000
 40
0.851597
 40
1.723295
 40
2.577658
 40
2.577658
 40
2.577658
 40
2.577658
 10
160.009085
 20
75.101479
 30
0.0
 10
160.292061
 20
74.986501
 30
0.0
 10
160.864691
 20
74.753832
 30
0.0
 10
160.867941
 20
73.634827
 30
0.0
 10
160.293447
 20
73.401801
 30
0.0
 10
160.009085
 20
73.286458
 30
0.0
 11
160.009085
 21
75.101479
 31
0.0
 11
160.718705
 21
74.630674
 31
0.0
 11
160.720885
 21
73.758979
 31
0.0
 11
160.009085
 21
73.286458
 31
0.0
  0
LWPOLYLINE
  5
11d
100
AcDbEntity
  8
Calque_1
 62
7
100
AcDbPolyline
 90
2
 70
0
 10
158.075206
 20
72.168779
 30
0.0
 10
160.233403
 20
72.168779
 30
0.0
  0
LWPOLYLINE
  5
11e
100
AcDbEntity
  8
Calque_1
 62
7
100
AcDbPolyline
 90
3
 70
0
 10
160.233403
 20
70.260599
 30
0.0
 10
158.067867
 20
70.260599
 30
0.0
 10
158.075206
 20
72.168779
 30
0.0
  0
LWPOLYLINE
  5
11f
100
AcDbEntity
  8
Calque_1
 62
7
100
AcDbPolyline
 90
10
 70
1
 10
141.001308
 20
84.644946
 30
0.0
 10
145.871931
 20
84.637911
 30
0.0
 10
145.875608
 20
83.394841
 30
0.0
 10
142.419579
 20
83.401875
 30
0.0
 10
142.415901
 20
81.535557
 30
0.0
 10
145.301215
 20
81.531886
 30
0.0
 10
145.301215
 20
80.390382
 30
0.0
 10
142.419413
 20
80.390382
 30
0.0
 10
142.419413
 20
77.386044
 30
0.0
 10
141.001308
 20
77.386044
 30
0.0
  0
LWPOLYLINE
  5
120
100
AcDbEntity
  8
Calque_1
 62
7
100
AcDbPolyline
 90
6
 70
1
 10
140.997631
 20
76.314771
 30
0.0
 10
142.398312
 20
76.314771
 30
0.0
 10
142.398312
 20
70.306066
 30
0.0
 10
146.109942
 20
70.306066
 30
0.0
 10
146.109942
 20
69.070030
 30
0.0
 10
141.001174
 20
69.070030
 30
0.0
  0
LWPOLYLINE
  5
121
100
AcDbEntity
  8
Calque_1
 62
7
100
AcDbPolyline
 90
3
 70
0
 10
141.116040
 20
67.023149
 30
0.0
 10
141.116040
 20
63.372058
 30
0.0
 10
143.168325
 20
63.372058
 30
0.0
  0
LWPOLYLINE
  5
122
100
AcDbEntity
  8
Calque_1
 62
7
100
AcDbPolyline
 90
2
 70
0
 10
144.878562
 20
67.023149
 30
0.0
 10
143.510372
 20
63.372058
 30
0.0
  0
LWPOLYLINE
  5
123
100
AcDbEntity
  8
Calque_1
 62
7
100
AcDbPolyline
 90
2
 70
0
 10
144.878562
 20
67.023149
 30
0.0
 10
146.246752
 20
63.372058
 30
0.0
  0
LWPOLYLINE
  5
124
100
AcDbEntity
  8
Calque_1
 62
7
100
AcDbPolyline
 90
2
 70
0
 10
144.023443
 20
64.589088
 30
0.0
 10
145.733681
 20
64.589088
 30
0.0
  0
LWPOLYLINE
  5
125
100
AcDbEntity
  8
Calque_1
 62
7
100
AcDbPolyline
 90
2
 70
0
 10
147.101871
 20
67.023149
 30
0.0
 10
147.101871
 20
63.372058
 30
0.0
  0
LWPOLYLINE
  5
126
100
AcDbEntity
  8
Calque_1
 62
7
100
AcDbPolyline
 90
2
 70
0
 10
147.101871
 20
67.023149
 30
0.0
 10
149.496203
 20
63.372058
 30
0.0
  0
LWPOLYLINE
  5
127
100
AcDbEntity
  8
Calque_1
 62
7
100
AcDbPolyline
 90
2
 70
0
 10
149.496203
 20
67.023149
 30
0.0
 10
149.496203
 20
63.372058
 30
0.0
  0
LWPOLYLINE
  5
128
100
AcDbEntity
  8
Calque_1
 62
7
100
AcDbPolyline
 90
2
 70
0
 10
150.864393
 20
67.023149
 30
0.0
 10
150.864393
 20
63.372058
 30
0.0
  0
LWPOLYLINE
  5
129
100
AcDbEntity
  8
Calque_1
 62
7
100
AcDbPolyline
 90
2
 70
0
 10
150.864393
 20
67.023149
 30
0.0
 10
153.258726
 20
63.372058
 30
0.0
  0
LWPOLYLINE
  5
12a
100
AcDbEntity
  8
Calque_1
 62
7
100
AcDbPolyline
 90
2
 70
0
 10
153.258726
 20
67.023149
 30
0.0
 10
153.258726
 20
63.372058
 30
0.0
  0
LWPOLYLINE
  5
12b
100
AcDbEntity
  8
Calque_1
 62
7
100
AcDbPolyline
 90
2
 70
0
 10
154.626916
 20
67.023149
 30
0.0
 10
154.626916
 20
63.372058
 30
0.0
  0
LWPOLYLINE
  5
12c
100
AcDbEntity
  8
Calque_1
 62
7
100
AcDbPolyline
 90
20
 70
1
 10
156.850224
 20
67.023149
 30
0.0
 10
156.508177
 20
66.849287
 30
0.0
 10
156.166129
 20
66.501564
 30
0.0
 10
155.995106
 20
66.153842
 30
0.0
 10
155.824082
 20
65.632257
 30
0.0
 10
155.824082
 20
64.762950
 30
0.0
 10
155.995106
 20
64.241366
 30
0.0
 10
156.166129
 20
63.893643
 30
0.0
 10
156.508177
 20
63.545920
 30
0.0
 10
156.850224
 20
63.372058
 30
0.0
 10
157.534319
 20
63.372058
 30
0.0
 10
157.876367
 20
63.545920
 30
0.0
 10
158.218414
 20
63.893643
 30
0.0
 10
158.389438
 20
64.241366
 30
0.0
 10
158.560462
 20
64.762950
 30
0.0
 10
158.560462
 20
65.632257
 30
0.0
 10
158.389438
 20
66.153842
 30
0.0
 10
158.218414
 20
66.501564
 30
0.0
 10
157.876367
 20
66.849287
 30
0.0
 10
157.534319
 20
67.023149
 30
0.0
  0
LWPOLYLINE
  5
12d
100
AcDbEntity
  8
Calque_1
 62
7
100
AcDbPolyline
 90
2
 70
0
 10
159.757628
 20
67.023149
 30
0.0
 10
159.757628
 20
63.372058
 30
0.0
  0
LWPOLYLINE
  5
12e
100
AcDbEntity
  8
Calque_1
 62
7
100
AcDbPolyline
 90
2
 70
0
 10
159.757628
 20
67.023149
 30
0.0
 10
162.151960
 20
63.372058
 30
0.0
  0
LWPOLYLINE
  5
12f
100
AcDbEntity
  8
Calque_1
 62
7
100
AcDbPolyline
 90
2
 70
0
 10
162.151960
 20
67.023149
 30
0.0
 10
162.151960
 20
63.372058
 30
0.0
  0
LWPOLYLINE
  5
130
100
AcDbEntity
  8
Calque_1
 62
1
100
AcDbPolyline
 90
109
 70
1
 10
97.634002
 20
94.166665
 30
0.0
 10
102.826860
 20
94.166665
 30
0.0
 10
102.826860
 20
91.166665
 30
0.0
 10
107.869717
 20
91.166665
 30
0.0
 10
107.869717
 20
94.166665
 30
0.0
 10
113.112574
 20
94.166665
 30
0.0
 10
113.112574
 20
91.166665
 30
0.0
 10
118.155431
 20
91.166665
 30
0.0
 10
118.155431
 20
94.166665
 30
0.0
 10
123.398288
 20
94.166665
 30
0.0
 10
123.398288
 20
91.166665
 30
0.0
 10
128.441145
 20
91.166665
 30
0.0
 10
128.441145
 20
94.166665
 30
0.0
 10
133.684002
 20
94.166665
 30
0.0
 10
133.684002
 20
91.166665
 30
0.0
 10
138.726860
 20
91.166665
 30
0.0
 10
138.726860
 20
94.166665
 30
0.0
 10
143.969717
 20
94.166665
 30
0.0
 10
143.969717
 20
91.166665
 30
0.0
 10
149.012574
 20
91.166665
 30
0.0
 10
149.012574
 20
94.166665
 30
0.0
 10
154.255431
 20
94.166665
 30
0.0
 10
154.255431
 20
91.166665
 30
0.0
 10
159.298288
 20
91.166665
 30
0.0
 10
159.298288
 20
94.166665
 30
0.0
 10
164.541145
 20
94.166665
 30
0.0
 10
164.541145
 20
91.166665
 30
0.0
 10
169.584002
 20
91.166665
 30
0.0
 10
169.584002
 20
94.166665
 30
0.0
 10
174.826860
 20
94.166665
 30
0.0
 10
174.826860
 20
91.166665
 30
0.0
 10
179.869717
 20
91.166665
 30
0.0
 10
179.869717
 20
94.166665
 30
0.0
 10
185.112574
 20
94.166665
 30
0.0
 10
185.112574
 20
91.166665
 30
0.0
 10
190.155431
 20
91.166665
 30
0.0
 10
190.155431
 20
94.166665
 30
0.0
 10
195.398288
 20
94.166665
 30
0.0
 10
195.398288
 20
91.166665
 30
0.0
 10
200.441145
 20
91.166665
 30
0.0
 10
200.441145
 20
94.166665
 30
0.0
 10
205.634002
 20
94.166665
 30
0.0
 10
205.634002
 20
88.402380
 30
0.0
 10
202.634002
 20
88.402380
 30
0.0
 10
202.634002
 20
82.788094
 30
0.0
 10
205.634002
 20
82.788094
 30
0.0
 10
205.634002
 20
76.973808
 30
0.0
 10
202.634002
 20
76.973808
 30
0.0
 10
202.634002
 20
71.359523
 30
0.0
 10
205.634002
 20
71.359523
 30
0.0
 10
205.634002
 20
65.545237
 30
0.0
 10
202.634002
 20
65.545237
 30
0.0
 10
202.634002
 20
59.930951
 30
0.0
 10
205.634002
 20
59.930951
 30
0.0
 10
205.634002
 20
54.166665
 30
0.0
 10
200.441145
 20
54.166665
 30
0.0
 10
200.441145
 20
57.166665
 30
0.0
 10
195.398288
 20
57.166665
 30
0.0
 10
195.398288
 20
54.166665
 30
0.0
 10
190.155431
 20
54.166665
 30
0.0
 10
190.155431
 20
57.166665
 30
0.0
 10
185.112574
 20
57.166665
 30
0.0
 10
185.112574
 20
54.166665
 30
0.0
 10
179.869717
 20
54.166665
 30
0.0
 10
179.869717
 20
57.166665
 30
0.0
 10
174.826860
 20
57.166665
 30
0.0
 10
174.826860
 20
54.166665
 30
0.0
 10
169.584002
 20
54.166665
 30
0.0
 10
169.584002
 20
57.166665
 30
0.0
 10
164.541145
 20
57.166665
 30
0.0
 10
164.541145
 20
54.166665
 30
0.0
 10
159.298288
 20
54.166665
 30
0.0
 10
159.298288
 20
57.166665
 30
0.0
 10
154.255431
 20
57.166665
 30
0.0
 10
154.255431
 20
54.166665
 30
0.0
 10
149.012574
 20
54.166665
 30
0.0
 10
149.012574
 20
57.166665
 30
0.0
 10
143.969717
 20
57.166665
 30
0.0
 10
143.969717
 20
54.166665
 30
0.0
 10
138.726860
 20
54.166665
 30
0.0
 10
138.726860
 20
57.166665
 30
0.0
 10
133.684002
 20
57.166665
 30
0.0
 10
133.684002
 20
54.166665
 30
0.0
 10
128.441145
 20
54.166665
 30
0.0
 10
128.441145
 20
57.166665
 30
0.0
 10
123.398288
 20
57.166665
 30
0.0
 10
123.398288
 20
54.166665
 30
0.0
 10
118.155431
 20
54.166665
 30
0.0
 10
118.155431
 20
57.166665
 30
0.0
 10
113.112574
 20
57.166665
 30
0.0
 10
113.112574
 20
54.166665
 30
0.0
 10
107.869717
 20
54.166665
 30
0.0
 10
107.869717
 20
57.166665
 30
0.0
 10
102.826860
 20
57.166665
 30
0.0
 10
102.826860
 20
54.166665
 30
0.0
 10
97.634002
 20
54.166665
 30
0.0
 10
97.634002
 20
59.930951
 30
0.0
 10
100.634002
 20
59.930951
 30
0.0
 10
100.634002
 20
65.545237
 30
0.0
 10
97.634002
 20
65.545237
 30
0.0
 10
97.634002
 20
71.359523
 30
0.0
 10
100.634002
 20
71.359523
 30
0.0
 10
100.634002
 20
76.973808
 30
0.0
 10
97.634002
 20
76.973808
 30
0.0
 10
97.634002
 20
82.788094
 30
0.0
 10
100.634002
 20
82.788094
 30
0.0
 10
100.634002
 20
88.402380
 30
0.0
 10
97.634002
 20
88.402380
 30
0.0
 10
97.634002
 20
94.166665
 30
0.0
  0
LWPOLYLINE
  5
131
100
AcDbEntity
  8
Calque_1
 62
1
100
AcDbPolyline
 90
109
 70
1
 10
208.634002
 20
94.166665
 30
0.0
 10
213.826860
 20
94.166665
 30
0.0
 10
213.826860
 20
91.166665
 30
0.0
 10
218.869717
 20
91.166665
 30
0.0
 10
218.869717
 20
94.166665
 30
0.0
 10
224.112574
 20
94.166665
 30
0.0
 10
224.112574
 20
91.166665
 30
0.0
 10
229.155431
 20
91.166665
 30
0.0
 10
229.155431
 20
94.166665
 30
0.0
 10
234.398288
 20
94.166665
 30
0.0
 10
234.398288
 20
91.166665
 30
0.0
 10
239.441145
 20
91.166665
 30
0.0
 10
239.441145
 20
94.166665
 30
0.0
 10
244.684002
 20
94.166665
 30
0.0
 10
244.684002
 20
91.166665
 30
0.0
 10
249.726860
 20
91.166665
 30
0.0
 10
249.726860
 20
94.166665
 30
0.0
 10
254.969717
 20
94.166665
 30
0.0
 10
254.969717
 20
91.166665
 30
0.0
 10
260.012574
 20
91.166665
 30
0.0
 10
260.012574
 20
94.166665
 30
0.0
 10
265.255431
 20
94.166665
 30
0.0
 10
265.255431
 20
91.166665
 30
0.0
 10
270.298288
 20
91.166665
 30
0.0
 10
270.298288
 20
94.166665
 30
0.0
 10
275.541145
 20
94.166665
 30
0.0
 10
275.541145
 20
91.166665
 30
0.0
 10
280.584002
 20
91.166665
 30
0.0
 10
280.584002
 20
94.166665
 30
0.0
 10
285.826860
 20
94.166665
 30
0.0
 10
285.826860
 20
91.166665
 30
0.0
 10
290.869717
 20
91.166665
 30
0.0
 10
290.869717
 20
94.166665
 30
0.0
 10
296.112574
 20
94.166665
 30
0.0
 10
296.112574
 20
91.166665
 30
0.0
 10
301.155431
 20
91.166665
 30
0.0
 10
301.155431
 20
94.166665
 30
0.0
 10
306.398288
 20
94.166665
 30
0.0
 10
306.398288
 20
91.166665
 30
0.0
 10
311.441145
 20
91.166665
 30
0.0
 10
311.441145
 20
94.166665
 30
0.0
 10
316.634002
 20
94.166665
 30
0.0
 10
316.634002
 20
88.402380
 30
0.0
 10
313.634002
 20
88.402380
 30
0.0
 10
313.634002
 20
82.788094
 30
0.0
 10
316.634002
 20
82.788094
 30
0.0
 10
316.634002
 20
76.973808
 30
0.0
 10
313.634002
 20
76.973808
 30
0.0
 10
313.634002
 20
71.359523
 30
0.0
 10
316.634002
 20
71.359523
 30
0.0
 10
316.634002
 20
65.545237
 30
0.0
 10
313.634002
 20
65.545237
 30
0.0
 10
313.634002
 20
59.930951
 30
0.0
 10
316.634002
 20
59.930951
 30
0.0
 10
316.634002
 20
54.166665
 30
0.0
 10
311.441145
 20
54.166665
 30
0.0
 10
311.441145
 20
57.166665
 30
0.0
 10
306.398288
 20
57.166665
 30
0.0
 10
306.398288
 20
54.166665
 30
0.0
 10
301.155431
 20
54.166665
 30
0.0
 10
301.155431
 20
57.166665
 30
0.0
 10
296.112574
 20
57.166665
 30
0.0
 10
296.112574
 20
54.166665
 30
0.0
 10
290.869717
 20
54.166665
 30
0.0
 10
290.869717
 20
57.166665
 30
0.0
 10
285.826860
 20
57.166665
 30
0.0
 10
285.826860
 20
54.166665
 30
0.0
 10
280.584002
 20
54.166665
 30
0.0
 10
280.584002
 20
57.166665
 30
0.0
 10
275.541145
 20
57.166665
 30
0.0
 10
275.541145
 20
54.166665
 30
0.0
 10
270.298288
 20
54.166665
 30
0.0
 10
270.298288
 20
57.166665
 30
0.0
 10
265.255431
 20
57.166665
 30
0.0
 10
265.255431
 20
54.166665
 30
0.0
 10
260.012574
 20
54.166665
 30
0.0
 10
260.012574
 20
57.166665
 30
0.0
 10
254.969717
 20
57.166665
 30
0.0
 10
254.969717
 20
54.166665
 30
0.0
 10
249.726860
 20
54.166665
 30
0.0
 10
249.726860
 20
57.166665
 30
0.0
 10
244.684002
 20
57.166665
 30
0.0
 10
244.684002
 20
54.166665
 30
0.0
 10
239.441145
 20
54.166665
 30
0.0
 10
239.441145
 20
57.166665
 30
0.0
 10
234.398288
 20
57.166665
 30
0.0
 10
234.398288
 20
54.166665
 30
0.0
 10
229.155431
 20
54.166665
 30
0.0
 10
229.155431
 20
57.166665
 30
0.0
 10
224.112574
 20
57.166665
 30
0.0
 10
224.112574
 20
54.166665
 30
0.0
 10
218.869717
 20
54.166665
 30
0.0
 10
218.869717
 20
57.166665
 30
0.0
 10
213.826860
 20
57.166665
 30
0.0
 10
213.826860
 20
54.166665
 30
0.0
 10
208.634002
 20
54.166665
 30
0.0
 10
208.634002
 20
59.930951
 30
0.0
 10
211.634002
 20
59.930951
 30
0.0
 10
211.634002
 20
65.545237
 30
0.0
 10
208.634002
 20
65.545237
 30
0.0
 10
208.634002
 20
71.359523
 30
0.0
 10
211.634002
 20
71.359523
 30
0.0
 10
211.634002
 20
76.973808
 30
0.0
 10
208.634002
 20
76.973808
 30
0.0
 10
208.634002
 20
82.788094
 30
0.0
 10
211.634002
 20
82.788094
 30
0.0
 10
211.634002
 20
88.402380
 30
0.0
 10
208.634002
 20
88.402380
 30
0.0
 10
208.634002
 20
94.166665
 30
0.0
  0
LWPOLYLINE
  5
132
100
AcDbEntity
  8
Calque_1
 62
1
100
AcDbPolyline
 90
101
 70
1
 10
208.634002
 20
48.166665
 30
0.0
 10
213.726860
 20
48.166665
 30
0.0
 10
213.726860
 20
51.166665
 30
0.0
 10
218.969717
 20
51.166665
 30
0.0
 10
218.969717
 20
48.166665
 30
0.0
 10
224.012574
 20
48.166665
 30
0.0
 10
224.012574
 20
51.166665
 30
0.0
 10
229.255431
 20
51.166665
 30
0.0
 10
229.255431
 20
48.166665
 30
0.0
 10
234.298288
 20
48.166665
 30
0.0
 10
234.298288
 20
51.166665
 30
0.0
 10
239.541145
 20
51.166665
 30
0.0
 10
239.541145
 20
48.166665
 30
0.0
 10
244.584002
 20
48.166665
 30
0.0
 10
244.584002
 20
51.166665
 30
0.0
 10
249.826860
 20
51.166665
 30
0.0
 10
249.826860
 20
48.166665
 30
0.0
 10
254.869717
 20
48.166665
 30
0.0
 10
254.869717
 20
51.166665
 30
0.0
 10
260.112574
 20
51.166665
 30
0.0
 10
260.112574
 20
48.166665
 30
0.0
 10
265.155431
 20
48.166665
 30
0.0
 10
265.155431
 20
51.166665
 30
0.0
 10
270.398288
 20
51.166665
 30
0.0
 10
270.398288
 20
48.166665
 30
0.0
 10
275.441145
 20
48.166665
 30
0.0
 10
275.441145
 20
51.166665
 30
0.0
 10
280.684002
 20
51.166665
 30
0.0
 10
280.684002
 20
48.166665
 30
0.0
 10
285.726860
 20
48.166665
 30
0.0
 10
285.726860
 20
51.166665
 30
0.0
 10
290.969717
 20
51.166665
 30
0.0
 10
290.969717
 20
48.166665
 30
0.0
 10
296.012574
 20
48.166665
 30
0.0
 10
296.012574
 20
51.166665
 30
0.0
 10
301.255431
 20
51.166665
 30
0.0
 10
301.255431
 20
48.166665
 30
0.0
 10
306.298288
 20
48.166665
 30
0.0
 10
306.298288
 20
51.166665
 30
0.0
 10
311.541145
 20
51.166665
 30
0.0
 10
311.541145
 20
48.166665
 30
0.0
 10
316.634002
 20
48.166665
 30
0.0
 10
316.634002
 20
42.916665
 30
0.0
 10
313.634002
 20
42.916665
 30
0.0
 10
313.634002
 20
37.816665
 30
0.0
 10
316.634002
 20
37.816665
 30
0.0
 10
316.634002
 20
32.516665
 30
0.0
 10
313.634002
 20
32.516665
 30
0.0
 10
313.634002
 20
27.416665
 30
0.0
 10
316.634002
 20
27.416665
 30
0.0
 10
316.634002
 20
22.166665
 30
0.0
 10
311.541145
 20
22.166665
 30
0.0
 10
311.541145
 20
19.166665
 30
0.0
 10
306.298288
 20
19.166665
 30
0.0
 10
306.298288
 20
22.166665
 30
0.0
 10
301.255431
 20
22.166665
 30
0.0
 10
301.255431
 20
19.166665
 30
0.0
 10
296.012574
 20
19.166665
 30
0.0
 10
296.012574
 20
22.166665
 30
0.0
 10
290.969717
 20
22.166665
 30
0.0
 10
290.969717
 20
19.166665
 30
0.0
 10
285.726860
 20
19.166665
 30
0.0
 10
285.726860
 20
22.166665
 30
0.0
 10
280.684002
 20
22.166665
 30
0.0
 10
280.684002
 20
19.166665
 30
0.0
 10
275.441145
 20
19.166665
 30
0.0
 10
275.441145
 20
22.166665
 30
0.0
 10
270.398288
 20
22.166665
 30
0.0
 10
270.398288
 20
19.166665
 30
0.0
 10
265.155431
 20
19.166665
 30
0.0
 10
265.155431
 20
22.166665
 30
0.0
 10
260.112574
 20
22.166665
 30
0.0
 10
260.112574
 20
19.166665
 30
0.0
 10
254.869717
 20
19.166665
 30
0.0
 10
254.869717
 20
22.166665
 30
0.0
 10
249.826860
 20
22.166665
 30
0.0
 10
249.826860
 20
19.166665
 30
0.0
 10
244.584002
 20
19.166665
 30
0.0
 10
244.584002
 20
22.166665
 30
0.0
 10
239.541145
 20
22.166665
 30
0.0
 10
239.541145
 20
19.166665
 30
0.0
 10
234.298288
 20
19.166665
 30
0.0
 10
234.298288
 20
22.166665
 30
0.0
 10
229.255431
 20
22.166665
 30
0.0
 10
229.255431
 20
19.166665
 30
0.0
 10
224.012574
 20
19.166665
 30
0.0
 10
224.012574
 20
22.166665
 30
0.0
 10
218.969717
 20
22.166665
 30
0.0
 10
218.969717
 20
19.166665
 30
0.0
 10
213.726860
 20
19.166665
 30
0.0
 10
213.726860
 20
22.166665
 30
0.0
 10
208.634002
 20
22.166665
 30
0.0
 10
208.634002
 20
27.416665
 30
0.0
 10
211.634002
 20
27.416665
 30
0.0
 10
211.634002
 20
32.516665
 30
0.0
 10
208.634002
 20
32.516665
 30
0.0
 10
208.634002
 20
37.816665
 30
0.0
 10
211.634002
 20
37.816665
 30
0.0
 10
211.634002
 20
42.916665
 30
0.0
 10
208.634002
 20
42.916665
 30
0.0
 10
208.634002
 20
48.166665
 30
0.0
  0
LWPOLYLINE
  5
133
100
AcDbEntity
  8
Calque_1
 62
1
100
AcDbPolyline
 90
101
 70
1
 10
97.634002
 20
48.166665
 30
0.0
 10
102.726860
 20
48.166665
 30
0.0
 10
102.726860
 20
51.166665
 30
0.0
 10
107.969717
 20
51.166665
 30
0.0
 10
107.969717
 20
48.166665
 30
0.0
 10
113.012574
 20
48.166665
 30
0.0
 10
113.012574
 20
51.166665
 30
0.0
 10
118.255431
 20
51.166665
 30
0.0
 10
118.255431
 20
48.166665
 30
0.0
 10
123.298288
 20
48.166665
 30
0.0
 10
123.298288
 20
51.166665
 30
0.0
 10
128.541145
 20
51.166665
 30
0.0
 10
128.541145
 20
48.166665
 30
0.0
 10
133.584002
 20
48.166665
 30
0.0
 10
133.584002
 20
51.166665
 30
0.0
 10
138.826860
 20
51.166665
 30
0.0
 10
138.826860
 20
48.166665
 30
0.0
 10
143.869717
 20
48.166665
 30
0.0
 10
143.869717
 20
51.166665
 30
0.0
 10
149.112574
 20
51.166665
 30
0.0
 10
149.112574
 20
48.166665
 30
0.0
 10
154.155431
 20
48.166665
 30
0.0
 10
154.155431
 20
51.166665
 30
0.0
 10
159.398288
 20
51.166665
 30
0.0
 10
159.398288
 20
48.166665
 30
0.0
 10
164.441145
 20
48.166665
 30
0.0
 10
164.441145
 20
51.166665
 30
0.0
 10
169.684002
 20
51.166665
 30
0.0
 10
169.684002
 20
48.166665
 30
0.0
 10
174.726860
 20
48.166665
 30
0.0
 10
174.726860
 20
51.166665
 30
0.0
 10
179.969717
 20
51.166665
 30
0.0
 10
179.969717
 20
48.166665
 30
0.0
 10
185.012574
 20
48.166665
 30
0.0
 10
185.012574
 20
51.166665
 30
0.0
 10
190.255431
 20
51.166665
 30
0.0
 10
190.255431
 20
48.166665
 30
0.0
 10
195.298288
 20
48.166665
 30
0.0
 10
195.298288
 20
51.166665
 30
0.0
 10
200.541145
 20
51.166665
 30
0.0
 10
200.541145
 20
48.166665
 30
0.0
 10
205.634002
 20
48.166665
 30
0.0
 10
205.634002
 20
42.916665
 30
0.0
 10
202.634002
 20
42.916665
 30
0.0
 10
202.634002
 20
37.816665
 30
0.0
 10
205.634002
 20
37.816665
 30
0.0
 10
205.634002
 20
32.516665
 30
0.0
 10
202.634002
 20
32.516665
 30
0.0
 10
202.634002
 20
27.416665
 30
0.0
 10
205.634002
 20
27.416665
 30
0.0
 10
205.634002
 20
22.166665
 30
0.0
 10
200.541145
 20
22.166665
 30
0.0
 10
200.541145
 20
19.166665
 30
0.0
 10
195.298288
 20
19.166665
 30
0.0
 10
195.298288
 20
22.166665
 30
0.0
 10
190.255431
 20
22.166665
 30
0.0
 10
190.255431
 20
19.166665
 30
0.0
 10
185.012574
 20
19.166665
 30
0.0
 10
185.012574
 20
22.166665
 30
0.0
 10
179.969717
 20
22.166665
 30
0.0
 10
179.969717
 20
19.166665
 30
0.0
 10
174.726860
 20
19.166665
 30
0.0
 10
174.726860
 20
22.166665
 30
0.0
 10
169.684002
 20
22.166665
 30
0.0
 10
169.684002
 20
19.166665
 30
0.0
 10
164.441145
 20
19.166665
 30
0.0
 10
164.441145
 20
22.166665
 30
0.0
 10
159.398288
 20
22.166665
 30
0.0
 10
159.398288
 20
19.166665
 30
0.0
 10
154.155431
 20
19.166665
 30
0.0
 10
154.155431
 20
22.166665
 30
0.0
 10
149.112574
 20
22.166665
 30
0.0
 10
149.112574
 20
19.166665
 30
0.0
 10
143.869717
 20
19.166665
 30
0.0
 10
143.869717
 20
22.166665
 30
0.0
 10
138.826860
 20
22.166665
 30
0.0
 10
138.826860
 20
19.166665
 30
0.0
 10
133.584002
 20
19.166665
 30
0.0
 10
133.584002
 20
22.166665
 30
0.0
 10
128.541145
 20
22.166665
 30
0.0
 10
128.541145
 20
19.166665
 30
0.0
 10
123.298288
 20
19.166665
 30
0.0
 10
123.298288
 20
22.166665
 30
0.0
 10
118.255431
 20
22.166665
 30
0.0
 10
118.255431
 20
19.166665
 30
0.0
 10
113.012574
 20
19.166665
 30
0.0
 10
113.012574
 20
22.166665
 30
0.0
 10
107.969717
 20
22.166665
 30
0.0
 10
107.969717
 20
19.166665
 30
0.0
 10
102.726860
 20
19.166665
 30
0.0
 10
102.726860
 20
22.166665
 30
0.0
 10
97.634002
 20
22.166665
 30
0.0
 10
97.634002
 20
27.416665
 30
0.0
 10
100.634002
 20
27.416665
 30
0.0
 10
100.634002
 20
32.516665
 30
0.0
 10
97.634002
 20
32.516665
 30
0.0
 10
97.634002
 20
37.816665
 30
0.0
 10
100.634002
 20
37.816665
 30
0.0
 10
100.634002
 20
42.916665
 30
0.0
 10
97.634002
 20
42.916665
 30
0.0
 10
97.634002
 20
48.166665
 30
0.0
  0
LWPOLYLINE
  5
134
100
AcDbEntity
  8
Calque_1
 62
1
100
AcDbPolyline
 90
45
 70
1
 10
143.634002
 20
13.166665
 30
0.0
 10
146.298288
 20
13.166665
 30
0.0
 10
146.298288
 20
16.166665
 30
0.0
 10
152.112574
 20
16.166665
 30
0.0
 10
152.112574
 20
13.166665
 30
0.0
 10
157.726860
 20
13.166665
 30
0.0
 10
157.726860
 20
16.166665
 30
0.0
 10
163.541145
 20
16.166665
 30
0.0
 10
163.541145
 20
13.166665
 30
0.0
 10
169.155431
 20
13.166665
 30
0.0
 10
169.155431
 20
16.166665
 30
0.0
 10
174.969717
 20
16.166665
 30
0.0
 10
174.969717
 20
13.166665
 30
0.0
 10
177.634002
 20
13.166665
 30
0.0
 10
177.634002
 20
8.016665
 30
0.0
 10
180.634002
 20
8.016665
 30
0.0
 10
180.634002
 20
2.716665
 30
0.0
 10
177.634002
 20
2.716665
 30
0.0
 10
177.634002
 20
-2.383335
 30
0.0
 10
180.634002
 20
-2.383335
 30
0.0
 10
180.634002
 20
-7.683335
 30
0.0
 10
177.634002
 20
-7.683335
 30
0.0
 10
177.634002
 20
-12.833335
 30
0.0
 10
174.969717
 20
-12.833335
 30
0.0
 10
174.969717
 20
-15.833335
 30
0.0
 10
169.155431
 20
-15.833335
 30
0.0
 10
169.155431
 20
-12.833335
 30
0.0
 10
163.541145
 20
-12.833335
 30
0.0
 10
163.541145
 20
-15.833335
 30
0.0
 10
157.726860
 20
-15.833335
 30
0.0
 10
157.726860
 20
-12.833335
 30
0.0
 10
152.112574
 20
-12.833335
 30
0.0
 10
152.112574
 20
-15.833335
 30
0.0
 10
146.298288
 20
-15.833335
 30
0.0
 10
146.298288
 20
-12.833335
 30
0.0
 10
143.634002
 20
-12.833335
 30
0.0
 10
143.634002
 20
-7.683335
 30
0.0
 10
140.634002
 20
-7.683335
 30
0.0
 10
140.634002
 20
-2.383335
 30
0.0
 10
143.634002
 20
-2.383335
 30
0.0
 10
143.634002
 20
2.716665
 30
0.0
 10
140.634002
 20
2.716665
 30
0.0
 10
140.634002
 20
8.016665
 30
0.0
 10
143.634002
 20
8.016665
 30
0.0
 10
143.634002
 20
13.166665
 30
0.0
  0
SPLINE
  5
135
100
AcDbEntity
  8
Calque_1
 62
7
100
AcDbSpline
 70
0
 71
3
 72
10
 73
6
 74
4
 40
0.000000
 40
0.000000
 40
0.000000
 40
0.000000
 40
0.907548
 40
1.792398
 40
2.696695
 40
2.696695
 40
2.696695
 40
2.696695
 10
160.233403
 20
72.168779
 30
0.0
 10
160.538410
 20
72.045998
 30
0.0
 10
161.140796
 20
71.803507
 30
0.0
 10
161.110210
 20
70.648185
 30
0.0
 10
160.527782
 20
70.390727
 30
0.0
 10
160.233403
 20
70.260599
 30
0.0
 11
160.233403
 21
72.168779
 31
0.0
 11
160.988778
 21
71.665736
 31
0.0
 11
160.972935
 21
70.781028
 31
0.0
 11
160.233403
 21
70.260599
 31
0.0
  0
LWPOLYLINE
  5
136
100
AcDbEntity
  8
Calque_1
 62
1
100
AcDbPolyline
 90
45
 70
1
 10
100.634002
 20
13.166665
 30
0.0
 10
103.298288
 20
13.166665
 30
0.0
 10
103.298288
 20
16.166665
 30
0.0
 10
109.112574
 20
16.166665
 30
0.0
 10
109.112574
 20
13.166665
 30
0.0
 10
114.726860
 20
13.166665
 30
0.0
 10
114.726860
 20
16.166665
 30
0.0
 10
120.541145
 20
16.166665
 30
0.0
 10
120.541145
 20
13.166665
 30
0.0
 10
126.155431
 20
13.166665
 30
0.0
 10
126.155431
 20
16.166665
 30
0.0
 10
131.969717
 20
16.166665
 30
0.0
 10
131.969717
 20
13.166665
 30
0.0
 10
134.634002
 20
13.166665
 30
0.0
 10
134.634002
 20
8.016665
 30
0.0
 10
137.634002
 20
8.016665
 30
0.0
 10
137.634002
 20
2.716665
 30
0.0
 10
134.634002
 20
2.716665
 30
0.0
 10
134.634002
 20
-2.383335
 30
0.0
 10
137.634002
 20
-2.383335
 30
0.0
 10
137.634002
 20
-7.683335
 30
0.0
 10
134.634002
 20
-7.683335
 30
0.0
 10
134.634002
 20
-12.833335
 30
0.0
 10
131.969717
 20
-12.833335
 30
0.0
 10
131.969717
 20
-15.833335
 30
0.0
 10
126.155431
 20
-15.833335
 30
0.0
 10
126.155431
 20
-12.833335
 30
0.0
 10
120.541145
 20
-12.833335
 30
0.0
 10
120.541145
 20
-15.833335
 30
0.0
 10
114.726860
 20
-15.833335
 30
0.0
 10
114.726860
 20
-12.833335
 30
0.0
 10
109.112574
 20
-12.833335
 30
0.0
 10
109.112574
 20
-15.833335
 30
0.0
 10
103.298288
 20
-15.833335
 30
0.0
 10
103.298288
 20
-12.833335
 30
0.0
 10
100.634002
 20
-12.833335
 30
0.0
 10
100.634002
 20
-7.683335
 30
0.0
 10
97.634002
 20
-7.683335
 30
0.0
 10
97.634002
 20
-2.383335
 30
0.0
 10
100.634002
 20
-2.383335
 30
0.0
 10
100.634002
 20
2.716665
 30
0.0
 10
97.634002
 20
2.716665
 30
0.0
 10
97.634002
 20
8.016665
 30
0.0
 10
100.634002
 20
8.016665
 30
0.0
 10
100.634002
 20
13.166665
 30
0.0
  0
ENDSEC
  0
SECTION
  2
OBJECTS
  0
DICTIONARY
  5
C
330
0
100
AcDbDictionary
  3
ACAD_GROUP
350
D
  3
ACAD_MLINESTYLE
350
17
  0
DICTIONARY
  5
D
330
C
100
AcDbDictionary
  0
DICTIONARY
  5
1A
330
C
100
AcDbDictionary
  0
DICTIONARY
  5
17
330
C
100
AcDbDictionary
  3
STANDARD
350
18
  0
DICTIONARY
  5
19
330
C
100
AcDbDictionary
  0
ENDSEC
  0
EOF
