  0
SECTION
  2
HEADER
  9
$ACADVER
  1
AC1014
  9
$HANDSEED
  5
FFFF
  9
$MEASUREMENT
 70
     1
  0
ENDSEC
  0
SECTION
  2
TABLES
  0
TABLE
  2
VPORT
  5
8
330
0
100
AcDbSymbolTable
 70
     4
  0
VPORT
  5
2E
330
8
100
AcDbSymbolTableRecord
100
AcDbViewportTableRecord
  2
*ACTIVE
 70
     0
 10
0.0
 20
0.0
 11
1.0
 21
1.0
 12
210.0
 22
148.5
 13
0.0
 23
0.0
 14
10.0
 24
10.0
 15
10.0
 25
10.0
 16
0.0
 26
0.0
 36
1.0
 17
0.0
 27
0.0
 37
0.0
 40
341.0
 41
1.24
 42
50.0
 43
0.0
 44
0.0
 50
0.0
 51
0.0
 71
     0
 72
   100
 73
     1
 74
     3
 75
     0
 76
     0
 77
     0
 78
     0
  0
ENDTAB
  0
TABLE
  2
LTYPE
  5
5
330
0
100
AcDbSymbolTable
 70
     1
  0
LTYPE
  5
14
330
5
100
AcDbSymbolTableRecord
100
AcDbLinetypeTableRecord
  2
BYBLOCK
 70
     0
  3

 72
    65
 73
     0
 40
0.0
  0
LTYPE
  5
15
330
5
100
AcDbSymbolTableRecord
100
AcDbLinetypeTableRecord
  2
BYLAYER
 70
     0
  3

 72
    65
 73
     0
 40
0.0
  0
LTYPE
  5
16
330
5
100
AcDbSymbolTableRecord
100
AcDbLinetypeTableRecord
  2
CONTINUOUS
 70
     0
  3
Solid line
 72
    65
 73
     0
 40
0.0
  0
ENDTAB
  0
TABLE
  2
LAYER
  5
2
100
AcDbSymbolTable
 70
2
  0
LAYER
  5
50
100
AcDbSymbolTableRecord
100
AcDbLayerTableRecord
  2
0
 70
0
  6
CONTINUOUS
  0
LAYER
  5
51
100
AcDbSymbolTableRecord
100
AcDbLayerTableRecord
  2
Calque_1
 70
0
  6
CONTINUOUS
  0
ENDTAB
  0
TABLE
  2
STYLE
  5
3
330
0
100
AcDbSymbolTable
 70
     1
  0
STYLE
  5
11
330
3
100
AcDbSymbolTableRecord
100
AcDbTextStyleTableRecord
  2
STANDARD
 70
     0
 40
0.0
 41
1.0
 50
0.0
 71
     0
 42
2.5
  3
txt
  4

  0
ENDTAB
  0
TABLE
  2
VIEW
  5
6
330
0
100
AcDbSymbolTable
 70
     0
  0
ENDTAB
  0
TABLE
  2
UCS
  5
7
330
0
100
AcDbSymbolTable
 70
     0
  0
ENDTAB
  0
TABLE
  2
APPID
  5
9
330
0
100
AcDbSymbolTable
 70
     2
  0
APPID
  5
12
330
9
100
AcDbSymbolTableRecord
100
AcDbRegAppTableRecord
  2
ACAD
 70
     0
  0
ENDTAB
  0
TABLE
  2
DIMSTYLE
  5
A
330
0
100
AcDbSymbolTable
 70
     1
  0
DIMSTYLE
105
27
330
A
100
AcDbSymbolTableRecord
100
AcDbDimStyleTableRecord
  2
ISO-25
 70
     0
  3

  4

  5

  6

  7

 40
1.0
 41
2.5
 42
0.625
 43
3.75
 44
1.25
 45
0.0
 46
0.0
 47
0.0
 48
0.0
140
2.5
141
2.5
142
0.0
143
0.03937007874016
144
1.0
145
0.0
146
1.0
147
0.625
 71
     0
 72
     0
 73
     0
 74
     0
 75
     0
 76
     0
 77
     1
 78
     8
170
     0
171
     3
172
     1
173
     0
174
     0
175
     0
176
     0
177
     0
178
     0
270
     2
271
     2
272
     2
273
     2
274
     3
340
11
275
     0
280
     0
281
     0
282
     0
283
     0
284
     8
285
     0
286
     0
287
     3
288
     0
  0
ENDTAB
  0
TABLE
  2
BLOCK_RECORD
  5
1
330
0
100
AcDbSymbolTable
 70
     1
  0
BLOCK_RECORD
  5
1F
330
1
100
AcDbSymbolTableRecord
100
AcDbBlockTableRecord
  2
*MODEL_SPACE
  0
BLOCK_RECORD
  5
1B
330
1
100
AcDbSymbolTableRecord
100
AcDbBlockTableRecord
  2
*PAPER_SPACE
  0
ENDTAB
  0
ENDSEC
  0
SECTION
  2
BLOCKS
  0
BLOCK
  5
20
330
1F
100
AcDbEntity
  8
0
100
AcDbBlockBegin
  2
*MODEL_SPACE
 70
     0
 10
0.0
 20
0.0
 30
0.0
  3
*MODEL_SPACE
  1

  0
ENDBLK
  5
21
330
1F
100
AcDbEntity
  8
0
100
AcDbBlockEnd
  0
BLOCK
  5
1C
330
1B
100
AcDbEntity
 67
     1
  8
0
100
AcDbBlockBegin
  2
*PAPER_SPACE
  1

  0
ENDBLK
  5
1D
330
1B
100
AcDbEntity
 67
     1
  8
0
100
AcDbBlockEnd
  0
ENDSEC
  0
SECTION
  2
ENTITIES
  0
SPLINE
  5
100
100
AcDbEntity
  8
Calque_1
 62
7
100
AcDbSpline
 70
8
 71
3
 72
8
 73
4
 74
0
 40
0
 40
0
 40
0
 40
0
 40
1
 40
1
 40
1
 40
1
 10
35.452960
 20
89.494800
 30
0.0
 10
35.452961
 20
88.783243
 30
0.0
 10
35.018869
 20
88.100829
 30
0.0
 10
34.246180
 20
87.597682
 30
0.0
  0
SPLINE
  5
101
100
AcDbEntity
  8
Calque_1
 62
7
100
AcDbSpline
 70
8
 71
3
 72
8
 73
4
 74
0
 40
0
 40
0
 40
0
 40
0
 40
1
 40
1
 40
1
 40
1
 10
34.246180
 20
87.597682
 30
0.0
 10
33.473491
 20
87.094535
 30
0.0
 10
32.425498
 20
86.811870
 30
0.0
 10
31.332750
 20
86.811870
 30
0.0
  0
SPLINE
  5
102
100
AcDbEntity
  8
Calque_1
 62
7
100
AcDbSpline
 70
8
 71
3
 72
8
 73
4
 74
0
 40
0
 40
0
 40
0
 40
0
 40
1
 40
1
 40
1
 40
1
 10
31.332750
 20
86.811870
 30
0.0
 10
30.240002
 20
86.811870
 30
0.0
 10
29.192010
 20
87.094535
 30
0.0
 10
28.419321
 20
87.597682
 30
0.0
  0
SPLINE
  5
103
100
AcDbEntity
  8
Calque_1
 62
7
100
AcDbSpline
 70
8
 71
3
 72
8
 73
4
 74
0
 40
0
 40
0
 40
0
 40
0
 40
1
 40
1
 40
1
 40
1
 10
28.419321
 20
87.597682
 30
0.0
 10
27.646631
 20
88.100829
 30
0.0
 10
27.212540
 20
88.783243
 30
0.0
 10
27.212541
 20
89.494800
 30
0.0
  0
SPLINE
  5
104
100
AcDbEntity
  8
Calque_1
 62
7
100
AcDbSpline
 70
8
 71
3
 72
8
 73
4
 74
0
 40
0
 40
0
 40
0
 40
0
 40
1
 40
1
 40
1
 40
1
 10
27.212541
 20
89.494800
 30
0.0
 10
27.212547
 20
90.976537
 30
0.0
 10
29.057226
 20
92.177720
 30
0.0
 10
31.332750
 20
92.177720
 30
0.0
  0
SPLINE
  5
105
100
AcDbEntity
  8
Calque_1
 62
7
100
AcDbSpline
 70
8
 71
3
 72
8
 73
4
 74
0
 40
0
 40
0
 40
0
 40
0
 40
1
 40
1
 40
1
 40
1
 10
31.332750
 20
92.177720
 30
0.0
 10
33.608275
 20
92.177720
 30
0.0
 10
35.452954
 20
90.976537
 30
0.0
 10
35.452960
 20
89.494800
 30
0.0
  0
LINE
  5
106
100
AcDbEntity
  8
Calque_1
 62
7
100
AcDbLine
 10
35.452960
 20
89.494800
 30
0.0
 11
35.452960
 21
89.494800
 31
0.0
  0
SPLINE
  5
107
100
AcDbEntity
  8
Calque_1
 62
7
100
AcDbSpline
 70
8
 71
3
 72
8
 73
4
 74
0
 40
0
 40
0
 40
0
 40
0
 40
1
 40
1
 40
1
 40
1
 10
263.230210
 20
18.441220
 30
0.0
 10
263.230209
 20
15.807374
 30
0.0
 10
261.095056
 20
13.672221
 30
0.0
 10
258.461210
 20
13.672220
 30
0.0
  0
SPLINE
  5
108
100
AcDbEntity
  8
Calque_1
 62
7
100
AcDbSpline
 70
8
 71
3
 72
8
 73
4
 74
0
 40
0
 40
0
 40
0
 40
0
 40
1
 40
1
 40
1
 40
1
 10
258.461210
 20
13.672220
 30
0.0
 10
255.827364
 20
13.672221
 30
0.0
 10
253.692211
 20
15.807374
 30
0.0
 10
253.692210
 20
18.441220
 30
0.0
  0
SPLINE
  5
109
100
AcDbEntity
  8
Calque_1
 62
7
100
AcDbSpline
 70
8
 71
3
 72
8
 73
4
 74
0
 40
0
 40
0
 40
0
 40
0
 40
1
 40
1
 40
1
 40
1
 10
253.692210
 20
18.441220
 30
0.0
 10
253.692205
 20
19.706041
 30
0.0
 10
254.194650
 20
20.919060
 30
0.0
 10
255.089011
 20
21.813425
 30
0.0
  0
SPLINE
  5
10a
100
AcDbEntity
  8
Calque_1
 62
7
100
AcDbSpline
 70
8
 71
3
 72
8
 73
4
 74
0
 40
0
 40
0
 40
0
 40
0
 40
1
 40
1
 40
1
 40
1
 10
255.089011
 20
21.813425
 30
0.0
 10
255.983373
 20
22.707790
 30
0.0
 10
257.196389
 20
23.210240
 30
0.0
 10
258.461210
 20
23.210240
 30
0.0
  0
SPLINE
  5
10b
100
AcDbEntity
  8
Calque_1
 62
7
100
AcDbSpline
 70
8
 71
3
 72
8
 73
4
 74
0
 40
0
 40
0
 40
0
 40
0
 40
1
 40
1
 40
1
 40
1
 10
258.461210
 20
23.210240
 30
0.0
 10
259.726031
 20
23.210240
 30
0.0
 10
260.939047
 20
22.707790
 30
0.0
 10
261.833409
 20
21.813425
 30
0.0
  0
SPLINE
  5
10c
100
AcDbEntity
  8
Calque_1
 62
7
100
AcDbSpline
 70
8
 71
3
 72
8
 73
4
 74
0
 40
0
 40
0
 40
0
 40
0
 40
1
 40
1
 40
1
 40
1
 10
261.833409
 20
21.813425
 30
0.0
 10
262.727770
 20
20.919060
 30
0.0
 10
263.230215
 20
19.706041
 30
0.0
 10
263.230210
 20
18.441220
 30
0.0
  0
LINE
  5
10d
100
AcDbEntity
  8
Calque_1
 62
7
100
AcDbLine
 10
263.230210
 20
18.441220
 30
0.0
 11
263.230210
 21
18.441220
 31
0.0
  0
LINE
  5
10e
100
AcDbEntity
  8
Calque_1
 62
7
100
AcDbLine
 10
366.268726
 20
61.822776
 30
0.0
 11
364.230674
 21
61.817889
 31
0.0
  0
LINE
  5
10f
100
AcDbEntity
  8
Calque_1
 62
7
100
AcDbLine
 10
364.230674
 20
61.817889
 30
0.0
 11
360.321193
 21
50.487747
 31
0.0
  0
LINE
  5
110
100
AcDbEntity
  8
Calque_1
 62
7
100
AcDbLine
 10
360.321193
 20
50.487747
 30
0.0
 11
362.084759
 21
50.487747
 31
0.0
  0
LINE
  5
111
100
AcDbEntity
  8
Calque_1
 62
7
100
AcDbLine
 10
362.084759
 20
50.487747
 30
0.0
 11
363.014901
 21
53.166780
 31
0.0
  0
LINE
  5
112
100
AcDbEntity
  8
Calque_1
 62
7
100
AcDbLine
 10
363.014901
 20
53.166780
 30
0.0
 11
367.205051
 21
53.176559
 31
0.0
  0
LINE
  5
113
100
AcDbEntity
  8
Calque_1
 62
7
100
AcDbLine
 10
367.205051
 20
53.176559
 30
0.0
 11
369.500502
 21
46.391948
 31
0.0
  0
LINE
  5
114
100
AcDbEntity
  8
Calque_1
 62
7
100
AcDbLine
 10
369.500502
 20
46.391948
 30
0.0
 11
371.740769
 21
46.388271
 31
0.0
  0
LINE
  5
115
100
AcDbEntity
  8
Calque_1
 62
7
100
AcDbLine
 10
371.740769
 20
46.388271
 30
0.0
 11
366.268726
 21
61.821485
 31
0.0
  0
LINE
  5
116
100
AcDbEntity
  8
Calque_1
 62
7
100
AcDbLine
 10
366.268726
 20
61.821485
 30
0.0
 11
366.268726
 21
61.822776
 31
0.0
  0
LINE
  5
117
100
AcDbEntity
  8
Calque_1
 62
7
100
AcDbLine
 10
365.115507
 20
59.197677
 30
0.0
 11
366.627816
 21
54.839623
 31
0.0
  0
LINE
  5
118
100
AcDbEntity
  8
Calque_1
 62
7
100
AcDbLine
 10
366.627816
 20
54.839623
 30
0.0
 11
363.609318
 21
54.832283
 31
0.0
  0
LINE
  5
119
100
AcDbEntity
  8
Calque_1
 62
7
100
AcDbLine
 10
363.609318
 20
54.832283
 30
0.0
 11
365.115507
 21
59.197645
 31
0.0
  0
LINE
  5
11a
100
AcDbEntity
  8
Calque_1
 62
7
100
AcDbLine
 10
365.115507
 20
59.197645
 30
0.0
 11
365.115507
 21
59.197677
 31
0.0
  0
LINE
  5
11b
100
AcDbEntity
  8
Calque_1
 62
7
100
AcDbLine
 10
372.439254
 20
62.070485
 30
0.0
 11
372.448086
 21
54.815287
 31
0.0
  0
LINE
  5
11c
100
AcDbEntity
  8
Calque_1
 62
7
100
AcDbLine
 10
372.448086
 20
54.815287
 30
0.0
 11
375.886977
 21
54.818654
 31
0.0
  0
SPLINE
  5
11d
100
AcDbEntity
  8
Calque_1
 62
7
100
AcDbSpline
 70
8
 71
3
 72
8
 73
4
 74
0
 40
0
 40
0
 40
0
 40
0
 40
1
 40
1
 40
1
 40
1
 10
375.886977
 20
54.818654
 30
0.0
 10
379.105482
 20
54.850757
 30
0.0
 10
378.733301
 20
58.207396
 30
0.0
 10
376.974056
 20
58.538174
 30
0.0
  0
SPLINE
  5
11e
100
AcDbEntity
  8
Calque_1
 62
7
100
AcDbSpline
 70
8
 71
3
 72
8
 73
4
 74
0
 40
0
 40
0
 40
0
 40
0
 40
1
 40
1
 40
1
 40
1
 10
376.974056
 20
58.538174
 30
0.0
 10
378.558267
 20
59.287753
 30
0.0
 10
378.172427
 20
62.038969
 30
0.0
 10
376.340449
 20
62.070185
 30
0.0
  0
LINE
  5
11f
100
AcDbEntity
  8
Calque_1
 62
7
100
AcDbLine
 10
376.340449
 20
62.070185
 30
0.0
 11
372.439254
 21
62.070485
 31
0.0
  0
SPLINE
  5
120
100
AcDbEntity
  8
Calque_1
 62
7
100
AcDbSpline
 70
8
 71
3
 72
8
 73
4
 74
0
 40
0
 40
0
 40
0
 40
0
 40
1
 40
1
 40
1
 40
1
 10
375.802162
 20
60.853524
 30
0.0
 10
376.863290
 20
60.850157
 30
0.0
 10
376.873069
 20
59.044778
 30
0.0
 10
375.802162
 20
59.038511
 30
0.0
  0
LINE
  5
121
100
AcDbEntity
  8
Calque_1
 62
7
100
AcDbLine
 10
375.802162
 20
59.038511
 30
0.0
 11
373.862100
 21
59.038511
 31
0.0
  0
LINE
  5
122
100
AcDbEntity
  8
Calque_1
 62
7
100
AcDbLine
 10
373.862100
 20
59.038511
 30
0.0
 11
373.862100
 21
60.852301
 31
0.0
  0
LINE
  5
123
100
AcDbEntity
  8
Calque_1
 62
7
100
AcDbLine
 10
373.862100
 20
60.852301
 30
0.0
 11
375.802162
 21
60.853524
 31
0.0
  0
LINE
  5
124
100
AcDbEntity
  8
Calque_1
 62
7
100
AcDbLine
 10
373.868241
 20
57.920793
 30
0.0
 11
376.026417
 21
57.920793
 31
0.0
  0
SPLINE
  5
125
100
AcDbEntity
  8
Calque_1
 62
7
100
AcDbSpline
 70
8
 71
3
 72
8
 73
4
 74
0
 40
0
 40
0
 40
0
 40
0
 40
1
 40
1
 40
1
 40
1
 10
376.026417
 20
57.920793
 30
0.0
 10
377.183274
 20
57.857290
 30
0.0
 10
377.111919
 20
56.102291
 30
0.0
 10
376.026417
 20
56.012650
 30
0.0
  0
LINE
  5
126
100
AcDbEntity
  8
Calque_1
 62
7
100
AcDbLine
 10
376.026417
 20
56.012650
 30
0.0
 11
373.860880
 21
56.012650
 31
0.0
  0
LINE
  5
127
100
AcDbEntity
  8
Calque_1
 62
7
100
AcDbLine
 10
373.860880
 20
56.012650
 30
0.0
 11
373.868241
 21
57.920793
 31
0.0
  0
SPLINE
  5
128
100
AcDbEntity
  8
Calque_1
 62
7
100
AcDbSpline
 70
8
 71
3
 72
8
 73
4
 74
0
 40
0
 40
0
 40
0
 40
0
 40
1
 40
1
 40
1
 40
1
 10
355.115234
 20
65.232401
 30
0.0
 10
354.332334
 20
65.232401
 30
0.0
 10
353.697192
 20
64.597260
 30
0.0
 10
353.697192
 20
63.814356
 30
0.0
  0
LINE
  5
129
100
AcDbEntity
  8
Calque_1
 62
7
100
AcDbLine
 10
353.697192
 20
63.814356
 30
0.0
 11
353.697192
 21
39.173960
 31
0.0
  0
SPLINE
  5
12a
100
AcDbEntity
  8
Calque_1
 62
7
100
AcDbSpline
 70
8
 71
3
 72
8
 73
4
 74
0
 40
0
 40
0
 40
0
 40
0
 40
1
 40
1
 40
1
 40
1
 10
353.697192
 20
39.173960
 30
0.0
 10
353.697192
 20
38.391113
 30
0.0
 10
354.332334
 20
37.755971
 30
0.0
 10
355.115234
 20
37.755971
 30
0.0
  0
LINE
  5
12b
100
AcDbEntity
  8
Calque_1
 62
7
100
AcDbLine
 10
355.115234
 20
37.755971
 30
0.0
 11
379.807668
 21
37.755971
 31
0.0
  0
SPLINE
  5
12c
100
AcDbEntity
  8
Calque_1
 62
7
100
AcDbSpline
 70
8
 71
3
 72
8
 73
4
 74
0
 40
0
 40
0
 40
0
 40
0
 40
1
 40
1
 40
1
 40
1
 10
379.807668
 20
37.755971
 30
0.0
 10
380.590546
 20
37.755971
 30
0.0
 10
381.225688
 20
38.391113
 30
0.0
 10
381.225688
 20
39.173960
 30
0.0
  0
LINE
  5
12d
100
AcDbEntity
  8
Calque_1
 62
7
100
AcDbLine
 10
381.225688
 20
39.173960
 30
0.0
 11
381.225688
 21
63.814356
 31
0.0
  0
SPLINE
  5
12e
100
AcDbEntity
  8
Calque_1
 62
7
100
AcDbSpline
 70
8
 71
3
 72
8
 73
4
 74
0
 40
0
 40
0
 40
0
 40
0
 40
1
 40
1
 40
1
 40
1
 10
381.225688
 20
63.814356
 30
0.0
 10
381.225688
 20
64.597260
 30
0.0
 10
380.590546
 20
65.232401
 30
0.0
 10
379.807668
 20
65.232401
 30
0.0
  0
LINE
  5
12f
100
AcDbEntity
  8
Calque_1
 62
7
100
AcDbLine
 10
379.807668
 20
65.232401
 30
0.0
 11
355.115234
 21
65.232401
 31
0.0
  0
LINE
  5
130
100
AcDbEntity
  8
Calque_1
 62
7
100
AcDbLine
 10
372.473680
 20
53.645960
 30
0.0
 11
372.482197
 21
46.390726
 31
0.0
  0
LINE
  5
131
100
AcDbEntity
  8
Calque_1
 62
7
100
AcDbLine
 10
372.482197
 20
46.390726
 30
0.0
 11
375.921024
 21
46.394404
 31
0.0
  0
SPLINE
  5
132
100
AcDbEntity
  8
Calque_1
 62
7
100
AcDbSpline
 70
8
 71
3
 72
8
 73
4
 74
0
 40
0
 40
0
 40
0
 40
0
 40
1
 40
1
 40
1
 40
1
 10
375.921024
 20
46.394404
 30
0.0
 10
379.139561
 20
46.426538
 30
0.0
 10
378.767380
 20
49.783179
 30
0.0
 10
377.008104
 20
50.113952
 30
0.0
  0
SPLINE
  5
133
100
AcDbEntity
  8
Calque_1
 62
7
100
AcDbSpline
 70
8
 71
3
 72
8
 73
4
 74
0
 40
0
 40
0
 40
0
 40
0
 40
1
 40
1
 40
1
 40
1
 10
377.008104
 20
50.113952
 30
0.0
 10
378.592346
 20
50.863561
 30
0.0
 10
378.206506
 20
53.614784
 30
0.0
 10
376.374497
 20
53.645968
 30
0.0
  0
LINE
  5
134
100
AcDbEntity
  8
Calque_1
 62
7
100
AcDbLine
 10
376.374497
 20
53.645968
 30
0.0
 11
372.473680
 21
53.645960
 31
0.0
  0
SPLINE
  5
135
100
AcDbEntity
  8
Calque_1
 62
7
100
AcDbSpline
 70
8
 71
3
 72
8
 73
4
 74
0
 40
0
 40
0
 40
0
 40
0
 40
1
 40
1
 40
1
 40
1
 10
375.836525
 20
52.428999
 30
0.0
 10
376.897685
 20
52.425328
 30
0.0
 10
376.907496
 20
50.620224
 30
0.0
 10
375.836525
 20
50.613978
 30
0.0
  0
LINE
  5
136
100
AcDbEntity
  8
Calque_1
 62
7
100
AcDbLine
 10
375.836525
 20
50.613978
 30
0.0
 11
373.896527
 21
50.613978
 31
0.0
  0
LINE
  5
137
100
AcDbEntity
  8
Calque_1
 62
7
100
AcDbLine
 10
373.896527
 20
50.613978
 30
0.0
 11
373.896527
 21
52.427776
 31
0.0
  0
LINE
  5
138
100
AcDbEntity
  8
Calque_1
 62
7
100
AcDbLine
 10
373.896527
 20
52.427776
 30
0.0
 11
375.836525
 21
52.428999
 31
0.0
  0
LINE
  5
139
100
AcDbEntity
  8
Calque_1
 62
7
100
AcDbLine
 10
373.902646
 20
49.496299
 30
0.0
 11
376.060843
 21
49.496299
 31
0.0
  0
SPLINE
  5
13a
100
AcDbEntity
  8
Calque_1
 62
7
100
AcDbSpline
 70
8
 71
3
 72
8
 73
4
 74
0
 40
0
 40
0
 40
0
 40
0
 40
1
 40
1
 40
1
 40
1
 10
376.060843
 20
49.496299
 30
0.0
 10
377.217669
 20
49.432736
 30
0.0
 10
377.146377
 20
47.677760
 30
0.0
 10
376.060843
 20
47.588119
 30
0.0
  0
LINE
  5
13b
100
AcDbEntity
  8
Calque_1
 62
7
100
AcDbLine
 10
376.060843
 20
47.588119
 30
0.0
 11
373.895307
 21
47.588119
 31
0.0
  0
LINE
  5
13c
100
AcDbEntity
  8
Calque_1
 62
7
100
AcDbLine
 10
373.895307
 20
47.588119
 30
0.0
 11
373.902646
 21
49.496299
 31
0.0
  0
LINE
  5
13d
100
AcDbEntity
  8
Calque_1
 62
7
100
AcDbLine
 10
356.828748
 20
61.972466
 30
0.0
 11
361.699371
 21
61.965431
 31
0.0
  0
LINE
  5
13e
100
AcDbEntity
  8
Calque_1
 62
7
100
AcDbLine
 10
361.699371
 20
61.965431
 30
0.0
 11
361.703048
 21
60.722361
 31
0.0
  0
LINE
  5
13f
100
AcDbEntity
  8
Calque_1
 62
7
100
AcDbLine
 10
361.703048
 20
60.722361
 30
0.0
 11
358.247019
 21
60.729395
 31
0.0
  0
LINE
  5
140
100
AcDbEntity
  8
Calque_1
 62
7
100
AcDbLine
 10
358.247019
 20
60.729395
 30
0.0
 11
358.243341
 21
58.863077
 31
0.0
  0
LINE
  5
141
100
AcDbEntity
  8
Calque_1
 62
7
100
AcDbLine
 10
358.243341
 20
58.863077
 30
0.0
 11
361.128655
 21
58.859406
 31
0.0
  0
LINE
  5
142
100
AcDbEntity
  8
Calque_1
 62
7
100
AcDbLine
 10
361.128655
 20
58.859406
 30
0.0
 11
361.128655
 21
57.717902
 31
0.0
  0
LINE
  5
143
100
AcDbEntity
  8
Calque_1
 62
7
100
AcDbLine
 10
361.128655
 20
57.717902
 30
0.0
 11
358.246853
 21
57.717902
 31
0.0
  0
LINE
  5
144
100
AcDbEntity
  8
Calque_1
 62
7
100
AcDbLine
 10
358.246853
 20
57.717902
 30
0.0
 11
358.246853
 21
54.713564
 31
0.0
  0
LINE
  5
145
100
AcDbEntity
  8
Calque_1
 62
7
100
AcDbLine
 10
358.246853
 20
54.713564
 30
0.0
 11
356.828748
 21
54.713564
 31
0.0
  0
LINE
  5
146
100
AcDbEntity
  8
Calque_1
 62
7
100
AcDbLine
 10
356.828748
 20
54.713564
 30
0.0
 11
356.828748
 21
61.972466
 31
0.0
  0
LINE
  5
147
100
AcDbEntity
  8
Calque_1
 62
7
100
AcDbLine
 10
356.825071
 20
53.642291
 30
0.0
 11
358.225752
 21
53.642291
 31
0.0
  0
LINE
  5
148
100
AcDbEntity
  8
Calque_1
 62
7
100
AcDbLine
 10
358.225752
 20
53.642291
 30
0.0
 11
358.225752
 21
47.633586
 31
0.0
  0
LINE
  5
149
100
AcDbEntity
  8
Calque_1
 62
7
100
AcDbLine
 10
358.225752
 20
47.633586
 30
0.0
 11
361.937382
 21
47.633586
 31
0.0
  0
LINE
  5
14a
100
AcDbEntity
  8
Calque_1
 62
7
100
AcDbLine
 10
361.937382
 20
47.633586
 30
0.0
 11
361.937382
 21
46.397550
 31
0.0
  0
LINE
  5
14b
100
AcDbEntity
  8
Calque_1
 62
7
100
AcDbLine
 10
361.937382
 20
46.397550
 30
0.0
 11
356.828614
 21
46.397550
 31
0.0
  0
LINE
  5
14c
100
AcDbEntity
  8
Calque_1
 62
7
100
AcDbLine
 10
356.828614
 20
46.397550
 30
0.0
 11
356.825071
 21
53.642291
 31
0.0
  0
LINE
  5
14d
100
AcDbEntity
  8
Calque_1
 62
7
100
AcDbLine
 10
356.943480
 20
44.350669
 30
0.0
 11
356.943480
 21
40.699578
 31
0.0
  0
LINE
  5
14e
100
AcDbEntity
  8
Calque_1
 62
7
100
AcDbLine
 10
356.943480
 20
40.699578
 30
0.0
 11
358.995765
 21
40.699578
 31
0.0
  0
LINE
  5
14f
100
AcDbEntity
  8
Calque_1
 62
7
100
AcDbLine
 10
360.706002
 20
44.350669
 30
0.0
 11
359.337812
 21
40.699578
 31
0.0
  0
LINE
  5
150
100
AcDbEntity
  8
Calque_1
 62
7
100
AcDbLine
 10
360.706002
 20
44.350669
 30
0.0
 11
362.074192
 21
40.699578
 31
0.0
  0
LINE
  5
151
100
AcDbEntity
  8
Calque_1
 62
7
100
AcDbLine
 10
359.850883
 20
41.916608
 30
0.0
 11
361.561121
 21
41.916608
 31
0.0
  0
LINE
  5
152
100
AcDbEntity
  8
Calque_1
 62
7
100
AcDbLine
 10
362.929311
 20
44.350669
 30
0.0
 11
362.929311
 21
40.699578
 31
0.0
  0
LINE
  5
153
100
AcDbEntity
  8
Calque_1
 62
7
100
AcDbLine
 10
362.929311
 20
44.350669
 30
0.0
 11
365.323643
 21
40.699578
 31
0.0
  0
LINE
  5
154
100
AcDbEntity
  8
Calque_1
 62
7
100
AcDbLine
 10
365.323643
 20
44.350669
 30
0.0
 11
365.323643
 21
40.699578
 31
0.0
  0
LINE
  5
155
100
AcDbEntity
  8
Calque_1
 62
7
100
AcDbLine
 10
366.691833
 20
44.350669
 30
0.0
 11
366.691833
 21
40.699578
 31
0.0
  0
LINE
  5
156
100
AcDbEntity
  8
Calque_1
 62
7
100
AcDbLine
 10
366.691833
 20
44.350669
 30
0.0
 11
369.086166
 21
40.699578
 31
0.0
  0
LINE
  5
157
100
AcDbEntity
  8
Calque_1
 62
7
100
AcDbLine
 10
369.086166
 20
44.350669
 30
0.0
 11
369.086166
 21
40.699578
 31
0.0
  0
LINE
  5
158
100
AcDbEntity
  8
Calque_1
 62
7
100
AcDbLine
 10
370.454356
 20
44.350669
 30
0.0
 11
370.454356
 21
40.699578
 31
0.0
  0
LINE
  5
159
100
AcDbEntity
  8
Calque_1
 62
7
100
AcDbLine
 10
372.677664
 20
44.350669
 30
0.0
 11
372.335617
 21
44.176807
 31
0.0
  0
LINE
  5
15a
100
AcDbEntity
  8
Calque_1
 62
7
100
AcDbLine
 10
372.335617
 20
44.176807
 30
0.0
 11
371.993569
 21
43.829084
 31
0.0
  0
LINE
  5
15b
100
AcDbEntity
  8
Calque_1
 62
7
100
AcDbLine
 10
371.993569
 20
43.829084
 30
0.0
 11
371.822546
 21
43.481362
 31
0.0
  0
LINE
  5
15c
100
AcDbEntity
  8
Calque_1
 62
7
100
AcDbLine
 10
371.822546
 20
43.481362
 30
0.0
 11
371.651522
 21
42.959777
 31
0.0
  0
LINE
  5
15d
100
AcDbEntity
  8
Calque_1
 62
7
100
AcDbLine
 10
371.651522
 20
42.959777
 30
0.0
 11
371.651522
 21
42.090470
 31
0.0
  0
LINE
  5
15e
100
AcDbEntity
  8
Calque_1
 62
7
100
AcDbLine
 10
371.651522
 20
42.090470
 30
0.0
 11
371.822546
 21
41.568886
 31
0.0
  0
LINE
  5
15f
100
AcDbEntity
  8
Calque_1
 62
7
100
AcDbLine
 10
371.822546
 20
41.568886
 30
0.0
 11
371.993569
 21
41.221163
 31
0.0
  0
LINE
  5
160
100
AcDbEntity
  8
Calque_1
 62
7
100
AcDbLine
 10
371.993569
 20
41.221163
 30
0.0
 11
372.335617
 21
40.873440
 31
0.0
  0
LINE
  5
161
100
AcDbEntity
  8
Calque_1
 62
7
100
AcDbLine
 10
372.335617
 20
40.873440
 30
0.0
 11
372.677664
 21
40.699578
 31
0.0
  0
LINE
  5
162
100
AcDbEntity
  8
Calque_1
 62
7
100
AcDbLine
 10
372.677664
 20
40.699578
 30
0.0
 11
373.361759
 21
40.699578
 31
0.0
  0
LINE
  5
163
100
AcDbEntity
  8
Calque_1
 62
7
100
AcDbLine
 10
373.361759
 20
40.699578
 30
0.0
 11
373.703807
 21
40.873440
 31
0.0
  0
LINE
  5
164
100
AcDbEntity
  8
Calque_1
 62
7
100
AcDbLine
 10
373.703807
 20
40.873440
 30
0.0
 11
374.045854
 21
41.221163
 31
0.0
  0
LINE
  5
165
100
AcDbEntity
  8
Calque_1
 62
7
100
AcDbLine
 10
374.045854
 20
41.221163
 30
0.0
 11
374.216878
 21
41.568886
 31
0.0
  0
LINE
  5
166
100
AcDbEntity
  8
Calque_1
 62
7
100
AcDbLine
 10
374.216878
 20
41.568886
 30
0.0
 11
374.387902
 21
42.090470
 31
0.0
  0
LINE
  5
167
100
AcDbEntity
  8
Calque_1
 62
7
100
AcDbLine
 10
374.387902
 20
42.090470
 30
0.0
 11
374.387902
 21
42.959777
 31
0.0
  0
LINE
  5
168
100
AcDbEntity
  8
Calque_1
 62
7
100
AcDbLine
 10
374.387902
 20
42.959777
 30
0.0
 11
374.216878
 21
43.481362
 31
0.0
  0
LINE
  5
169
100
AcDbEntity
  8
Calque_1
 62
7
100
AcDbLine
 10
374.216878
 20
43.481362
 30
0.0
 11
374.045854
 21
43.829084
 31
0.0
  0
LINE
  5
16a
100
AcDbEntity
  8
Calque_1
 62
7
100
AcDbLine
 10
374.045854
 20
43.829084
 30
0.0
 11
373.703807
 21
44.176807
 31
0.0
  0
LINE
  5
16b
100
AcDbEntity
  8
Calque_1
 62
7
100
AcDbLine
 10
373.703807
 20
44.176807
 30
0.0
 11
373.361759
 21
44.350669
 31
0.0
  0
LINE
  5
16c
100
AcDbEntity
  8
Calque_1
 62
7
100
AcDbLine
 10
373.361759
 20
44.350669
 30
0.0
 11
372.677664
 21
44.350669
 31
0.0
  0
LINE
  5
16d
100
AcDbEntity
  8
Calque_1
 62
7
100
AcDbLine
 10
375.585068
 20
44.350669
 30
0.0
 11
375.585068
 21
40.699578
 31
0.0
  0
LINE
  5
16e
100
AcDbEntity
  8
Calque_1
 62
7
100
AcDbLine
 10
375.585068
 20
44.350669
 30
0.0
 11
377.979400
 21
40.699578
 31
0.0
  0
LINE
  5
16f
100
AcDbEntity
  8
Calque_1
 62
7
100
AcDbLine
 10
377.979400
 20
44.350669
 30
0.0
 11
377.979400
 21
40.699578
 31
0.0
  0
LINE
  5
170
100
AcDbEntity
  8
Calque_1
 62
7
100
AcDbLine
 10
354.550260
 20
23.377500
 30
0.0
 11
399.550260
 21
23.377500
 31
0.0
  0
LINE
  5
171
100
AcDbEntity
  8
Calque_1
 62
7
100
AcDbLine
 10
399.550260
 20
23.377500
 30
0.0
 11
399.550260
 21
13.377500
 31
0.0
  0
LINE
  5
172
100
AcDbEntity
  8
Calque_1
 62
7
100
AcDbLine
 10
399.550260
 20
13.377500
 30
0.0
 11
354.550260
 21
13.377500
 31
0.0
  0
LINE
  5
173
100
AcDbEntity
  8
Calque_1
 62
7
100
AcDbLine
 10
354.550260
 20
13.377500
 30
0.0
 11
354.550260
 21
23.377500
 31
0.0
  0
LINE
  5
174
100
AcDbEntity
  8
Calque_1
 62
1
100
AcDbLine
 10
202.461440
 20
71.494190
 30
0.0
 11
207.654297
 21
71.494190
 31
0.0
  0
LINE
  5
175
100
AcDbEntity
  8
Calque_1
 62
1
100
AcDbLine
 10
207.654297
 20
71.494190
 30
0.0
 11
207.654297
 21
68.494190
 31
0.0
  0
LINE
  5
176
100
AcDbEntity
  8
Calque_1
 62
1
100
AcDbLine
 10
207.654297
 20
68.494190
 30
0.0
 11
212.697154
 21
68.494190
 31
0.0
  0
LINE
  5
177
100
AcDbEntity
  8
Calque_1
 62
1
100
AcDbLine
 10
212.697154
 20
68.494190
 30
0.0
 11
212.697154
 21
71.494190
 31
0.0
  0
LINE
  5
178
100
AcDbEntity
  8
Calque_1
 62
1
100
AcDbLine
 10
212.697154
 20
71.494190
 30
0.0
 11
217.940011
 21
71.494190
 31
0.0
  0
LINE
  5
179
100
AcDbEntity
  8
Calque_1
 62
1
100
AcDbLine
 10
217.940011
 20
71.494190
 30
0.0
 11
217.940011
 21
68.494190
 31
0.0
  0
LINE
  5
17a
100
AcDbEntity
  8
Calque_1
 62
1
100
AcDbLine
 10
217.940011
 20
68.494190
 30
0.0
 11
222.982869
 21
68.494190
 31
0.0
  0
LINE
  5
17b
100
AcDbEntity
  8
Calque_1
 62
1
100
AcDbLine
 10
222.982869
 20
68.494190
 30
0.0
 11
222.982869
 21
71.494190
 31
0.0
  0
LINE
  5
17c
100
AcDbEntity
  8
Calque_1
 62
1
100
AcDbLine
 10
222.982869
 20
71.494190
 30
0.0
 11
228.225726
 21
71.494190
 31
0.0
  0
LINE
  5
17d
100
AcDbEntity
  8
Calque_1
 62
1
100
AcDbLine
 10
228.225726
 20
71.494190
 30
0.0
 11
228.225726
 21
68.494190
 31
0.0
  0
LINE
  5
17e
100
AcDbEntity
  8
Calque_1
 62
1
100
AcDbLine
 10
228.225726
 20
68.494190
 30
0.0
 11
233.268583
 21
68.494190
 31
0.0
  0
LINE
  5
17f
100
AcDbEntity
  8
Calque_1
 62
1
100
AcDbLine
 10
233.268583
 20
68.494190
 30
0.0
 11
233.268583
 21
71.494190
 31
0.0
  0
LINE
  5
180
100
AcDbEntity
  8
Calque_1
 62
1
100
AcDbLine
 10
233.268583
 20
71.494190
 30
0.0
 11
238.511440
 21
71.494190
 31
0.0
  0
LINE
  5
181
100
AcDbEntity
  8
Calque_1
 62
1
100
AcDbLine
 10
238.511440
 20
71.494190
 30
0.0
 11
238.511440
 21
68.494190
 31
0.0
  0
LINE
  5
182
100
AcDbEntity
  8
Calque_1
 62
1
100
AcDbLine
 10
238.511440
 20
68.494190
 30
0.0
 11
243.554297
 21
68.494190
 31
0.0
  0
LINE
  5
183
100
AcDbEntity
  8
Calque_1
 62
1
100
AcDbLine
 10
243.554297
 20
68.494190
 30
0.0
 11
243.554297
 21
71.494190
 31
0.0
  0
LINE
  5
184
100
AcDbEntity
  8
Calque_1
 62
1
100
AcDbLine
 10
243.554297
 20
71.494190
 30
0.0
 11
248.797154
 21
71.494190
 31
0.0
  0
LINE
  5
185
100
AcDbEntity
  8
Calque_1
 62
1
100
AcDbLine
 10
248.797154
 20
71.494190
 30
0.0
 11
248.797154
 21
68.494190
 31
0.0
  0
LINE
  5
186
100
AcDbEntity
  8
Calque_1
 62
1
100
AcDbLine
 10
248.797154
 20
68.494190
 30
0.0
 11
253.840011
 21
68.494190
 31
0.0
  0
LINE
  5
187
100
AcDbEntity
  8
Calque_1
 62
1
100
AcDbLine
 10
253.840011
 20
68.494190
 30
0.0
 11
253.840011
 21
71.494190
 31
0.0
  0
LINE
  5
188
100
AcDbEntity
  8
Calque_1
 62
1
100
AcDbLine
 10
253.840011
 20
71.494190
 30
0.0
 11
259.082869
 21
71.494190
 31
0.0
  0
LINE
  5
189
100
AcDbEntity
  8
Calque_1
 62
1
100
AcDbLine
 10
259.082869
 20
71.494190
 30
0.0
 11
259.082869
 21
68.494190
 31
0.0
  0
LINE
  5
18a
100
AcDbEntity
  8
Calque_1
 62
1
100
AcDbLine
 10
259.082869
 20
68.494190
 30
0.0
 11
264.125726
 21
68.494190
 31
0.0
  0
LINE
  5
18b
100
AcDbEntity
  8
Calque_1
 62
1
100
AcDbLine
 10
264.125726
 20
68.494190
 30
0.0
 11
264.125726
 21
71.494190
 31
0.0
  0
LINE
  5
18c
100
AcDbEntity
  8
Calque_1
 62
1
100
AcDbLine
 10
264.125726
 20
71.494190
 30
0.0
 11
269.368583
 21
71.494190
 31
0.0
  0
LINE
  5
18d
100
AcDbEntity
  8
Calque_1
 62
1
100
AcDbLine
 10
269.368583
 20
71.494190
 30
0.0
 11
269.368583
 21
68.494190
 31
0.0
  0
LINE
  5
18e
100
AcDbEntity
  8
Calque_1
 62
1
100
AcDbLine
 10
269.368583
 20
68.494190
 30
0.0
 11
274.411440
 21
68.494190
 31
0.0
  0
LINE
  5
18f
100
AcDbEntity
  8
Calque_1
 62
1
100
AcDbLine
 10
274.411440
 20
68.494190
 30
0.0
 11
274.411440
 21
71.494190
 31
0.0
  0
LINE
  5
190
100
AcDbEntity
  8
Calque_1
 62
1
100
AcDbLine
 10
274.411440
 20
71.494190
 30
0.0
 11
279.654297
 21
71.494190
 31
0.0
  0
LINE
  5
191
100
AcDbEntity
  8
Calque_1
 62
1
100
AcDbLine
 10
279.654297
 20
71.494190
 30
0.0
 11
279.654297
 21
68.494190
 31
0.0
  0
LINE
  5
192
100
AcDbEntity
  8
Calque_1
 62
1
100
AcDbLine
 10
279.654297
 20
68.494190
 30
0.0
 11
284.697154
 21
68.494190
 31
0.0
  0
LINE
  5
193
100
AcDbEntity
  8
Calque_1
 62
1
100
AcDbLine
 10
284.697154
 20
68.494190
 30
0.0
 11
284.697154
 21
71.494190
 31
0.0
  0
LINE
  5
194
100
AcDbEntity
  8
Calque_1
 62
1
100
AcDbLine
 10
284.697154
 20
71.494190
 30
0.0
 11
289.940011
 21
71.494190
 31
0.0
  0
LINE
  5
195
100
AcDbEntity
  8
Calque_1
 62
1
100
AcDbLine
 10
289.940011
 20
71.494190
 30
0.0
 11
289.940011
 21
68.494190
 31
0.0
  0
LINE
  5
196
100
AcDbEntity
  8
Calque_1
 62
1
100
AcDbLine
 10
289.940011
 20
68.494190
 30
0.0
 11
294.982869
 21
68.494190
 31
0.0
  0
LINE
  5
197
100
AcDbEntity
  8
Calque_1
 62
1
100
AcDbLine
 10
294.982869
 20
68.494190
 30
0.0
 11
294.982869
 21
71.494190
 31
0.0
  0
LINE
  5
198
100
AcDbEntity
  8
Calque_1
 62
1
100
AcDbLine
 10
294.982869
 20
71.494190
 30
0.0
 11
300.225726
 21
71.494190
 31
0.0
  0
LINE
  5
199
100
AcDbEntity
  8
Calque_1
 62
1
100
AcDbLine
 10
300.225726
 20
71.494190
 30
0.0
 11
300.225726
 21
68.494190
 31
0.0
  0
LINE
  5
19a
100
AcDbEntity
  8
Calque_1
 62
1
100
AcDbLine
 10
300.225726
 20
68.494190
 30
0.0
 11
305.268580
 21
68.494190
 31
0.0
  0
LINE
  5
19b
100
AcDbEntity
  8
Calque_1
 62
1
100
AcDbLine
 10
305.268580
 20
68.494190
 30
0.0
 11
305.268580
 21
71.494190
 31
0.0
  0
LINE
  5
19c
100
AcDbEntity
  8
Calque_1
 62
1
100
AcDbLine
 10
305.268580
 20
71.494190
 30
0.0
 11
310.461440
 21
71.494190
 31
0.0
  0
LINE
  5
19d
100
AcDbEntity
  8
Calque_1
 62
1
100
AcDbLine
 10
310.461440
 20
71.494190
 30
0.0
 11
310.461440
 21
65.729904
 31
0.0
  0
LINE
  5
19e
100
AcDbEntity
  8
Calque_1
 62
1
100
AcDbLine
 10
310.461440
 20
65.729904
 30
0.0
 11
307.461440
 21
65.729904
 31
0.0
  0
LINE
  5
19f
100
AcDbEntity
  8
Calque_1
 62
1
100
AcDbLine
 10
307.461440
 20
65.729904
 30
0.0
 11
307.461440
 21
60.115619
 31
0.0
  0
LINE
  5
1a0
100
AcDbEntity
  8
Calque_1
 62
1
100
AcDbLine
 10
307.461440
 20
60.115619
 30
0.0
 11
310.461440
 21
60.115619
 31
0.0
  0
LINE
  5
1a1
100
AcDbEntity
  8
Calque_1
 62
1
100
AcDbLine
 10
310.461440
 20
60.115619
 30
0.0
 11
310.461440
 21
54.301333
 31
0.0
  0
LINE
  5
1a2
100
AcDbEntity
  8
Calque_1
 62
1
100
AcDbLine
 10
310.461440
 20
54.301333
 30
0.0
 11
307.461440
 21
54.301333
 31
0.0
  0
LINE
  5
1a3
100
AcDbEntity
  8
Calque_1
 62
1
100
AcDbLine
 10
307.461440
 20
54.301333
 30
0.0
 11
307.461440
 21
48.687047
 31
0.0
  0
LINE
  5
1a4
100
AcDbEntity
  8
Calque_1
 62
1
100
AcDbLine
 10
307.461440
 20
48.687047
 30
0.0
 11
310.461440
 21
48.687047
 31
0.0
  0
LINE
  5
1a5
100
AcDbEntity
  8
Calque_1
 62
1
100
AcDbLine
 10
310.461440
 20
48.687047
 30
0.0
 11
310.461440
 21
42.872761
 31
0.0
  0
LINE
  5
1a6
100
AcDbEntity
  8
Calque_1
 62
1
100
AcDbLine
 10
310.461440
 20
42.872761
 30
0.0
 11
307.461440
 21
42.872761
 31
0.0
  0
LINE
  5
1a7
100
AcDbEntity
  8
Calque_1
 62
1
100
AcDbLine
 10
307.461440
 20
42.872761
 30
0.0
 11
307.461440
 21
37.258476
 31
0.0
  0
LINE
  5
1a8
100
AcDbEntity
  8
Calque_1
 62
1
100
AcDbLine
 10
307.461440
 20
37.258476
 30
0.0
 11
310.461440
 21
37.258476
 31
0.0
  0
LINE
  5
1a9
100
AcDbEntity
  8
Calque_1
 62
1
100
AcDbLine
 10
310.461440
 20
37.258476
 30
0.0
 11
310.461440
 21
31.494190
 31
0.0
  0
LINE
  5
1aa
100
AcDbEntity
  8
Calque_1
 62
1
100
AcDbLine
 10
310.461440
 20
31.494190
 30
0.0
 11
305.268580
 21
31.494190
 31
0.0
  0
LINE
  5
1ab
100
AcDbEntity
  8
Calque_1
 62
1
100
AcDbLine
 10
305.268580
 20
31.494190
 30
0.0
 11
305.268580
 21
34.494190
 31
0.0
  0
LINE
  5
1ac
100
AcDbEntity
  8
Calque_1
 62
1
100
AcDbLine
 10
305.268580
 20
34.494190
 30
0.0
 11
300.225726
 21
34.494190
 31
0.0
  0
LINE
  5
1ad
100
AcDbEntity
  8
Calque_1
 62
1
100
AcDbLine
 10
300.225726
 20
34.494190
 30
0.0
 11
300.225726
 21
31.494190
 31
0.0
  0
LINE
  5
1ae
100
AcDbEntity
  8
Calque_1
 62
1
100
AcDbLine
 10
300.225726
 20
31.494190
 30
0.0
 11
294.982869
 21
31.494190
 31
0.0
  0
LINE
  5
1af
100
AcDbEntity
  8
Calque_1
 62
1
100
AcDbLine
 10
294.982869
 20
31.494190
 30
0.0
 11
294.982869
 21
34.494190
 31
0.0
  0
LINE
  5
1b0
100
AcDbEntity
  8
Calque_1
 62
1
100
AcDbLine
 10
294.982869
 20
34.494190
 30
0.0
 11
289.940011
 21
34.494190
 31
0.0
  0
LINE
  5
1b1
100
AcDbEntity
  8
Calque_1
 62
1
100
AcDbLine
 10
289.940011
 20
34.494190
 30
0.0
 11
289.940011
 21
31.494190
 31
0.0
  0
LINE
  5
1b2
100
AcDbEntity
  8
Calque_1
 62
1
100
AcDbLine
 10
289.940011
 20
31.494190
 30
0.0
 11
284.697154
 21
31.494190
 31
0.0
  0
LINE
  5
1b3
100
AcDbEntity
  8
Calque_1
 62
1
100
AcDbLine
 10
284.697154
 20
31.494190
 30
0.0
 11
284.697154
 21
34.494190
 31
0.0
  0
LINE
  5
1b4
100
AcDbEntity
  8
Calque_1
 62
1
100
AcDbLine
 10
284.697154
 20
34.494190
 30
0.0
 11
279.654297
 21
34.494190
 31
0.0
  0
LINE
  5
1b5
100
AcDbEntity
  8
Calque_1
 62
1
100
AcDbLine
 10
279.654297
 20
34.494190
 30
0.0
 11
279.654297
 21
31.494190
 31
0.0
  0
LINE
  5
1b6
100
AcDbEntity
  8
Calque_1
 62
1
100
AcDbLine
 10
279.654297
 20
31.494190
 30
0.0
 11
274.411440
 21
31.494190
 31
0.0
  0
LINE
  5
1b7
100
AcDbEntity
  8
Calque_1
 62
1
100
AcDbLine
 10
274.411440
 20
31.494190
 30
0.0
 11
274.411440
 21
34.494190
 31
0.0
  0
LINE
  5
1b8
100
AcDbEntity
  8
Calque_1
 62
1
100
AcDbLine
 10
274.411440
 20
34.494190
 30
0.0
 11
269.368583
 21
34.494190
 31
0.0
  0
LINE
  5
1b9
100
AcDbEntity
  8
Calque_1
 62
1
100
AcDbLine
 10
269.368583
 20
34.494190
 30
0.0
 11
269.368583
 21
31.494190
 31
0.0
  0
LINE
  5
1ba
100
AcDbEntity
  8
Calque_1
 62
1
100
AcDbLine
 10
269.368583
 20
31.494190
 30
0.0
 11
264.125726
 21
31.494190
 31
0.0
  0
LINE
  5
1bb
100
AcDbEntity
  8
Calque_1
 62
1
100
AcDbLine
 10
264.125726
 20
31.494190
 30
0.0
 11
264.125726
 21
34.494190
 31
0.0
  0
LINE
  5
1bc
100
AcDbEntity
  8
Calque_1
 62
1
100
AcDbLine
 10
264.125726
 20
34.494190
 30
0.0
 11
259.082869
 21
34.494190
 31
0.0
  0
LINE
  5
1bd
100
AcDbEntity
  8
Calque_1
 62
1
100
AcDbLine
 10
259.082869
 20
34.494190
 30
0.0
 11
259.082869
 21
31.494190
 31
0.0
  0
LINE
  5
1be
100
AcDbEntity
  8
Calque_1
 62
1
100
AcDbLine
 10
259.082869
 20
31.494190
 30
0.0
 11
253.840011
 21
31.494190
 31
0.0
  0
LINE
  5
1bf
100
AcDbEntity
  8
Calque_1
 62
1
100
AcDbLine
 10
253.840011
 20
31.494190
 30
0.0
 11
253.840011
 21
34.494190
 31
0.0
  0
LINE
  5
1c0
100
AcDbEntity
  8
Calque_1
 62
1
100
AcDbLine
 10
253.840011
 20
34.494190
 30
0.0
 11
248.797154
 21
34.494190
 31
0.0
  0
LINE
  5
1c1
100
AcDbEntity
  8
Calque_1
 62
1
100
AcDbLine
 10
248.797154
 20
34.494190
 30
0.0
 11
248.797154
 21
31.494190
 31
0.0
  0
LINE
  5
1c2
100
AcDbEntity
  8
Calque_1
 62
1
100
AcDbLine
 10
248.797154
 20
31.494190
 30
0.0
 11
243.554297
 21
31.494190
 31
0.0
  0
LINE
  5
1c3
100
AcDbEntity
  8
Calque_1
 62
1
100
AcDbLine
 10
243.554297
 20
31.494190
 30
0.0
 11
243.554297
 21
34.494190
 31
0.0
  0
LINE
  5
1c4
100
AcDbEntity
  8
Calque_1
 62
1
100
AcDbLine
 10
243.554297
 20
34.494190
 30
0.0
 11
238.511440
 21
34.494190
 31
0.0
  0
LINE
  5
1c5
100
AcDbEntity
  8
Calque_1
 62
1
100
AcDbLine
 10
238.511440
 20
34.494190
 30
0.0
 11
238.511440
 21
31.494190
 31
0.0
  0
LINE
  5
1c6
100
AcDbEntity
  8
Calque_1
 62
1
100
AcDbLine
 10
238.511440
 20
31.494190
 30
0.0
 11
233.268583
 21
31.494190
 31
0.0
  0
LINE
  5
1c7
100
AcDbEntity
  8
Calque_1
 62
1
100
AcDbLine
 10
233.268583
 20
31.494190
 30
0.0
 11
233.268583
 21
34.494190
 31
0.0
  0
LINE
  5
1c8
100
AcDbEntity
  8
Calque_1
 62
1
100
AcDbLine
 10
233.268583
 20
34.494190
 30
0.0
 11
228.225726
 21
34.494190
 31
0.0
  0
LINE
  5
1c9
100
AcDbEntity
  8
Calque_1
 62
1
100
AcDbLine
 10
228.225726
 20
34.494190
 30
0.0
 11
228.225726
 21
31.494190
 31
0.0
  0
LINE
  5
1ca
100
AcDbEntity
  8
Calque_1
 62
1
100
AcDbLine
 10
228.225726
 20
31.494190
 30
0.0
 11
222.982869
 21
31.494190
 31
0.0
  0
LINE
  5
1cb
100
AcDbEntity
  8
Calque_1
 62
1
100
AcDbLine
 10
222.982869
 20
31.494190
 30
0.0
 11
222.982869
 21
34.494190
 31
0.0
  0
LINE
  5
1cc
100
AcDbEntity
  8
Calque_1
 62
1
100
AcDbLine
 10
222.982869
 20
34.494190
 30
0.0
 11
217.940011
 21
34.494190
 31
0.0
  0
LINE
  5
1cd
100
AcDbEntity
  8
Calque_1
 62
1
100
AcDbLine
 10
217.940011
 20
34.494190
 30
0.0
 11
217.940011
 21
31.494190
 31
0.0
  0
LINE
  5
1ce
100
AcDbEntity
  8
Calque_1
 62
1
100
AcDbLine
 10
217.940011
 20
31.494190
 30
0.0
 11
212.697154
 21
31.494190
 31
0.0
  0
LINE
  5
1cf
100
AcDbEntity
  8
Calque_1
 62
1
100
AcDbLine
 10
212.697154
 20
31.494190
 30
0.0
 11
212.697154
 21
34.494190
 31
0.0
  0
LINE
  5
1d0
100
AcDbEntity
  8
Calque_1
 62
1
100
AcDbLine
 10
212.697154
 20
34.494190
 30
0.0
 11
207.654297
 21
34.494190
 31
0.0
  0
LINE
  5
1d1
100
AcDbEntity
  8
Calque_1
 62
1
100
AcDbLine
 10
207.654297
 20
34.494190
 30
0.0
 11
207.654297
 21
31.494190
 31
0.0
  0
LINE
  5
1d2
100
AcDbEntity
  8
Calque_1
 62
1
100
AcDbLine
 10
207.654297
 20
31.494190
 30
0.0
 11
202.461440
 21
31.494190
 31
0.0
  0
LINE
  5
1d3
100
AcDbEntity
  8
Calque_1
 62
1
100
AcDbLine
 10
202.461440
 20
31.494190
 30
0.0
 11
202.461440
 21
37.258476
 31
0.0
  0
LINE
  5
1d4
100
AcDbEntity
  8
Calque_1
 62
1
100
AcDbLine
 10
202.461440
 20
37.258476
 30
0.0
 11
205.461440
 21
37.258476
 31
0.0
  0
LINE
  5
1d5
100
AcDbEntity
  8
Calque_1
 62
1
100
AcDbLine
 10
205.461440
 20
37.258476
 30
0.0
 11
205.461440
 21
42.872761
 31
0.0
  0
LINE
  5
1d6
100
AcDbEntity
  8
Calque_1
 62
1
100
AcDbLine
 10
205.461440
 20
42.872761
 30
0.0
 11
202.461440
 21
42.872761
 31
0.0
  0
LINE
  5
1d7
100
AcDbEntity
  8
Calque_1
 62
1
100
AcDbLine
 10
202.461440
 20
42.872761
 30
0.0
 11
202.461440
 21
48.687047
 31
0.0
  0
LINE
  5
1d8
100
AcDbEntity
  8
Calque_1
 62
1
100
AcDbLine
 10
202.461440
 20
48.687047
 30
0.0
 11
205.461440
 21
48.687047
 31
0.0
  0
LINE
  5
1d9
100
AcDbEntity
  8
Calque_1
 62
1
100
AcDbLine
 10
205.461440
 20
48.687047
 30
0.0
 11
205.461440
 21
54.301333
 31
0.0
  0
LINE
  5
1da
100
AcDbEntity
  8
Calque_1
 62
1
100
AcDbLine
 10
205.461440
 20
54.301333
 30
0.0
 11
202.461440
 21
54.301333
 31
0.0
  0
LINE
  5
1db
100
AcDbEntity
  8
Calque_1
 62
1
100
AcDbLine
 10
202.461440
 20
54.301333
 30
0.0
 11
202.461440
 21
60.115619
 31
0.0
  0
LINE
  5
1dc
100
AcDbEntity
  8
Calque_1
 62
1
100
AcDbLine
 10
202.461440
 20
60.115619
 30
0.0
 11
205.461440
 21
60.115619
 31
0.0
  0
LINE
  5
1dd
100
AcDbEntity
  8
Calque_1
 62
1
100
AcDbLine
 10
205.461440
 20
60.115619
 30
0.0
 11
205.461440
 21
65.729904
 31
0.0
  0
LINE
  5
1de
100
AcDbEntity
  8
Calque_1
 62
1
100
AcDbLine
 10
205.461440
 20
65.729904
 30
0.0
 11
202.461440
 21
65.729904
 31
0.0
  0
LINE
  5
1df
100
AcDbEntity
  8
Calque_1
 62
1
100
AcDbLine
 10
202.461440
 20
65.729904
 30
0.0
 11
202.461440
 21
71.494190
 31
0.0
  0
LINE
  5
1e0
100
AcDbEntity
  8
Calque_1
 62
1
100
AcDbLine
 10
313.461440
 20
71.494190
 30
0.0
 11
318.654297
 21
71.494190
 31
0.0
  0
LINE
  5
1e1
100
AcDbEntity
  8
Calque_1
 62
1
100
AcDbLine
 10
318.654297
 20
71.494190
 30
0.0
 11
318.654297
 21
68.494190
 31
0.0
  0
LINE
  5
1e2
100
AcDbEntity
  8
Calque_1
 62
1
100
AcDbLine
 10
318.654297
 20
68.494190
 30
0.0
 11
323.697154
 21
68.494190
 31
0.0
  0
LINE
  5
1e3
100
AcDbEntity
  8
Calque_1
 62
1
100
AcDbLine
 10
323.697154
 20
68.494190
 30
0.0
 11
323.697154
 21
71.494190
 31
0.0
  0
LINE
  5
1e4
100
AcDbEntity
  8
Calque_1
 62
1
100
AcDbLine
 10
323.697154
 20
71.494190
 30
0.0
 11
328.940011
 21
71.494190
 31
0.0
  0
LINE
  5
1e5
100
AcDbEntity
  8
Calque_1
 62
1
100
AcDbLine
 10
328.940011
 20
71.494190
 30
0.0
 11
328.940011
 21
68.494190
 31
0.0
  0
LINE
  5
1e6
100
AcDbEntity
  8
Calque_1
 62
1
100
AcDbLine
 10
328.940011
 20
68.494190
 30
0.0
 11
333.982869
 21
68.494190
 31
0.0
  0
LINE
  5
1e7
100
AcDbEntity
  8
Calque_1
 62
1
100
AcDbLine
 10
333.982869
 20
68.494190
 30
0.0
 11
333.982869
 21
71.494190
 31
0.0
  0
LINE
  5
1e8
100
AcDbEntity
  8
Calque_1
 62
1
100
AcDbLine
 10
333.982869
 20
71.494190
 30
0.0
 11
339.225726
 21
71.494190
 31
0.0
  0
LINE
  5
1e9
100
AcDbEntity
  8
Calque_1
 62
1
100
AcDbLine
 10
339.225726
 20
71.494190
 30
0.0
 11
339.225726
 21
68.494190
 31
0.0
  0
LINE
  5
1ea
100
AcDbEntity
  8
Calque_1
 62
1
100
AcDbLine
 10
339.225726
 20
68.494190
 30
0.0
 11
344.268583
 21
68.494190
 31
0.0
  0
LINE
  5
1eb
100
AcDbEntity
  8
Calque_1
 62
1
100
AcDbLine
 10
344.268583
 20
68.494190
 30
0.0
 11
344.268583
 21
71.494190
 31
0.0
  0
LINE
  5
1ec
100
AcDbEntity
  8
Calque_1
 62
1
100
AcDbLine
 10
344.268583
 20
71.494190
 30
0.0
 11
349.511440
 21
71.494190
 31
0.0
  0
LINE
  5
1ed
100
AcDbEntity
  8
Calque_1
 62
1
100
AcDbLine
 10
349.511440
 20
71.494190
 30
0.0
 11
349.511440
 21
68.494190
 31
0.0
  0
LINE
  5
1ee
100
AcDbEntity
  8
Calque_1
 62
1
100
AcDbLine
 10
349.511440
 20
68.494190
 30
0.0
 11
354.554297
 21
68.494190
 31
0.0
  0
LINE
  5
1ef
100
AcDbEntity
  8
Calque_1
 62
1
100
AcDbLine
 10
354.554297
 20
68.494190
 30
0.0
 11
354.554297
 21
71.494190
 31
0.0
  0
LINE
  5
1f0
100
AcDbEntity
  8
Calque_1
 62
1
100
AcDbLine
 10
354.554297
 20
71.494190
 30
0.0
 11
359.797154
 21
71.494190
 31
0.0
  0
LINE
  5
1f1
100
AcDbEntity
  8
Calque_1
 62
1
100
AcDbLine
 10
359.797154
 20
71.494190
 30
0.0
 11
359.797154
 21
68.494190
 31
0.0
  0
LINE
  5
1f2
100
AcDbEntity
  8
Calque_1
 62
1
100
AcDbLine
 10
359.797154
 20
68.494190
 30
0.0
 11
364.840011
 21
68.494190
 31
0.0
  0
LINE
  5
1f3
100
AcDbEntity
  8
Calque_1
 62
1
100
AcDbLine
 10
364.840011
 20
68.494190
 30
0.0
 11
364.840011
 21
71.494190
 31
0.0
  0
LINE
  5
1f4
100
AcDbEntity
  8
Calque_1
 62
1
100
AcDbLine
 10
364.840011
 20
71.494190
 30
0.0
 11
370.082869
 21
71.494190
 31
0.0
  0
LINE
  5
1f5
100
AcDbEntity
  8
Calque_1
 62
1
100
AcDbLine
 10
370.082869
 20
71.494190
 30
0.0
 11
370.082869
 21
68.494190
 31
0.0
  0
LINE
  5
1f6
100
AcDbEntity
  8
Calque_1
 62
1
100
AcDbLine
 10
370.082869
 20
68.494190
 30
0.0
 11
375.125726
 21
68.494190
 31
0.0
  0
LINE
  5
1f7
100
AcDbEntity
  8
Calque_1
 62
1
100
AcDbLine
 10
375.125726
 20
68.494190
 30
0.0
 11
375.125726
 21
71.494190
 31
0.0
  0
LINE
  5
1f8
100
AcDbEntity
  8
Calque_1
 62
1
100
AcDbLine
 10
375.125726
 20
71.494190
 30
0.0
 11
380.368583
 21
71.494190
 31
0.0
  0
LINE
  5
1f9
100
AcDbEntity
  8
Calque_1
 62
1
100
AcDbLine
 10
380.368583
 20
71.494190
 30
0.0
 11
380.368583
 21
68.494190
 31
0.0
  0
LINE
  5
1fa
100
AcDbEntity
  8
Calque_1
 62
1
100
AcDbLine
 10
380.368583
 20
68.494190
 30
0.0
 11
385.411440
 21
68.494190
 31
0.0
  0
LINE
  5
1fb
100
AcDbEntity
  8
Calque_1
 62
1
100
AcDbLine
 10
385.411440
 20
68.494190
 30
0.0
 11
385.411440
 21
71.494190
 31
0.0
  0
LINE
  5
1fc
100
AcDbEntity
  8
Calque_1
 62
1
100
AcDbLine
 10
385.411440
 20
71.494190
 30
0.0
 11
390.654297
 21
71.494190
 31
0.0
  0
LINE
  5
1fd
100
AcDbEntity
  8
Calque_1
 62
1
100
AcDbLine
 10
390.654297
 20
71.494190
 30
0.0
 11
390.654297
 21
68.494190
 31
0.0
  0
LINE
  5
1fe
100
AcDbEntity
  8
Calque_1
 62
1
100
AcDbLine
 10
390.654297
 20
68.494190
 30
0.0
 11
395.697154
 21
68.494190
 31
0.0
  0
LINE
  5
1ff
100
AcDbEntity
  8
Calque_1
 62
1
100
AcDbLine
 10
395.697154
 20
68.494190
 30
0.0
 11
395.697154
 21
71.494190
 31
0.0
  0
LINE
  5
200
100
AcDbEntity
  8
Calque_1
 62
1
100
AcDbLine
 10
395.697154
 20
71.494190
 30
0.0
 11
400.940011
 21
71.494190
 31
0.0
  0
LINE
  5
201
100
AcDbEntity
  8
Calque_1
 62
1
100
AcDbLine
 10
400.940011
 20
71.494190
 30
0.0
 11
400.940011
 21
68.494190
 31
0.0
  0
LINE
  5
202
100
AcDbEntity
  8
Calque_1
 62
1
100
AcDbLine
 10
400.940011
 20
68.494190
 30
0.0
 11
405.982869
 21
68.494190
 31
0.0
  0
LINE
  5
203
100
AcDbEntity
  8
Calque_1
 62
1
100
AcDbLine
 10
405.982869
 20
68.494190
 30
0.0
 11
405.982869
 21
71.494190
 31
0.0
  0
LINE
  5
204
100
AcDbEntity
  8
Calque_1
 62
1
100
AcDbLine
 10
405.982869
 20
71.494190
 30
0.0
 11
411.225726
 21
71.494190
 31
0.0
  0
LINE
  5
205
100
AcDbEntity
  8
Calque_1
 62
1
100
AcDbLine
 10
411.225726
 20
71.494190
 30
0.0
 11
411.225726
 21
68.494190
 31
0.0
  0
LINE
  5
206
100
AcDbEntity
  8
Calque_1
 62
1
100
AcDbLine
 10
411.225726
 20
68.494190
 30
0.0
 11
416.268580
 21
68.494190
 31
0.0
  0
LINE
  5
207
100
AcDbEntity
  8
Calque_1
 62
1
100
AcDbLine
 10
416.268580
 20
68.494190
 30
0.0
 11
416.268580
 21
71.494190
 31
0.0
  0
LINE
  5
208
100
AcDbEntity
  8
Calque_1
 62
1
100
AcDbLine
 10
416.268580
 20
71.494190
 30
0.0
 11
421.461440
 21
71.494190
 31
0.0
  0
LINE
  5
209
100
AcDbEntity
  8
Calque_1
 62
1
100
AcDbLine
 10
421.461440
 20
71.494190
 30
0.0
 11
421.461440
 21
65.729904
 31
0.0
  0
LINE
  5
20a
100
AcDbEntity
  8
Calque_1
 62
1
100
AcDbLine
 10
421.461440
 20
65.729904
 30
0.0
 11
418.461440
 21
65.729904
 31
0.0
  0
LINE
  5
20b
100
AcDbEntity
  8
Calque_1
 62
1
100
AcDbLine
 10
418.461440
 20
65.729904
 30
0.0
 11
418.461440
 21
60.115619
 31
0.0
  0
LINE
  5
20c
100
AcDbEntity
  8
Calque_1
 62
1
100
AcDbLine
 10
418.461440
 20
60.115619
 30
0.0
 11
421.461440
 21
60.115619
 31
0.0
  0
LINE
  5
20d
100
AcDbEntity
  8
Calque_1
 62
1
100
AcDbLine
 10
421.461440
 20
60.115619
 30
0.0
 11
421.461440
 21
54.301333
 31
0.0
  0
LINE
  5
20e
100
AcDbEntity
  8
Calque_1
 62
1
100
AcDbLine
 10
421.461440
 20
54.301333
 30
0.0
 11
418.461440
 21
54.301333
 31
0.0
  0
LINE
  5
20f
100
AcDbEntity
  8
Calque_1
 62
1
100
AcDbLine
 10
418.461440
 20
54.301333
 30
0.0
 11
418.461440
 21
48.687047
 31
0.0
  0
LINE
  5
210
100
AcDbEntity
  8
Calque_1
 62
1
100
AcDbLine
 10
418.461440
 20
48.687047
 30
0.0
 11
421.461440
 21
48.687047
 31
0.0
  0
LINE
  5
211
100
AcDbEntity
  8
Calque_1
 62
1
100
AcDbLine
 10
421.461440
 20
48.687047
 30
0.0
 11
421.461440
 21
42.872761
 31
0.0
  0
LINE
  5
212
100
AcDbEntity
  8
Calque_1
 62
1
100
AcDbLine
 10
421.461440
 20
42.872761
 30
0.0
 11
418.461440
 21
42.872761
 31
0.0
  0
LINE
  5
213
100
AcDbEntity
  8
Calque_1
 62
1
100
AcDbLine
 10
418.461440
 20
42.872761
 30
0.0
 11
418.461440
 21
37.258476
 31
0.0
  0
LINE
  5
214
100
AcDbEntity
  8
Calque_1
 62
1
100
AcDbLine
 10
418.461440
 20
37.258476
 30
0.0
 11
421.461440
 21
37.258476
 31
0.0
  0
LINE
  5
215
100
AcDbEntity
  8
Calque_1
 62
1
100
AcDbLine
 10
421.461440
 20
37.258476
 30
0.0
 11
421.461440
 21
31.494190
 31
0.0
  0
LINE
  5
216
100
AcDbEntity
  8
Calque_1
 62
1
100
AcDbLine
 10
421.461440
 20
31.494190
 30
0.0
 11
416.268580
 21
31.494190
 31
0.0
  0
LINE
  5
217
100
AcDbEntity
  8
Calque_1
 62
1
100
AcDbLine
 10
416.268580
 20
31.494190
 30
0.0
 11
416.268580
 21
34.494190
 31
0.0
  0
LINE
  5
218
100
AcDbEntity
  8
Calque_1
 62
1
100
AcDbLine
 10
416.268580
 20
34.494190
 30
0.0
 11
411.225726
 21
34.494190
 31
0.0
  0
LINE
  5
219
100
AcDbEntity
  8
Calque_1
 62
1
100
AcDbLine
 10
411.225726
 20
34.494190
 30
0.0
 11
411.225726
 21
31.494190
 31
0.0
  0
LINE
  5
21a
100
AcDbEntity
  8
Calque_1
 62
1
100
AcDbLine
 10
411.225726
 20
31.494190
 30
0.0
 11
405.982869
 21
31.494190
 31
0.0
  0
LINE
  5
21b
100
AcDbEntity
  8
Calque_1
 62
1
100
AcDbLine
 10
405.982869
 20
31.494190
 30
0.0
 11
405.982869
 21
34.494190
 31
0.0
  0
LINE
  5
21c
100
AcDbEntity
  8
Calque_1
 62
1
100
AcDbLine
 10
405.982869
 20
34.494190
 30
0.0
 11
400.940011
 21
34.494190
 31
0.0
  0
LINE
  5
21d
100
AcDbEntity
  8
Calque_1
 62
1
100
AcDbLine
 10
400.940011
 20
34.494190
 30
0.0
 11
400.940011
 21
31.494190
 31
0.0
  0
LINE
  5
21e
100
AcDbEntity
  8
Calque_1
 62
1
100
AcDbLine
 10
400.940011
 20
31.494190
 30
0.0
 11
395.697154
 21
31.494190
 31
0.0
  0
LINE
  5
21f
100
AcDbEntity
  8
Calque_1
 62
1
100
AcDbLine
 10
395.697154
 20
31.494190
 30
0.0
 11
395.697154
 21
34.494190
 31
0.0
  0
LINE
  5
220
100
AcDbEntity
  8
Calque_1
 62
1
100
AcDbLine
 10
395.697154
 20
34.494190
 30
0.0
 11
390.654297
 21
34.494190
 31
0.0
  0
LINE
  5
221
100
AcDbEntity
  8
Calque_1
 62
1
100
AcDbLine
 10
390.654297
 20
34.494190
 30
0.0
 11
390.654297
 21
31.494190
 31
0.0
  0
LINE
  5
222
100
AcDbEntity
  8
Calque_1
 62
1
100
AcDbLine
 10
390.654297
 20
31.494190
 30
0.0
 11
385.411440
 21
31.494190
 31
0.0
  0
LINE
  5
223
100
AcDbEntity
  8
Calque_1
 62
1
100
AcDbLine
 10
385.411440
 20
31.494190
 30
0.0
 11
385.411440
 21
34.494190
 31
0.0
  0
LINE
  5
224
100
AcDbEntity
  8
Calque_1
 62
1
100
AcDbLine
 10
385.411440
 20
34.494190
 30
0.0
 11
380.368583
 21
34.494190
 31
0.0
  0
LINE
  5
225
100
AcDbEntity
  8
Calque_1
 62
1
100
AcDbLine
 10
380.368583
 20
34.494190
 30
0.0
 11
380.368583
 21
31.494190
 31
0.0
  0
LINE
  5
226
100
AcDbEntity
  8
Calque_1
 62
1
100
AcDbLine
 10
380.368583
 20
31.494190
 30
0.0
 11
375.125726
 21
31.494190
 31
0.0
  0
LINE
  5
227
100
AcDbEntity
  8
Calque_1
 62
1
100
AcDbLine
 10
375.125726
 20
31.494190
 30
0.0
 11
375.125726
 21
34.494190
 31
0.0
  0
LINE
  5
228
100
AcDbEntity
  8
Calque_1
 62
1
100
AcDbLine
 10
375.125726
 20
34.494190
 30
0.0
 11
370.082869
 21
34.494190
 31
0.0
  0
LINE
  5
229
100
AcDbEntity
  8
Calque_1
 62
1
100
AcDbLine
 10
370.082869
 20
34.494190
 30
0.0
 11
370.082869
 21
31.494190
 31
0.0
  0
LINE
  5
22a
100
AcDbEntity
  8
Calque_1
 62
1
100
AcDbLine
 10
370.082869
 20
31.494190
 30
0.0
 11
364.840011
 21
31.494190
 31
0.0
  0
LINE
  5
22b
100
AcDbEntity
  8
Calque_1
 62
1
100
AcDbLine
 10
364.840011
 20
31.494190
 30
0.0
 11
364.840011
 21
34.494190
 31
0.0
  0
LINE
  5
22c
100
AcDbEntity
  8
Calque_1
 62
1
100
AcDbLine
 10
364.840011
 20
34.494190
 30
0.0
 11
359.797154
 21
34.494190
 31
0.0
  0
LINE
  5
22d
100
AcDbEntity
  8
Calque_1
 62
1
100
AcDbLine
 10
359.797154
 20
34.494190
 30
0.0
 11
359.797154
 21
31.494190
 31
0.0
  0
LINE
  5
22e
100
AcDbEntity
  8
Calque_1
 62
1
100
AcDbLine
 10
359.797154
 20
31.494190
 30
0.0
 11
354.554297
 21
31.494190
 31
0.0
  0
LINE
  5
22f
100
AcDbEntity
  8
Calque_1
 62
1
100
AcDbLine
 10
354.554297
 20
31.494190
 30
0.0
 11
354.554297
 21
34.494190
 31
0.0
  0
LINE
  5
230
100
AcDbEntity
  8
Calque_1
 62
1
100
AcDbLine
 10
354.554297
 20
34.494190
 30
0.0
 11
349.511440
 21
34.494190
 31
0.0
  0
LINE
  5
231
100
AcDbEntity
  8
Calque_1
 62
1
100
AcDbLine
 10
349.511440
 20
34.494190
 30
0.0
 11
349.511440
 21
31.494190
 31
0.0
  0
LINE
  5
232
100
AcDbEntity
  8
Calque_1
 62
1
100
AcDbLine
 10
349.511440
 20
31.494190
 30
0.0
 11
344.268583
 21
31.494190
 31
0.0
  0
LINE
  5
233
100
AcDbEntity
  8
Calque_1
 62
1
100
AcDbLine
 10
344.268583
 20
31.494190
 30
0.0
 11
344.268583
 21
34.494190
 31
0.0
  0
LINE
  5
234
100
AcDbEntity
  8
Calque_1
 62
1
100
AcDbLine
 10
344.268583
 20
34.494190
 30
0.0
 11
339.225726
 21
34.494190
 31
0.0
  0
LINE
  5
235
100
AcDbEntity
  8
Calque_1
 62
1
100
AcDbLine
 10
339.225726
 20
34.494190
 30
0.0
 11
339.225726
 21
31.494190
 31
0.0
  0
LINE
  5
236
100
AcDbEntity
  8
Calque_1
 62
1
100
AcDbLine
 10
339.225726
 20
31.494190
 30
0.0
 11
333.982869
 21
31.494190
 31
0.0
  0
LINE
  5
237
100
AcDbEntity
  8
Calque_1
 62
1
100
AcDbLine
 10
333.982869
 20
31.494190
 30
0.0
 11
333.982869
 21
34.494190
 31
0.0
  0
LINE
  5
238
100
AcDbEntity
  8
Calque_1
 62
1
100
AcDbLine
 10
333.982869
 20
34.494190
 30
0.0
 11
328.940011
 21
34.494190
 31
0.0
  0
LINE
  5
239
100
AcDbEntity
  8
Calque_1
 62
1
100
AcDbLine
 10
328.940011
 20
34.494190
 30
0.0
 11
328.940011
 21
31.494190
 31
0.0
  0
LINE
  5
23a
100
AcDbEntity
  8
Calque_1
 62
1
100
AcDbLine
 10
328.940011
 20
31.494190
 30
0.0
 11
323.697154
 21
31.494190
 31
0.0
  0
LINE
  5
23b
100
AcDbEntity
  8
Calque_1
 62
1
100
AcDbLine
 10
323.697154
 20
31.494190
 30
0.0
 11
323.697154
 21
34.494190
 31
0.0
  0
LINE
  5
23c
100
AcDbEntity
  8
Calque_1
 62
1
100
AcDbLine
 10
323.697154
 20
34.494190
 30
0.0
 11
318.654297
 21
34.494190
 31
0.0
  0
LINE
  5
23d
100
AcDbEntity
  8
Calque_1
 62
1
100
AcDbLine
 10
318.654297
 20
34.494190
 30
0.0
 11
318.654297
 21
31.494190
 31
0.0
  0
LINE
  5
23e
100
AcDbEntity
  8
Calque_1
 62
1
100
AcDbLine
 10
318.654297
 20
31.494190
 30
0.0
 11
313.461440
 21
31.494190
 31
0.0
  0
LINE
  5
23f
100
AcDbEntity
  8
Calque_1
 62
1
100
AcDbLine
 10
313.461440
 20
31.494190
 30
0.0
 11
313.461440
 21
37.258476
 31
0.0
  0
LINE
  5
240
100
AcDbEntity
  8
Calque_1
 62
1
100
AcDbLine
 10
313.461440
 20
37.258476
 30
0.0
 11
316.461440
 21
37.258476
 31
0.0
  0
LINE
  5
241
100
AcDbEntity
  8
Calque_1
 62
1
100
AcDbLine
 10
316.461440
 20
37.258476
 30
0.0
 11
316.461440
 21
42.872761
 31
0.0
  0
LINE
  5
242
100
AcDbEntity
  8
Calque_1
 62
1
100
AcDbLine
 10
316.461440
 20
42.872761
 30
0.0
 11
313.461440
 21
42.872761
 31
0.0
  0
LINE
  5
243
100
AcDbEntity
  8
Calque_1
 62
1
100
AcDbLine
 10
313.461440
 20
42.872761
 30
0.0
 11
313.461440
 21
48.687047
 31
0.0
  0
LINE
  5
244
100
AcDbEntity
  8
Calque_1
 62
1
100
AcDbLine
 10
313.461440
 20
48.687047
 30
0.0
 11
316.461440
 21
48.687047
 31
0.0
  0
LINE
  5
245
100
AcDbEntity
  8
Calque_1
 62
1
100
AcDbLine
 10
316.461440
 20
48.687047
 30
0.0
 11
316.461440
 21
54.301333
 31
0.0
  0
LINE
  5
246
100
AcDbEntity
  8
Calque_1
 62
1
100
AcDbLine
 10
316.461440
 20
54.301333
 30
0.0
 11
313.461440
 21
54.301333
 31
0.0
  0
LINE
  5
247
100
AcDbEntity
  8
Calque_1
 62
1
100
AcDbLine
 10
313.461440
 20
54.301333
 30
0.0
 11
313.461440
 21
60.115619
 31
0.0
  0
LINE
  5
248
100
AcDbEntity
  8
Calque_1
 62
1
100
AcDbLine
 10
313.461440
 20
60.115619
 30
0.0
 11
316.461440
 21
60.115619
 31
0.0
  0
LINE
  5
249
100
AcDbEntity
  8
Calque_1
 62
1
100
AcDbLine
 10
316.461440
 20
60.115619
 30
0.0
 11
316.461440
 21
65.729904
 31
0.0
  0
LINE
  5
24a
100
AcDbEntity
  8
Calque_1
 62
1
100
AcDbLine
 10
316.461440
 20
65.729904
 30
0.0
 11
313.461440
 21
65.729904
 31
0.0
  0
LINE
  5
24b
100
AcDbEntity
  8
Calque_1
 62
1
100
AcDbLine
 10
313.461440
 20
65.729904
 30
0.0
 11
313.461440
 21
71.494190
 31
0.0
  0
LINE
  5
24c
100
AcDbEntity
  8
Calque_1
 62
1
100
AcDbLine
 10
313.461440
 20
25.494190
 30
0.0
 11
318.554297
 21
25.494190
 31
0.0
  0
LINE
  5
24d
100
AcDbEntity
  8
Calque_1
 62
1
100
AcDbLine
 10
318.554297
 20
25.494190
 30
0.0
 11
318.554297
 21
28.494190
 31
0.0
  0
LINE
  5
24e
100
AcDbEntity
  8
Calque_1
 62
1
100
AcDbLine
 10
318.554297
 20
28.494190
 30
0.0
 11
323.797154
 21
28.494190
 31
0.0
  0
LINE
  5
24f
100
AcDbEntity
  8
Calque_1
 62
1
100
AcDbLine
 10
323.797154
 20
28.494190
 30
0.0
 11
323.797154
 21
25.494190
 31
0.0
  0
LINE
  5
250
100
AcDbEntity
  8
Calque_1
 62
1
100
AcDbLine
 10
323.797154
 20
25.494190
 30
0.0
 11
328.840011
 21
25.494190
 31
0.0
  0
LINE
  5
251
100
AcDbEntity
  8
Calque_1
 62
1
100
AcDbLine
 10
328.840011
 20
25.494190
 30
0.0
 11
328.840011
 21
28.494190
 31
0.0
  0
LINE
  5
252
100
AcDbEntity
  8
Calque_1
 62
1
100
AcDbLine
 10
328.840011
 20
28.494190
 30
0.0
 11
334.082869
 21
28.494190
 31
0.0
  0
LINE
  5
253
100
AcDbEntity
  8
Calque_1
 62
1
100
AcDbLine
 10
334.082869
 20
28.494190
 30
0.0
 11
334.082869
 21
25.494190
 31
0.0
  0
LINE
  5
254
100
AcDbEntity
  8
Calque_1
 62
1
100
AcDbLine
 10
334.082869
 20
25.494190
 30
0.0
 11
339.125726
 21
25.494190
 31
0.0
  0
LINE
  5
255
100
AcDbEntity
  8
Calque_1
 62
1
100
AcDbLine
 10
339.125726
 20
25.494190
 30
0.0
 11
339.125726
 21
28.494190
 31
0.0
  0
LINE
  5
256
100
AcDbEntity
  8
Calque_1
 62
1
100
AcDbLine
 10
339.125726
 20
28.494190
 30
0.0
 11
344.368583
 21
28.494190
 31
0.0
  0
LINE
  5
257
100
AcDbEntity
  8
Calque_1
 62
1
100
AcDbLine
 10
344.368583
 20
28.494190
 30
0.0
 11
344.368583
 21
25.494190
 31
0.0
  0
LINE
  5
258
100
AcDbEntity
  8
Calque_1
 62
1
100
AcDbLine
 10
344.368583
 20
25.494190
 30
0.0
 11
349.411440
 21
25.494190
 31
0.0
  0
LINE
  5
259
100
AcDbEntity
  8
Calque_1
 62
1
100
AcDbLine
 10
349.411440
 20
25.494190
 30
0.0
 11
349.411440
 21
28.494190
 31
0.0
  0
LINE
  5
25a
100
AcDbEntity
  8
Calque_1
 62
1
100
AcDbLine
 10
349.411440
 20
28.494190
 30
0.0
 11
354.654297
 21
28.494190
 31
0.0
  0
LINE
  5
25b
100
AcDbEntity
  8
Calque_1
 62
1
100
AcDbLine
 10
354.654297
 20
28.494190
 30
0.0
 11
354.654297
 21
25.494190
 31
0.0
  0
LINE
  5
25c
100
AcDbEntity
  8
Calque_1
 62
1
100
AcDbLine
 10
354.654297
 20
25.494190
 30
0.0
 11
359.697154
 21
25.494190
 31
0.0
  0
LINE
  5
25d
100
AcDbEntity
  8
Calque_1
 62
1
100
AcDbLine
 10
359.697154
 20
25.494190
 30
0.0
 11
359.697154
 21
28.494190
 31
0.0
  0
LINE
  5
25e
100
AcDbEntity
  8
Calque_1
 62
1
100
AcDbLine
 10
359.697154
 20
28.494190
 30
0.0
 11
364.940011
 21
28.494190
 31
0.0
  0
LINE
  5
25f
100
AcDbEntity
  8
Calque_1
 62
1
100
AcDbLine
 10
364.940011
 20
28.494190
 30
0.0
 11
364.940011
 21
25.494190
 31
0.0
  0
LINE
  5
260
100
AcDbEntity
  8
Calque_1
 62
1
100
AcDbLine
 10
364.940011
 20
25.494190
 30
0.0
 11
369.982869
 21
25.494190
 31
0.0
  0
LINE
  5
261
100
AcDbEntity
  8
Calque_1
 62
1
100
AcDbLine
 10
369.982869
 20
25.494190
 30
0.0
 11
369.982869
 21
28.494190
 31
0.0
  0
LINE
  5
262
100
AcDbEntity
  8
Calque_1
 62
1
100
AcDbLine
 10
369.982869
 20
28.494190
 30
0.0
 11
375.225726
 21
28.494190
 31
0.0
  0
LINE
  5
263
100
AcDbEntity
  8
Calque_1
 62
1
100
AcDbLine
 10
375.225726
 20
28.494190
 30
0.0
 11
375.225726
 21
25.494190
 31
0.0
  0
LINE
  5
264
100
AcDbEntity
  8
Calque_1
 62
1
100
AcDbLine
 10
375.225726
 20
25.494190
 30
0.0
 11
380.268583
 21
25.494190
 31
0.0
  0
LINE
  5
265
100
AcDbEntity
  8
Calque_1
 62
1
100
AcDbLine
 10
380.268583
 20
25.494190
 30
0.0
 11
380.268583
 21
28.494190
 31
0.0
  0
LINE
  5
266
100
AcDbEntity
  8
Calque_1
 62
1
100
AcDbLine
 10
380.268583
 20
28.494190
 30
0.0
 11
385.511440
 21
28.494190
 31
0.0
  0
LINE
  5
267
100
AcDbEntity
  8
Calque_1
 62
1
100
AcDbLine
 10
385.511440
 20
28.494190
 30
0.0
 11
385.511440
 21
25.494190
 31
0.0
  0
LINE
  5
268
100
AcDbEntity
  8
Calque_1
 62
1
100
AcDbLine
 10
385.511440
 20
25.494190
 30
0.0
 11
390.554297
 21
25.494190
 31
0.0
  0
LINE
  5
269
100
AcDbEntity
  8
Calque_1
 62
1
100
AcDbLine
 10
390.554297
 20
25.494190
 30
0.0
 11
390.554297
 21
28.494190
 31
0.0
  0
LINE
  5
26a
100
AcDbEntity
  8
Calque_1
 62
1
100
AcDbLine
 10
390.554297
 20
28.494190
 30
0.0
 11
395.797154
 21
28.494190
 31
0.0
  0
LINE
  5
26b
100
AcDbEntity
  8
Calque_1
 62
1
100
AcDbLine
 10
395.797154
 20
28.494190
 30
0.0
 11
395.797154
 21
25.494190
 31
0.0
  0
LINE
  5
26c
100
AcDbEntity
  8
Calque_1
 62
1
100
AcDbLine
 10
395.797154
 20
25.494190
 30
0.0
 11
400.840011
 21
25.494190
 31
0.0
  0
LINE
  5
26d
100
AcDbEntity
  8
Calque_1
 62
1
100
AcDbLine
 10
400.840011
 20
25.494190
 30
0.0
 11
400.840011
 21
28.494190
 31
0.0
  0
LINE
  5
26e
100
AcDbEntity
  8
Calque_1
 62
1
100
AcDbLine
 10
400.840011
 20
28.494190
 30
0.0
 11
406.082869
 21
28.494190
 31
0.0
  0
LINE
  5
26f
100
AcDbEntity
  8
Calque_1
 62
1
100
AcDbLine
 10
406.082869
 20
28.494190
 30
0.0
 11
406.082869
 21
25.494190
 31
0.0
  0
LINE
  5
270
100
AcDbEntity
  8
Calque_1
 62
1
100
AcDbLine
 10
406.082869
 20
25.494190
 30
0.0
 11
411.125726
 21
25.494190
 31
0.0
  0
LINE
  5
271
100
AcDbEntity
  8
Calque_1
 62
1
100
AcDbLine
 10
411.125726
 20
25.494190
 30
0.0
 11
411.125726
 21
28.494190
 31
0.0
  0
LINE
  5
272
100
AcDbEntity
  8
Calque_1
 62
1
100
AcDbLine
 10
411.125726
 20
28.494190
 30
0.0
 11
416.368580
 21
28.494190
 31
0.0
  0
LINE
  5
273
100
AcDbEntity
  8
Calque_1
 62
1
100
AcDbLine
 10
416.368580
 20
28.494190
 30
0.0
 11
416.368580
 21
25.494190
 31
0.0
  0
LINE
  5
274
100
AcDbEntity
  8
Calque_1
 62
1
100
AcDbLine
 10
416.368580
 20
25.494190
 30
0.0
 11
421.461440
 21
25.494190
 31
0.0
  0
LINE
  5
275
100
AcDbEntity
  8
Calque_1
 62
1
100
AcDbLine
 10
421.461440
 20
25.494190
 30
0.0
 11
421.461440
 21
18.644190
 31
0.0
  0
LINE
  5
276
100
AcDbEntity
  8
Calque_1
 62
1
100
AcDbLine
 10
421.461440
 20
18.644190
 30
0.0
 11
418.461440
 21
18.644190
 31
0.0
  0
LINE
  5
277
100
AcDbEntity
  8
Calque_1
 62
1
100
AcDbLine
 10
418.461440
 20
18.644190
 30
0.0
 11
418.461440
 21
11.944190
 31
0.0
  0
LINE
  5
278
100
AcDbEntity
  8
Calque_1
 62
1
100
AcDbLine
 10
418.461440
 20
11.944190
 30
0.0
 11
421.461440
 21
11.944190
 31
0.0
  0
LINE
  5
279
100
AcDbEntity
  8
Calque_1
 62
1
100
AcDbLine
 10
421.461440
 20
11.944190
 30
0.0
 11
421.461440
 21
5.044190
 31
0.0
  0
LINE
  5
27a
100
AcDbEntity
  8
Calque_1
 62
1
100
AcDbLine
 10
421.461440
 20
5.044190
 30
0.0
 11
418.461440
 21
5.044190
 31
0.0
  0
LINE
  5
27b
100
AcDbEntity
  8
Calque_1
 62
1
100
AcDbLine
 10
418.461440
 20
5.044190
 30
0.0
 11
418.461440
 21
-1.655810
 31
0.0
  0
LINE
  5
27c
100
AcDbEntity
  8
Calque_1
 62
1
100
AcDbLine
 10
418.461440
 20
-1.655810
 30
0.0
 11
421.461440
 21
-1.655810
 31
0.0
  0
LINE
  5
27d
100
AcDbEntity
  8
Calque_1
 62
1
100
AcDbLine
 10
421.461440
 20
-1.655810
 30
0.0
 11
421.461440
 21
-8.505810
 31
0.0
  0
LINE
  5
27e
100
AcDbEntity
  8
Calque_1
 62
1
100
AcDbLine
 10
421.461440
 20
-8.505810
 30
0.0
 11
416.368580
 21
-8.505810
 31
0.0
  0
LINE
  5
27f
100
AcDbEntity
  8
Calque_1
 62
1
100
AcDbLine
 10
416.368580
 20
-8.505810
 30
0.0
 11
416.368580
 21
-11.505810
 31
0.0
  0
LINE
  5
280
100
AcDbEntity
  8
Calque_1
 62
1
100
AcDbLine
 10
416.368580
 20
-11.505810
 30
0.0
 11
411.125726
 21
-11.505810
 31
0.0
  0
LINE
  5
281
100
AcDbEntity
  8
Calque_1
 62
1
100
AcDbLine
 10
411.125726
 20
-11.505810
 30
0.0
 11
411.125726
 21
-8.505810
 31
0.0
  0
LINE
  5
282
100
AcDbEntity
  8
Calque_1
 62
1
100
AcDbLine
 10
411.125726
 20
-8.505810
 30
0.0
 11
406.082869
 21
-8.505810
 31
0.0
  0
LINE
  5
283
100
AcDbEntity
  8
Calque_1
 62
1
100
AcDbLine
 10
406.082869
 20
-8.505810
 30
0.0
 11
406.082869
 21
-11.505810
 31
0.0
  0
LINE
  5
284
100
AcDbEntity
  8
Calque_1
 62
1
100
AcDbLine
 10
406.082869
 20
-11.505810
 30
0.0
 11
400.840011
 21
-11.505810
 31
0.0
  0
LINE
  5
285
100
AcDbEntity
  8
Calque_1
 62
1
100
AcDbLine
 10
400.840011
 20
-11.505810
 30
0.0
 11
400.840011
 21
-8.505810
 31
0.0
  0
LINE
  5
286
100
AcDbEntity
  8
Calque_1
 62
1
100
AcDbLine
 10
400.840011
 20
-8.505810
 30
0.0
 11
395.797154
 21
-8.505810
 31
0.0
  0
LINE
  5
287
100
AcDbEntity
  8
Calque_1
 62
1
100
AcDbLine
 10
395.797154
 20
-8.505810
 30
0.0
 11
395.797154
 21
-11.505810
 31
0.0
  0
LINE
  5
288
100
AcDbEntity
  8
Calque_1
 62
1
100
AcDbLine
 10
395.797154
 20
-11.505810
 30
0.0
 11
390.554297
 21
-11.505810
 31
0.0
  0
LINE
  5
289
100
AcDbEntity
  8
Calque_1
 62
1
100
AcDbLine
 10
390.554297
 20
-11.505810
 30
0.0
 11
390.554297
 21
-8.505810
 31
0.0
  0
LINE
  5
28a
100
AcDbEntity
  8
Calque_1
 62
1
100
AcDbLine
 10
390.554297
 20
-8.505810
 30
0.0
 11
385.511440
 21
-8.505810
 31
0.0
  0
LINE
  5
28b
100
AcDbEntity
  8
Calque_1
 62
1
100
AcDbLine
 10
385.511440
 20
-8.505810
 30
0.0
 11
385.511440
 21
-11.505810
 31
0.0
  0
LINE
  5
28c
100
AcDbEntity
  8
Calque_1
 62
1
100
AcDbLine
 10
385.511440
 20
-11.505810
 30
0.0
 11
380.268583
 21
-11.505810
 31
0.0
  0
LINE
  5
28d
100
AcDbEntity
  8
Calque_1
 62
1
100
AcDbLine
 10
380.268583
 20
-11.505810
 30
0.0
 11
380.268583
 21
-8.505810
 31
0.0
  0
LINE
  5
28e
100
AcDbEntity
  8
Calque_1
 62
1
100
AcDbLine
 10
380.268583
 20
-8.505810
 30
0.0
 11
375.225726
 21
-8.505810
 31
0.0
  0
LINE
  5
28f
100
AcDbEntity
  8
Calque_1
 62
1
100
AcDbLine
 10
375.225726
 20
-8.505810
 30
0.0
 11
375.225726
 21
-11.505810
 31
0.0
  0
LINE
  5
290
100
AcDbEntity
  8
Calque_1
 62
1
100
AcDbLine
 10
375.225726
 20
-11.505810
 30
0.0
 11
369.982869
 21
-11.505810
 31
0.0
  0
LINE
  5
291
100
AcDbEntity
  8
Calque_1
 62
1
100
AcDbLine
 10
369.982869
 20
-11.505810
 30
0.0
 11
369.982869
 21
-8.505810
 31
0.0
  0
LINE
  5
292
100
AcDbEntity
  8
Calque_1
 62
1
100
AcDbLine
 10
369.982869
 20
-8.505810
 30
0.0
 11
364.940011
 21
-8.505810
 31
0.0
  0
LINE
  5
293
100
AcDbEntity
  8
Calque_1
 62
1
100
AcDbLine
 10
364.940011
 20
-8.505810
 30
0.0
 11
364.940011
 21
-11.505810
 31
0.0
  0
LINE
  5
294
100
AcDbEntity
  8
Calque_1
 62
1
100
AcDbLine
 10
364.940011
 20
-11.505810
 30
0.0
 11
359.697154
 21
-11.505810
 31
0.0
  0
LINE
  5
295
100
AcDbEntity
  8
Calque_1
 62
1
100
AcDbLine
 10
359.697154
 20
-11.505810
 30
0.0
 11
359.697154
 21
-8.505810
 31
0.0
  0
LINE
  5
296
100
AcDbEntity
  8
Calque_1
 62
1
100
AcDbLine
 10
359.697154
 20
-8.505810
 30
0.0
 11
354.654297
 21
-8.505810
 31
0.0
  0
LINE
  5
297
100
AcDbEntity
  8
Calque_1
 62
1
100
AcDbLine
 10
354.654297
 20
-8.505810
 30
0.0
 11
354.654297
 21
-11.505810
 31
0.0
  0
LINE
  5
298
100
AcDbEntity
  8
Calque_1
 62
1
100
AcDbLine
 10
354.654297
 20
-11.505810
 30
0.0
 11
349.411440
 21
-11.505810
 31
0.0
  0
LINE
  5
299
100
AcDbEntity
  8
Calque_1
 62
1
100
AcDbLine
 10
349.411440
 20
-11.505810
 30
0.0
 11
349.411440
 21
-8.505810
 31
0.0
  0
LINE
  5
29a
100
AcDbEntity
  8
Calque_1
 62
1
100
AcDbLine
 10
349.411440
 20
-8.505810
 30
0.0
 11
344.368583
 21
-8.505810
 31
0.0
  0
LINE
  5
29b
100
AcDbEntity
  8
Calque_1
 62
1
100
AcDbLine
 10
344.368583
 20
-8.505810
 30
0.0
 11
344.368583
 21
-11.505810
 31
0.0
  0
LINE
  5
29c
100
AcDbEntity
  8
Calque_1
 62
1
100
AcDbLine
 10
344.368583
 20
-11.505810
 30
0.0
 11
339.125726
 21
-11.505810
 31
0.0
  0
LINE
  5
29d
100
AcDbEntity
  8
Calque_1
 62
1
100
AcDbLine
 10
339.125726
 20
-11.505810
 30
0.0
 11
339.125726
 21
-8.505810
 31
0.0
  0
LINE
  5
29e
100
AcDbEntity
  8
Calque_1
 62
1
100
AcDbLine
 10
339.125726
 20
-8.505810
 30
0.0
 11
334.082869
 21
-8.505810
 31
0.0
  0
LINE
  5
29f
100
AcDbEntity
  8
Calque_1
 62
1
100
AcDbLine
 10
334.082869
 20
-8.505810
 30
0.0
 11
334.082869
 21
-11.505810
 31
0.0
  0
LINE
  5
2a0
100
AcDbEntity
  8
Calque_1
 62
1
100
AcDbLine
 10
334.082869
 20
-11.505810
 30
0.0
 11
328.840011
 21
-11.505810
 31
0.0
  0
LINE
  5
2a1
100
AcDbEntity
  8
Calque_1
 62
1
100
AcDbLine
 10
328.840011
 20
-11.505810
 30
0.0
 11
328.840011
 21
-8.505810
 31
0.0
  0
LINE
  5
2a2
100
AcDbEntity
  8
Calque_1
 62
1
100
AcDbLine
 10
328.840011
 20
-8.505810
 30
0.0
 11
323.797154
 21
-8.505810
 31
0.0
  0
LINE
  5
2a3
100
AcDbEntity
  8
Calque_1
 62
1
100
AcDbLine
 10
323.797154
 20
-8.505810
 30
0.0
 11
323.797154
 21
-11.505810
 31
0.0
  0
LINE
  5
2a4
100
AcDbEntity
  8
Calque_1
 62
1
100
AcDbLine
 10
323.797154
 20
-11.505810
 30
0.0
 11
318.554297
 21
-11.505810
 31
0.0
  0
LINE
  5
2a5
100
AcDbEntity
  8
Calque_1
 62
1
100
AcDbLine
 10
318.554297
 20
-11.505810
 30
0.0
 11
318.554297
 21
-8.505810
 31
0.0
  0
LINE
  5
2a6
100
AcDbEntity
  8
Calque_1
 62
1
100
AcDbLine
 10
318.554297
 20
-8.505810
 30
0.0
 11
313.461440
 21
-8.505810
 31
0.0
  0
LINE
  5
2a7
100
AcDbEntity
  8
Calque_1
 62
1
100
AcDbLine
 10
313.461440
 20
-8.505810
 30
0.0
 11
313.461440
 21
-1.655810
 31
0.0
  0
LINE
  5
2a8
100
AcDbEntity
  8
Calque_1
 62
1
100
AcDbLine
 10
313.461440
 20
-1.655810
 30
0.0
 11
316.461440
 21
-1.655810
 31
0.0
  0
LINE
  5
2a9
100
AcDbEntity
  8
Calque_1
 62
1
100
AcDbLine
 10
316.461440
 20
-1.655810
 30
0.0
 11
316.461440
 21
5.044190
 31
0.0
  0
LINE
  5
2aa
100
AcDbEntity
  8
Calque_1
 62
1
100
AcDbLine
 10
316.461440
 20
5.044190
 30
0.0
 11
313.461440
 21
5.044190
 31
0.0
  0
LINE
  5
2ab
100
AcDbEntity
  8
Calque_1
 62
1
100
AcDbLine
 10
313.461440
 20
5.044190
 30
0.0
 11
313.461440
 21
11.944190
 31
0.0
  0
LINE
  5
2ac
100
AcDbEntity
  8
Calque_1
 62
1
100
AcDbLine
 10
313.461440
 20
11.944190
 30
0.0
 11
316.461440
 21
11.944190
 31
0.0
  0
LINE
  5
2ad
100
AcDbEntity
  8
Calque_1
 62
1
100
AcDbLine
 10
316.461440
 20
11.944190
 30
0.0
 11
316.461440
 21
18.644190
 31
0.0
  0
LINE
  5
2ae
100
AcDbEntity
  8
Calque_1
 62
1
100
AcDbLine
 10
316.461440
 20
18.644190
 30
0.0
 11
313.461440
 21
18.644190
 31
0.0
  0
LINE
  5
2af
100
AcDbEntity
  8
Calque_1
 62
1
100
AcDbLine
 10
313.461440
 20
18.644190
 30
0.0
 11
313.461440
 21
25.494190
 31
0.0
  0
LINE
  5
2b0
100
AcDbEntity
  8
Calque_1
 62
1
100
AcDbLine
 10
202.461440
 20
25.494190
 30
0.0
 11
207.554297
 21
25.494190
 31
0.0
  0
LINE
  5
2b1
100
AcDbEntity
  8
Calque_1
 62
1
100
AcDbLine
 10
207.554297
 20
25.494190
 30
0.0
 11
207.554297
 21
28.494190
 31
0.0
  0
LINE
  5
2b2
100
AcDbEntity
  8
Calque_1
 62
1
100
AcDbLine
 10
207.554297
 20
28.494190
 30
0.0
 11
212.797154
 21
28.494190
 31
0.0
  0
LINE
  5
2b3
100
AcDbEntity
  8
Calque_1
 62
1
100
AcDbLine
 10
212.797154
 20
28.494190
 30
0.0
 11
212.797154
 21
25.494190
 31
0.0
  0
LINE
  5
2b4
100
AcDbEntity
  8
Calque_1
 62
1
100
AcDbLine
 10
212.797154
 20
25.494190
 30
0.0
 11
217.840011
 21
25.494190
 31
0.0
  0
LINE
  5
2b5
100
AcDbEntity
  8
Calque_1
 62
1
100
AcDbLine
 10
217.840011
 20
25.494190
 30
0.0
 11
217.840011
 21
28.494190
 31
0.0
  0
LINE
  5
2b6
100
AcDbEntity
  8
Calque_1
 62
1
100
AcDbLine
 10
217.840011
 20
28.494190
 30
0.0
 11
223.082869
 21
28.494190
 31
0.0
  0
LINE
  5
2b7
100
AcDbEntity
  8
Calque_1
 62
1
100
AcDbLine
 10
223.082869
 20
28.494190
 30
0.0
 11
223.082869
 21
25.494190
 31
0.0
  0
LINE
  5
2b8
100
AcDbEntity
  8
Calque_1
 62
1
100
AcDbLine
 10
223.082869
 20
25.494190
 30
0.0
 11
228.125726
 21
25.494190
 31
0.0
  0
LINE
  5
2b9
100
AcDbEntity
  8
Calque_1
 62
1
100
AcDbLine
 10
228.125726
 20
25.494190
 30
0.0
 11
228.125726
 21
28.494190
 31
0.0
  0
LINE
  5
2ba
100
AcDbEntity
  8
Calque_1
 62
1
100
AcDbLine
 10
228.125726
 20
28.494190
 30
0.0
 11
233.368583
 21
28.494190
 31
0.0
  0
LINE
  5
2bb
100
AcDbEntity
  8
Calque_1
 62
1
100
AcDbLine
 10
233.368583
 20
28.494190
 30
0.0
 11
233.368583
 21
25.494190
 31
0.0
  0
LINE
  5
2bc
100
AcDbEntity
  8
Calque_1
 62
1
100
AcDbLine
 10
233.368583
 20
25.494190
 30
0.0
 11
238.411440
 21
25.494190
 31
0.0
  0
LINE
  5
2bd
100
AcDbEntity
  8
Calque_1
 62
1
100
AcDbLine
 10
238.411440
 20
25.494190
 30
0.0
 11
238.411440
 21
28.494190
 31
0.0
  0
LINE
  5
2be
100
AcDbEntity
  8
Calque_1
 62
1
100
AcDbLine
 10
238.411440
 20
28.494190
 30
0.0
 11
243.654297
 21
28.494190
 31
0.0
  0
LINE
  5
2bf
100
AcDbEntity
  8
Calque_1
 62
1
100
AcDbLine
 10
243.654297
 20
28.494190
 30
0.0
 11
243.654297
 21
25.494190
 31
0.0
  0
LINE
  5
2c0
100
AcDbEntity
  8
Calque_1
 62
1
100
AcDbLine
 10
243.654297
 20
25.494190
 30
0.0
 11
248.697154
 21
25.494190
 31
0.0
  0
LINE
  5
2c1
100
AcDbEntity
  8
Calque_1
 62
1
100
AcDbLine
 10
248.697154
 20
25.494190
 30
0.0
 11
248.697154
 21
28.494190
 31
0.0
  0
LINE
  5
2c2
100
AcDbEntity
  8
Calque_1
 62
1
100
AcDbLine
 10
248.697154
 20
28.494190
 30
0.0
 11
253.940011
 21
28.494190
 31
0.0
  0
LINE
  5
2c3
100
AcDbEntity
  8
Calque_1
 62
1
100
AcDbLine
 10
253.940011
 20
28.494190
 30
0.0
 11
253.940011
 21
25.494190
 31
0.0
  0
LINE
  5
2c4
100
AcDbEntity
  8
Calque_1
 62
1
100
AcDbLine
 10
253.940011
 20
25.494190
 30
0.0
 11
258.982869
 21
25.494190
 31
0.0
  0
LINE
  5
2c5
100
AcDbEntity
  8
Calque_1
 62
1
100
AcDbLine
 10
258.982869
 20
25.494190
 30
0.0
 11
258.982869
 21
28.494190
 31
0.0
  0
LINE
  5
2c6
100
AcDbEntity
  8
Calque_1
 62
1
100
AcDbLine
 10
258.982869
 20
28.494190
 30
0.0
 11
264.225726
 21
28.494190
 31
0.0
  0
LINE
  5
2c7
100
AcDbEntity
  8
Calque_1
 62
1
100
AcDbLine
 10
264.225726
 20
28.494190
 30
0.0
 11
264.225726
 21
25.494190
 31
0.0
  0
LINE
  5
2c8
100
AcDbEntity
  8
Calque_1
 62
1
100
AcDbLine
 10
264.225726
 20
25.494190
 30
0.0
 11
269.268583
 21
25.494190
 31
0.0
  0
LINE
  5
2c9
100
AcDbEntity
  8
Calque_1
 62
1
100
AcDbLine
 10
269.268583
 20
25.494190
 30
0.0
 11
269.268583
 21
28.494190
 31
0.0
  0
LINE
  5
2ca
100
AcDbEntity
  8
Calque_1
 62
1
100
AcDbLine
 10
269.268583
 20
28.494190
 30
0.0
 11
274.511440
 21
28.494190
 31
0.0
  0
LINE
  5
2cb
100
AcDbEntity
  8
Calque_1
 62
1
100
AcDbLine
 10
274.511440
 20
28.494190
 30
0.0
 11
274.511440
 21
25.494190
 31
0.0
  0
LINE
  5
2cc
100
AcDbEntity
  8
Calque_1
 62
1
100
AcDbLine
 10
274.511440
 20
25.494190
 30
0.0
 11
279.554297
 21
25.494190
 31
0.0
  0
LINE
  5
2cd
100
AcDbEntity
  8
Calque_1
 62
1
100
AcDbLine
 10
279.554297
 20
25.494190
 30
0.0
 11
279.554297
 21
28.494190
 31
0.0
  0
LINE
  5
2ce
100
AcDbEntity
  8
Calque_1
 62
1
100
AcDbLine
 10
279.554297
 20
28.494190
 30
0.0
 11
284.797154
 21
28.494190
 31
0.0
  0
LINE
  5
2cf
100
AcDbEntity
  8
Calque_1
 62
1
100
AcDbLine
 10
284.797154
 20
28.494190
 30
0.0
 11
284.797154
 21
25.494190
 31
0.0
  0
LINE
  5
2d0
100
AcDbEntity
  8
Calque_1
 62
1
100
AcDbLine
 10
284.797154
 20
25.494190
 30
0.0
 11
289.840011
 21
25.494190
 31
0.0
  0
LINE
  5
2d1
100
AcDbEntity
  8
Calque_1
 62
1
100
AcDbLine
 10
289.840011
 20
25.494190
 30
0.0
 11
289.840011
 21
28.494190
 31
0.0
  0
LINE
  5
2d2
100
AcDbEntity
  8
Calque_1
 62
1
100
AcDbLine
 10
289.840011
 20
28.494190
 30
0.0
 11
295.082869
 21
28.494190
 31
0.0
  0
LINE
  5
2d3
100
AcDbEntity
  8
Calque_1
 62
1
100
AcDbLine
 10
295.082869
 20
28.494190
 30
0.0
 11
295.082869
 21
25.494190
 31
0.0
  0
LINE
  5
2d4
100
AcDbEntity
  8
Calque_1
 62
1
100
AcDbLine
 10
295.082869
 20
25.494190
 30
0.0
 11
300.125726
 21
25.494190
 31
0.0
  0
LINE
  5
2d5
100
AcDbEntity
  8
Calque_1
 62
1
100
AcDbLine
 10
300.125726
 20
25.494190
 30
0.0
 11
300.125726
 21
28.494190
 31
0.0
  0
LINE
  5
2d6
100
AcDbEntity
  8
Calque_1
 62
1
100
AcDbLine
 10
300.125726
 20
28.494190
 30
0.0
 11
305.368580
 21
28.494190
 31
0.0
  0
LINE
  5
2d7
100
AcDbEntity
  8
Calque_1
 62
1
100
AcDbLine
 10
305.368580
 20
28.494190
 30
0.0
 11
305.368580
 21
25.494190
 31
0.0
  0
LINE
  5
2d8
100
AcDbEntity
  8
Calque_1
 62
1
100
AcDbLine
 10
305.368580
 20
25.494190
 30
0.0
 11
310.461440
 21
25.494190
 31
0.0
  0
LINE
  5
2d9
100
AcDbEntity
  8
Calque_1
 62
1
100
AcDbLine
 10
310.461440
 20
25.494190
 30
0.0
 11
310.461440
 21
18.644190
 31
0.0
  0
LINE
  5
2da
100
AcDbEntity
  8
Calque_1
 62
1
100
AcDbLine
 10
310.461440
 20
18.644190
 30
0.0
 11
307.461440
 21
18.644190
 31
0.0
  0
LINE
  5
2db
100
AcDbEntity
  8
Calque_1
 62
1
100
AcDbLine
 10
307.461440
 20
18.644190
 30
0.0
 11
307.461440
 21
11.944190
 31
0.0
  0
LINE
  5
2dc
100
AcDbEntity
  8
Calque_1
 62
1
100
AcDbLine
 10
307.461440
 20
11.944190
 30
0.0
 11
310.461440
 21
11.944190
 31
0.0
  0
LINE
  5
2dd
100
AcDbEntity
  8
Calque_1
 62
1
100
AcDbLine
 10
310.461440
 20
11.944190
 30
0.0
 11
310.461440
 21
5.044190
 31
0.0
  0
LINE
  5
2de
100
AcDbEntity
  8
Calque_1
 62
1
100
AcDbLine
 10
310.461440
 20
5.044190
 30
0.0
 11
307.461440
 21
5.044190
 31
0.0
  0
LINE
  5
2df
100
AcDbEntity
  8
Calque_1
 62
1
100
AcDbLine
 10
307.461440
 20
5.044190
 30
0.0
 11
307.461440
 21
-1.655810
 31
0.0
  0
LINE
  5
2e0
100
AcDbEntity
  8
Calque_1
 62
1
100
AcDbLine
 10
307.461440
 20
-1.655810
 30
0.0
 11
310.461440
 21
-1.655810
 31
0.0
  0
LINE
  5
2e1
100
AcDbEntity
  8
Calque_1
 62
1
100
AcDbLine
 10
310.461440
 20
-1.655810
 30
0.0
 11
310.461440
 21
-8.505810
 31
0.0
  0
LINE
  5
2e2
100
AcDbEntity
  8
Calque_1
 62
1
100
AcDbLine
 10
310.461440
 20
-8.505810
 30
0.0
 11
305.368580
 21
-8.505810
 31
0.0
  0
LINE
  5
2e3
100
AcDbEntity
  8
Calque_1
 62
1
100
AcDbLine
 10
305.368580
 20
-8.505810
 30
0.0
 11
305.368580
 21
-11.505810
 31
0.0
  0
LINE
  5
2e4
100
AcDbEntity
  8
Calque_1
 62
1
100
AcDbLine
 10
305.368580
 20
-11.505810
 30
0.0
 11
300.125726
 21
-11.505810
 31
0.0
  0
LINE
  5
2e5
100
AcDbEntity
  8
Calque_1
 62
1
100
AcDbLine
 10
300.125726
 20
-11.505810
 30
0.0
 11
300.125726
 21
-8.505810
 31
0.0
  0
LINE
  5
2e6
100
AcDbEntity
  8
Calque_1
 62
1
100
AcDbLine
 10
300.125726
 20
-8.505810
 30
0.0
 11
295.082869
 21
-8.505810
 31
0.0
  0
LINE
  5
2e7
100
AcDbEntity
  8
Calque_1
 62
1
100
AcDbLine
 10
295.082869
 20
-8.505810
 30
0.0
 11
295.082869
 21
-11.505810
 31
0.0
  0
LINE
  5
2e8
100
AcDbEntity
  8
Calque_1
 62
1
100
AcDbLine
 10
295.082869
 20
-11.505810
 30
0.0
 11
289.840011
 21
-11.505810
 31
0.0
  0
LINE
  5
2e9
100
AcDbEntity
  8
Calque_1
 62
1
100
AcDbLine
 10
289.840011
 20
-11.505810
 30
0.0
 11
289.840011
 21
-8.505810
 31
0.0
  0
LINE
  5
2ea
100
AcDbEntity
  8
Calque_1
 62
1
100
AcDbLine
 10
289.840011
 20
-8.505810
 30
0.0
 11
284.797154
 21
-8.505810
 31
0.0
  0
LINE
  5
2eb
100
AcDbEntity
  8
Calque_1
 62
1
100
AcDbLine
 10
284.797154
 20
-8.505810
 30
0.0
 11
284.797154
 21
-11.505810
 31
0.0
  0
LINE
  5
2ec
100
AcDbEntity
  8
Calque_1
 62
1
100
AcDbLine
 10
284.797154
 20
-11.505810
 30
0.0
 11
279.554297
 21
-11.505810
 31
0.0
  0
LINE
  5
2ed
100
AcDbEntity
  8
Calque_1
 62
1
100
AcDbLine
 10
279.554297
 20
-11.505810
 30
0.0
 11
279.554297
 21
-8.505810
 31
0.0
  0
LINE
  5
2ee
100
AcDbEntity
  8
Calque_1
 62
1
100
AcDbLine
 10
279.554297
 20
-8.505810
 30
0.0
 11
274.511440
 21
-8.505810
 31
0.0
  0
LINE
  5
2ef
100
AcDbEntity
  8
Calque_1
 62
1
100
AcDbLine
 10
274.511440
 20
-8.505810
 30
0.0
 11
274.511440
 21
-11.505810
 31
0.0
  0
LINE
  5
2f0
100
AcDbEntity
  8
Calque_1
 62
1
100
AcDbLine
 10
274.511440
 20
-11.505810
 30
0.0
 11
269.268583
 21
-11.505810
 31
0.0
  0
LINE
  5
2f1
100
AcDbEntity
  8
Calque_1
 62
1
100
AcDbLine
 10
269.268583
 20
-11.505810
 30
0.0
 11
269.268583
 21
-8.505810
 31
0.0
  0
LINE
  5
2f2
100
AcDbEntity
  8
Calque_1
 62
1
100
AcDbLine
 10
269.268583
 20
-8.505810
 30
0.0
 11
264.225726
 21
-8.505810
 31
0.0
  0
LINE
  5
2f3
100
AcDbEntity
  8
Calque_1
 62
1
100
AcDbLine
 10
264.225726
 20
-8.505810
 30
0.0
 11
264.225726
 21
-11.505810
 31
0.0
  0
LINE
  5
2f4
100
AcDbEntity
  8
Calque_1
 62
1
100
AcDbLine
 10
264.225726
 20
-11.505810
 30
0.0
 11
258.982869
 21
-11.505810
 31
0.0
  0
LINE
  5
2f5
100
AcDbEntity
  8
Calque_1
 62
1
100
AcDbLine
 10
258.982869
 20
-11.505810
 30
0.0
 11
258.982869
 21
-8.505810
 31
0.0
  0
LINE
  5
2f6
100
AcDbEntity
  8
Calque_1
 62
1
100
AcDbLine
 10
258.982869
 20
-8.505810
 30
0.0
 11
253.940011
 21
-8.505810
 31
0.0
  0
LINE
  5
2f7
100
AcDbEntity
  8
Calque_1
 62
1
100
AcDbLine
 10
253.940011
 20
-8.505810
 30
0.0
 11
253.940011
 21
-11.505810
 31
0.0
  0
LINE
  5
2f8
100
AcDbEntity
  8
Calque_1
 62
1
100
AcDbLine
 10
253.940011
 20
-11.505810
 30
0.0
 11
248.697154
 21
-11.505810
 31
0.0
  0
LINE
  5
2f9
100
AcDbEntity
  8
Calque_1
 62
1
100
AcDbLine
 10
248.697154
 20
-11.505810
 30
0.0
 11
248.697154
 21
-8.505810
 31
0.0
  0
LINE
  5
2fa
100
AcDbEntity
  8
Calque_1
 62
1
100
AcDbLine
 10
248.697154
 20
-8.505810
 30
0.0
 11
243.654297
 21
-8.505810
 31
0.0
  0
LINE
  5
2fb
100
AcDbEntity
  8
Calque_1
 62
1
100
AcDbLine
 10
243.654297
 20
-8.505810
 30
0.0
 11
243.654297
 21
-11.505810
 31
0.0
  0
LINE
  5
2fc
100
AcDbEntity
  8
Calque_1
 62
1
100
AcDbLine
 10
243.654297
 20
-11.505810
 30
0.0
 11
238.411440
 21
-11.505810
 31
0.0
  0
LINE
  5
2fd
100
AcDbEntity
  8
Calque_1
 62
1
100
AcDbLine
 10
238.411440
 20
-11.505810
 30
0.0
 11
238.411440
 21
-8.505810
 31
0.0
  0
LINE
  5
2fe
100
AcDbEntity
  8
Calque_1
 62
1
100
AcDbLine
 10
238.411440
 20
-8.505810
 30
0.0
 11
233.368583
 21
-8.505810
 31
0.0
  0
LINE
  5
2ff
100
AcDbEntity
  8
Calque_1
 62
1
100
AcDbLine
 10
233.368583
 20
-8.505810
 30
0.0
 11
233.368583
 21
-11.505810
 31
0.0
  0
LINE
  5
300
100
AcDbEntity
  8
Calque_1
 62
1
100
AcDbLine
 10
233.368583
 20
-11.505810
 30
0.0
 11
228.125726
 21
-11.505810
 31
0.0
  0
LINE
  5
301
100
AcDbEntity
  8
Calque_1
 62
1
100
AcDbLine
 10
228.125726
 20
-11.505810
 30
0.0
 11
228.125726
 21
-8.505810
 31
0.0
  0
LINE
  5
302
100
AcDbEntity
  8
Calque_1
 62
1
100
AcDbLine
 10
228.125726
 20
-8.505810
 30
0.0
 11
223.082869
 21
-8.505810
 31
0.0
  0
LINE
  5
303
100
AcDbEntity
  8
Calque_1
 62
1
100
AcDbLine
 10
223.082869
 20
-8.505810
 30
0.0
 11
223.082869
 21
-11.505810
 31
0.0
  0
LINE
  5
304
100
AcDbEntity
  8
Calque_1
 62
1
100
AcDbLine
 10
223.082869
 20
-11.505810
 30
0.0
 11
217.840011
 21
-11.505810
 31
0.0
  0
LINE
  5
305
100
AcDbEntity
  8
Calque_1
 62
1
100
AcDbLine
 10
217.840011
 20
-11.505810
 30
0.0
 11
217.840011
 21
-8.505810
 31
0.0
  0
LINE
  5
306
100
AcDbEntity
  8
Calque_1
 62
1
100
AcDbLine
 10
217.840011
 20
-8.505810
 30
0.0
 11
212.797154
 21
-8.505810
 31
0.0
  0
LINE
  5
307
100
AcDbEntity
  8
Calque_1
 62
1
100
AcDbLine
 10
212.797154
 20
-8.505810
 30
0.0
 11
212.797154
 21
-11.505810
 31
0.0
  0
LINE
  5
308
100
AcDbEntity
  8
Calque_1
 62
1
100
AcDbLine
 10
212.797154
 20
-11.505810
 30
0.0
 11
207.554297
 21
-11.505810
 31
0.0
  0
LINE
  5
309
100
AcDbEntity
  8
Calque_1
 62
1
100
AcDbLine
 10
207.554297
 20
-11.505810
 30
0.0
 11
207.554297
 21
-8.505810
 31
0.0
  0
LINE
  5
30a
100
AcDbEntity
  8
Calque_1
 62
1
100
AcDbLine
 10
207.554297
 20
-8.505810
 30
0.0
 11
202.461440
 21
-8.505810
 31
0.0
  0
LINE
  5
30b
100
AcDbEntity
  8
Calque_1
 62
1
100
AcDbLine
 10
202.461440
 20
-8.505810
 30
0.0
 11
202.461440
 21
-1.655810
 31
0.0
  0
LINE
  5
30c
100
AcDbEntity
  8
Calque_1
 62
1
100
AcDbLine
 10
202.461440
 20
-1.655810
 30
0.0
 11
205.461440
 21
-1.655810
 31
0.0
  0
LINE
  5
30d
100
AcDbEntity
  8
Calque_1
 62
1
100
AcDbLine
 10
205.461440
 20
-1.655810
 30
0.0
 11
205.461440
 21
5.044190
 31
0.0
  0
LINE
  5
30e
100
AcDbEntity
  8
Calque_1
 62
1
100
AcDbLine
 10
205.461440
 20
5.044190
 30
0.0
 11
202.461440
 21
5.044190
 31
0.0
  0
LINE
  5
30f
100
AcDbEntity
  8
Calque_1
 62
1
100
AcDbLine
 10
202.461440
 20
5.044190
 30
0.0
 11
202.461440
 21
11.944190
 31
0.0
  0
LINE
  5
310
100
AcDbEntity
  8
Calque_1
 62
1
100
AcDbLine
 10
202.461440
 20
11.944190
 30
0.0
 11
205.461440
 21
11.944190
 31
0.0
  0
LINE
  5
311
100
AcDbEntity
  8
Calque_1
 62
1
100
AcDbLine
 10
205.461440
 20
11.944190
 30
0.0
 11
205.461440
 21
18.644190
 31
0.0
  0
LINE
  5
312
100
AcDbEntity
  8
Calque_1
 62
1
100
AcDbLine
 10
205.461440
 20
18.644190
 30
0.0
 11
202.461440
 21
18.644190
 31
0.0
  0
LINE
  5
313
100
AcDbEntity
  8
Calque_1
 62
1
100
AcDbLine
 10
202.461440
 20
18.644190
 30
0.0
 11
202.461440
 21
25.494190
 31
0.0
  0
LINE
  5
314
100
AcDbEntity
  8
Calque_1
 62
1
100
AcDbLine
 10
248.461440
 20
-17.505810
 30
0.0
 11
251.125726
 21
-17.505810
 31
0.0
  0
LINE
  5
315
100
AcDbEntity
  8
Calque_1
 62
1
100
AcDbLine
 10
251.125726
 20
-17.505810
 30
0.0
 11
251.125726
 21
-14.505810
 31
0.0
  0
LINE
  5
316
100
AcDbEntity
  8
Calque_1
 62
1
100
AcDbLine
 10
251.125726
 20
-14.505810
 30
0.0
 11
256.940011
 21
-14.505810
 31
0.0
  0
LINE
  5
317
100
AcDbEntity
  8
Calque_1
 62
1
100
AcDbLine
 10
256.940011
 20
-14.505810
 30
0.0
 11
256.940011
 21
-17.505810
 31
0.0
  0
LINE
  5
318
100
AcDbEntity
  8
Calque_1
 62
1
100
AcDbLine
 10
256.940011
 20
-17.505810
 30
0.0
 11
262.554297
 21
-17.505810
 31
0.0
  0
LINE
  5
319
100
AcDbEntity
  8
Calque_1
 62
1
100
AcDbLine
 10
262.554297
 20
-17.505810
 30
0.0
 11
262.554297
 21
-14.505810
 31
0.0
  0
LINE
  5
31a
100
AcDbEntity
  8
Calque_1
 62
1
100
AcDbLine
 10
262.554297
 20
-14.505810
 30
0.0
 11
268.368583
 21
-14.505810
 31
0.0
  0
LINE
  5
31b
100
AcDbEntity
  8
Calque_1
 62
1
100
AcDbLine
 10
268.368583
 20
-14.505810
 30
0.0
 11
268.368583
 21
-17.505810
 31
0.0
  0
LINE
  5
31c
100
AcDbEntity
  8
Calque_1
 62
1
100
AcDbLine
 10
268.368583
 20
-17.505810
 30
0.0
 11
273.982869
 21
-17.505810
 31
0.0
  0
LINE
  5
31d
100
AcDbEntity
  8
Calque_1
 62
1
100
AcDbLine
 10
273.982869
 20
-17.505810
 30
0.0
 11
273.982869
 21
-14.505810
 31
0.0
  0
LINE
  5
31e
100
AcDbEntity
  8
Calque_1
 62
1
100
AcDbLine
 10
273.982869
 20
-14.505810
 30
0.0
 11
279.797154
 21
-14.505810
 31
0.0
  0
LINE
  5
31f
100
AcDbEntity
  8
Calque_1
 62
1
100
AcDbLine
 10
279.797154
 20
-14.505810
 30
0.0
 11
279.797154
 21
-17.505810
 31
0.0
  0
LINE
  5
320
100
AcDbEntity
  8
Calque_1
 62
1
100
AcDbLine
 10
279.797154
 20
-17.505810
 30
0.0
 11
282.461440
 21
-17.505810
 31
0.0
  0
LINE
  5
321
100
AcDbEntity
  8
Calque_1
 62
1
100
AcDbLine
 10
282.461440
 20
-17.505810
 30
0.0
 11
282.461440
 21
-24.255810
 31
0.0
  0
LINE
  5
322
100
AcDbEntity
  8
Calque_1
 62
1
100
AcDbLine
 10
282.461440
 20
-24.255810
 30
0.0
 11
285.461440
 21
-24.255810
 31
0.0
  0
LINE
  5
323
100
AcDbEntity
  8
Calque_1
 62
1
100
AcDbLine
 10
285.461440
 20
-24.255810
 30
0.0
 11
285.461440
 21
-31.155810
 31
0.0
  0
LINE
  5
324
100
AcDbEntity
  8
Calque_1
 62
1
100
AcDbLine
 10
285.461440
 20
-31.155810
 30
0.0
 11
282.461440
 21
-31.155810
 31
0.0
  0
LINE
  5
325
100
AcDbEntity
  8
Calque_1
 62
1
100
AcDbLine
 10
282.461440
 20
-31.155810
 30
0.0
 11
282.461440
 21
-37.855810
 31
0.0
  0
LINE
  5
326
100
AcDbEntity
  8
Calque_1
 62
1
100
AcDbLine
 10
282.461440
 20
-37.855810
 30
0.0
 11
285.461440
 21
-37.855810
 31
0.0
  0
LINE
  5
327
100
AcDbEntity
  8
Calque_1
 62
1
100
AcDbLine
 10
285.461440
 20
-37.855810
 30
0.0
 11
285.461440
 21
-44.755810
 31
0.0
  0
LINE
  5
328
100
AcDbEntity
  8
Calque_1
 62
1
100
AcDbLine
 10
285.461440
 20
-44.755810
 30
0.0
 11
282.461440
 21
-44.755810
 31
0.0
  0
LINE
  5
329
100
AcDbEntity
  8
Calque_1
 62
1
100
AcDbLine
 10
282.461440
 20
-44.755810
 30
0.0
 11
282.461440
 21
-51.505810
 31
0.0
  0
LINE
  5
32a
100
AcDbEntity
  8
Calque_1
 62
1
100
AcDbLine
 10
282.461440
 20
-51.505810
 30
0.0
 11
279.797154
 21
-51.505810
 31
0.0
  0
LINE
  5
32b
100
AcDbEntity
  8
Calque_1
 62
1
100
AcDbLine
 10
279.797154
 20
-51.505810
 30
0.0
 11
279.797154
 21
-54.505810
 31
0.0
  0
LINE
  5
32c
100
AcDbEntity
  8
Calque_1
 62
1
100
AcDbLine
 10
279.797154
 20
-54.505810
 30
0.0
 11
273.982869
 21
-54.505810
 31
0.0
  0
LINE
  5
32d
100
AcDbEntity
  8
Calque_1
 62
1
100
AcDbLine
 10
273.982869
 20
-54.505810
 30
0.0
 11
273.982869
 21
-51.505810
 31
0.0
  0
LINE
  5
32e
100
AcDbEntity
  8
Calque_1
 62
1
100
AcDbLine
 10
273.982869
 20
-51.505810
 30
0.0
 11
268.368583
 21
-51.505810
 31
0.0
  0
LINE
  5
32f
100
AcDbEntity
  8
Calque_1
 62
1
100
AcDbLine
 10
268.368583
 20
-51.505810
 30
0.0
 11
268.368583
 21
-54.505810
 31
0.0
  0
LINE
  5
330
100
AcDbEntity
  8
Calque_1
 62
1
100
AcDbLine
 10
268.368583
 20
-54.505810
 30
0.0
 11
262.554297
 21
-54.505810
 31
0.0
  0
LINE
  5
331
100
AcDbEntity
  8
Calque_1
 62
1
100
AcDbLine
 10
262.554297
 20
-54.505810
 30
0.0
 11
262.554297
 21
-51.505810
 31
0.0
  0
LINE
  5
332
100
AcDbEntity
  8
Calque_1
 62
1
100
AcDbLine
 10
262.554297
 20
-51.505810
 30
0.0
 11
256.940011
 21
-51.505810
 31
0.0
  0
LINE
  5
333
100
AcDbEntity
  8
Calque_1
 62
1
100
AcDbLine
 10
256.940011
 20
-51.505810
 30
0.0
 11
256.940011
 21
-54.505810
 31
0.0
  0
LINE
  5
334
100
AcDbEntity
  8
Calque_1
 62
1
100
AcDbLine
 10
256.940011
 20
-54.505810
 30
0.0
 11
251.125726
 21
-54.505810
 31
0.0
  0
LINE
  5
335
100
AcDbEntity
  8
Calque_1
 62
1
100
AcDbLine
 10
251.125726
 20
-54.505810
 30
0.0
 11
251.125726
 21
-51.505810
 31
0.0
  0
LINE
  5
336
100
AcDbEntity
  8
Calque_1
 62
1
100
AcDbLine
 10
251.125726
 20
-51.505810
 30
0.0
 11
248.461440
 21
-51.505810
 31
0.0
  0
LINE
  5
337
100
AcDbEntity
  8
Calque_1
 62
1
100
AcDbLine
 10
248.461440
 20
-51.505810
 30
0.0
 11
248.461440
 21
-44.755810
 31
0.0
  0
LINE
  5
338
100
AcDbEntity
  8
Calque_1
 62
1
100
AcDbLine
 10
248.461440
 20
-44.755810
 30
0.0
 11
245.461440
 21
-44.755810
 31
0.0
  0
LINE
  5
339
100
AcDbEntity
  8
Calque_1
 62
1
100
AcDbLine
 10
245.461440
 20
-44.755810
 30
0.0
 11
245.461440
 21
-37.855810
 31
0.0
  0
LINE
  5
33a
100
AcDbEntity
  8
Calque_1
 62
1
100
AcDbLine
 10
245.461440
 20
-37.855810
 30
0.0
 11
248.461440
 21
-37.855810
 31
0.0
  0
LINE
  5
33b
100
AcDbEntity
  8
Calque_1
 62
1
100
AcDbLine
 10
248.461440
 20
-37.855810
 30
0.0
 11
248.461440
 21
-31.155810
 31
0.0
  0
LINE
  5
33c
100
AcDbEntity
  8
Calque_1
 62
1
100
AcDbLine
 10
248.461440
 20
-31.155810
 30
0.0
 11
245.461440
 21
-31.155810
 31
0.0
  0
LINE
  5
33d
100
AcDbEntity
  8
Calque_1
 62
1
100
AcDbLine
 10
245.461440
 20
-31.155810
 30
0.0
 11
245.461440
 21
-24.255810
 31
0.0
  0
LINE
  5
33e
100
AcDbEntity
  8
Calque_1
 62
1
100
AcDbLine
 10
245.461440
 20
-24.255810
 30
0.0
 11
248.461440
 21
-24.255810
 31
0.0
  0
LINE
  5
33f
100
AcDbEntity
  8
Calque_1
 62
1
100
AcDbLine
 10
248.461440
 20
-24.255810
 30
0.0
 11
248.461440
 21
-17.505810
 31
0.0
  0
LINE
  5
340
100
AcDbEntity
  8
Calque_1
 62
1
100
AcDbLine
 10
205.461440
 20
-17.505810
 30
0.0
 11
208.125726
 21
-17.505810
 31
0.0
  0
LINE
  5
341
100
AcDbEntity
  8
Calque_1
 62
1
100
AcDbLine
 10
208.125726
 20
-17.505810
 30
0.0
 11
208.125726
 21
-14.505810
 31
0.0
  0
LINE
  5
342
100
AcDbEntity
  8
Calque_1
 62
1
100
AcDbLine
 10
208.125726
 20
-14.505810
 30
0.0
 11
213.940011
 21
-14.505810
 31
0.0
  0
LINE
  5
343
100
AcDbEntity
  8
Calque_1
 62
1
100
AcDbLine
 10
213.940011
 20
-14.505810
 30
0.0
 11
213.940011
 21
-17.505810
 31
0.0
  0
LINE
  5
344
100
AcDbEntity
  8
Calque_1
 62
1
100
AcDbLine
 10
213.940011
 20
-17.505810
 30
0.0
 11
219.554297
 21
-17.505810
 31
0.0
  0
LINE
  5
345
100
AcDbEntity
  8
Calque_1
 62
1
100
AcDbLine
 10
219.554297
 20
-17.505810
 30
0.0
 11
219.554297
 21
-14.505810
 31
0.0
  0
LINE
  5
346
100
AcDbEntity
  8
Calque_1
 62
1
100
AcDbLine
 10
219.554297
 20
-14.505810
 30
0.0
 11
225.368583
 21
-14.505810
 31
0.0
  0
LINE
  5
347
100
AcDbEntity
  8
Calque_1
 62
1
100
AcDbLine
 10
225.368583
 20
-14.505810
 30
0.0
 11
225.368583
 21
-17.505810
 31
0.0
  0
LINE
  5
348
100
AcDbEntity
  8
Calque_1
 62
1
100
AcDbLine
 10
225.368583
 20
-17.505810
 30
0.0
 11
230.982869
 21
-17.505810
 31
0.0
  0
LINE
  5
349
100
AcDbEntity
  8
Calque_1
 62
1
100
AcDbLine
 10
230.982869
 20
-17.505810
 30
0.0
 11
230.982869
 21
-14.505810
 31
0.0
  0
LINE
  5
34a
100
AcDbEntity
  8
Calque_1
 62
1
100
AcDbLine
 10
230.982869
 20
-14.505810
 30
0.0
 11
236.797154
 21
-14.505810
 31
0.0
  0
LINE
  5
34b
100
AcDbEntity
  8
Calque_1
 62
1
100
AcDbLine
 10
236.797154
 20
-14.505810
 30
0.0
 11
236.797154
 21
-17.505810
 31
0.0
  0
LINE
  5
34c
100
AcDbEntity
  8
Calque_1
 62
1
100
AcDbLine
 10
236.797154
 20
-17.505810
 30
0.0
 11
239.461440
 21
-17.505810
 31
0.0
  0
LINE
  5
34d
100
AcDbEntity
  8
Calque_1
 62
1
100
AcDbLine
 10
239.461440
 20
-17.505810
 30
0.0
 11
239.461440
 21
-24.255810
 31
0.0
  0
LINE
  5
34e
100
AcDbEntity
  8
Calque_1
 62
1
100
AcDbLine
 10
239.461440
 20
-24.255810
 30
0.0
 11
242.461440
 21
-24.255810
 31
0.0
  0
LINE
  5
34f
100
AcDbEntity
  8
Calque_1
 62
1
100
AcDbLine
 10
242.461440
 20
-24.255810
 30
0.0
 11
242.461440
 21
-31.155810
 31
0.0
  0
LINE
  5
350
100
AcDbEntity
  8
Calque_1
 62
1
100
AcDbLine
 10
242.461440
 20
-31.155810
 30
0.0
 11
239.461440
 21
-31.155810
 31
0.0
  0
LINE
  5
351
100
AcDbEntity
  8
Calque_1
 62
1
100
AcDbLine
 10
239.461440
 20
-31.155810
 30
0.0
 11
239.461440
 21
-37.855810
 31
0.0
  0
LINE
  5
352
100
AcDbEntity
  8
Calque_1
 62
1
100
AcDbLine
 10
239.461440
 20
-37.855810
 30
0.0
 11
242.461440
 21
-37.855810
 31
0.0
  0
LINE
  5
353
100
AcDbEntity
  8
Calque_1
 62
1
100
AcDbLine
 10
242.461440
 20
-37.855810
 30
0.0
 11
242.461440
 21
-44.755810
 31
0.0
  0
LINE
  5
354
100
AcDbEntity
  8
Calque_1
 62
1
100
AcDbLine
 10
242.461440
 20
-44.755810
 30
0.0
 11
239.461440
 21
-44.755810
 31
0.0
  0
LINE
  5
355
100
AcDbEntity
  8
Calque_1
 62
1
100
AcDbLine
 10
239.461440
 20
-44.755810
 30
0.0
 11
239.461440
 21
-51.505810
 31
0.0
  0
LINE
  5
356
100
AcDbEntity
  8
Calque_1
 62
1
100
AcDbLine
 10
239.461440
 20
-51.505810
 30
0.0
 11
236.797154
 21
-51.505810
 31
0.0
  0
LINE
  5
357
100
AcDbEntity
  8
Calque_1
 62
1
100
AcDbLine
 10
236.797154
 20
-51.505810
 30
0.0
 11
236.797154
 21
-54.505810
 31
0.0
  0
LINE
  5
358
100
AcDbEntity
  8
Calque_1
 62
1
100
AcDbLine
 10
236.797154
 20
-54.505810
 30
0.0
 11
230.982869
 21
-54.505810
 31
0.0
  0
LINE
  5
359
100
AcDbEntity
  8
Calque_1
 62
1
100
AcDbLine
 10
230.982869
 20
-54.505810
 30
0.0
 11
230.982869
 21
-51.505810
 31
0.0
  0
LINE
  5
35a
100
AcDbEntity
  8
Calque_1
 62
1
100
AcDbLine
 10
230.982869
 20
-51.505810
 30
0.0
 11
225.368583
 21
-51.505810
 31
0.0
  0
LINE
  5
35b
100
AcDbEntity
  8
Calque_1
 62
1
100
AcDbLine
 10
225.368583
 20
-51.505810
 30
0.0
 11
225.368583
 21
-54.505810
 31
0.0
  0
LINE
  5
35c
100
AcDbEntity
  8
Calque_1
 62
1
100
AcDbLine
 10
225.368583
 20
-54.505810
 30
0.0
 11
219.554297
 21
-54.505810
 31
0.0
  0
LINE
  5
35d
100
AcDbEntity
  8
Calque_1
 62
1
100
AcDbLine
 10
219.554297
 20
-54.505810
 30
0.0
 11
219.554297
 21
-51.505810
 31
0.0
  0
LINE
  5
35e
100
AcDbEntity
  8
Calque_1
 62
1
100
AcDbLine
 10
219.554297
 20
-51.505810
 30
0.0
 11
213.940011
 21
-51.505810
 31
0.0
  0
LINE
  5
35f
100
AcDbEntity
  8
Calque_1
 62
1
100
AcDbLine
 10
213.940011
 20
-51.505810
 30
0.0
 11
213.940011
 21
-54.505810
 31
0.0
  0
LINE
  5
360
100
AcDbEntity
  8
Calque_1
 62
1
100
AcDbLine
 10
213.940011
 20
-54.505810
 30
0.0
 11
208.125726
 21
-54.505810
 31
0.0
  0
LINE
  5
361
100
AcDbEntity
  8
Calque_1
 62
1
100
AcDbLine
 10
208.125726
 20
-54.505810
 30
0.0
 11
208.125726
 21
-51.505810
 31
0.0
  0
LINE
  5
362
100
AcDbEntity
  8
Calque_1
 62
1
100
AcDbLine
 10
208.125726
 20
-51.505810
 30
0.0
 11
205.461440
 21
-51.505810
 31
0.0
  0
LINE
  5
363
100
AcDbEntity
  8
Calque_1
 62
1
100
AcDbLine
 10
205.461440
 20
-51.505810
 30
0.0
 11
205.461440
 21
-44.755810
 31
0.0
  0
LINE
  5
364
100
AcDbEntity
  8
Calque_1
 62
1
100
AcDbLine
 10
205.461440
 20
-44.755810
 30
0.0
 11
202.461440
 21
-44.755810
 31
0.0
  0
LINE
  5
365
100
AcDbEntity
  8
Calque_1
 62
1
100
AcDbLine
 10
202.461440
 20
-44.755810
 30
0.0
 11
202.461440
 21
-37.855810
 31
0.0
  0
LINE
  5
366
100
AcDbEntity
  8
Calque_1
 62
1
100
AcDbLine
 10
202.461440
 20
-37.855810
 30
0.0
 11
205.461440
 21
-37.855810
 31
0.0
  0
LINE
  5
367
100
AcDbEntity
  8
Calque_1
 62
1
100
AcDbLine
 10
205.461440
 20
-37.855810
 30
0.0
 11
205.461440
 21
-31.155810
 31
0.0
  0
LINE
  5
368
100
AcDbEntity
  8
Calque_1
 62
1
100
AcDbLine
 10
205.461440
 20
-31.155810
 30
0.0
 11
202.461440
 21
-31.155810
 31
0.0
  0
LINE
  5
369
100
AcDbEntity
  8
Calque_1
 62
1
100
AcDbLine
 10
202.461440
 20
-31.155810
 30
0.0
 11
202.461440
 21
-24.255810
 31
0.0
  0
LINE
  5
36a
100
AcDbEntity
  8
Calque_1
 62
1
100
AcDbLine
 10
202.461440
 20
-24.255810
 30
0.0
 11
205.461440
 21
-24.255810
 31
0.0
  0
LINE
  5
36b
100
AcDbEntity
  8
Calque_1
 62
1
100
AcDbLine
 10
205.461440
 20
-24.255810
 30
0.0
 11
205.461440
 21
-17.505810
 31
0.0
  0
ENDSEC
  0
SECTION
  2
OBJECTS
  0
DICTIONARY
  5
C
330
0
100
AcDbDictionary
  3
ACAD_GROUP
350
D
  3
ACAD_MLINESTYLE
350
17
  0
DICTIONARY
  5
D
330
C
100
AcDbDictionary
  0
DICTIONARY
  5
1A
330
C
100
AcDbDictionary
  0
DICTIONARY
  5
17
330
C
100
AcDbDictionary
  3
STANDARD
350
18
  0
DICTIONARY
  5
19
330
C
100
AcDbDictionary
  0
ENDSEC
  0
EOF
