  0
SECTION
  2
HEADER
  9
$ACADVER
  1
AC1014
  9
$HANDSEED
  5
FFFF
  9
$MEASUREMENT
 70
     1
  0
ENDSEC
  0
SECTION
  2
TABLES
  0
TABLE
  2
VPORT
  5
8
330
0
100
AcDbSymbolTable
 70
     4
  0
VPORT
  5
2E
330
8
100
AcDbSymbolTableRecord
100
AcDbViewportTableRecord
  2
*ACTIVE
 70
     0
 10
0.0
 20
0.0
 11
1.0
 21
1.0
 12
210.0
 22
148.5
 13
0.0
 23
0.0
 14
10.0
 24
10.0
 15
10.0
 25
10.0
 16
0.0
 26
0.0
 36
1.0
 17
0.0
 27
0.0
 37
0.0
 40
341.0
 41
1.24
 42
50.0
 43
0.0
 44
0.0
 50
0.0
 51
0.0
 71
     0
 72
   100
 73
     1
 74
     3
 75
     0
 76
     0
 77
     0
 78
     0
  0
ENDTAB
  0
TABLE
  2
LTYPE
  5
5
330
0
100
AcDbSymbolTable
 70
     1
  0
LTYPE
  5
14
330
5
100
AcDbSymbolTableRecord
100
AcDbLinetypeTableRecord
  2
BYBLOCK
 70
     0
  3

 72
    65
 73
     0
 40
0.0
  0
LTYPE
  5
15
330
5
100
AcDbSymbolTableRecord
100
AcDbLinetypeTableRecord
  2
BYLAYER
 70
     0
  3

 72
    65
 73
     0
 40
0.0
  0
LTYPE
  5
16
330
5
100
AcDbSymbolTableRecord
100
AcDbLinetypeTableRecord
  2
CONTINUOUS
 70
     0
  3
Solid line
 72
    65
 73
     0
 40
0.0
  0
ENDTAB
  0
TABLE
  2
LAYER
  5
2
100
AcDbSymbolTable
 70
2
  0
LAYER
  5
50
100
AcDbSymbolTableRecord
100
AcDbLayerTableRecord
  2
0
 70
0
  6
CONTINUOUS
  0
LAYER
  5
51
100
AcDbSymbolTableRecord
100
AcDbLayerTableRecord
  2
Calque_1
 70
0
  6
CONTINUOUS
  0
ENDTAB
  0
TABLE
  2
STYLE
  5
3
330
0
100
AcDbSymbolTable
 70
     1
  0
STYLE
  5
11
330
3
100
AcDbSymbolTableRecord
100
AcDbTextStyleTableRecord
  2
STANDARD
 70
     0
 40
0.0
 41
1.0
 50
0.0
 71
     0
 42
2.5
  3
txt
  4

  0
ENDTAB
  0
TABLE
  2
VIEW
  5
6
330
0
100
AcDbSymbolTable
 70
     0
  0
ENDTAB
  0
TABLE
  2
UCS
  5
7
330
0
100
AcDbSymbolTable
 70
     0
  0
ENDTAB
  0
TABLE
  2
APPID
  5
9
330
0
100
AcDbSymbolTable
 70
     2
  0
APPID
  5
12
330
9
100
AcDbSymbolTableRecord
100
AcDbRegAppTableRecord
  2
ACAD
 70
     0
  0
ENDTAB
  0
TABLE
  2
DIMSTYLE
  5
A
330
0
100
AcDbSymbolTable
 70
     1
  0
DIMSTYLE
105
27
330
A
100
AcDbSymbolTableRecord
100
AcDbDimStyleTableRecord
  2
ISO-25
 70
     0
  3

  4

  5

  6

  7

 40
1.0
 41
2.5
 42
0.625
 43
3.75
 44
1.25
 45
0.0
 46
0.0
 47
0.0
 48
0.0
140
2.5
141
2.5
142
0.0
143
0.03937007874016
144
1.0
145
0.0
146
1.0
147
0.625
 71
     0
 72
     0
 73
     0
 74
     0
 75
     0
 76
     0
 77
     1
 78
     8
170
     0
171
     3
172
     1
173
     0
174
     0
175
     0
176
     0
177
     0
178
     0
270
     2
271
     2
272
     2
273
     2
274
     3
340
11
275
     0
280
     0
281
     0
282
     0
283
     0
284
     8
285
     0
286
     0
287
     3
288
     0
  0
ENDTAB
  0
TABLE
  2
BLOCK_RECORD
  5
1
330
0
100
AcDbSymbolTable
 70
     1
  0
BLOCK_RECORD
  5
1F
330
1
100
AcDbSymbolTableRecord
100
AcDbBlockTableRecord
  2
*MODEL_SPACE
  0
BLOCK_RECORD
  5
1B
330
1
100
AcDbSymbolTableRecord
100
AcDbBlockTableRecord
  2
*PAPER_SPACE
  0
ENDTAB
  0
ENDSEC
  0
SECTION
  2
BLOCKS
  0
BLOCK
  5
20
330
1F
100
AcDbEntity
  8
0
100
AcDbBlockBegin
  2
*MODEL_SPACE
 70
     0
 10
0.0
 20
0.0
 30
0.0
  3
*MODEL_SPACE
  1

  0
ENDBLK
  5
21
330
1F
100
AcDbEntity
  8
0
100
AcDbBlockEnd
  0
BLOCK
  5
1C
330
1B
100
AcDbEntity
 67
     1
  8
0
100
AcDbBlockBegin
  2
*PAPER_SPACE
  1

  0
ENDBLK
  5
1D
330
1B
100
AcDbEntity
 67
     1
  8
0
100
AcDbBlockEnd
  0
ENDSEC
  0
SECTION
  2
ENTITIES
  0
SPLINE
  5
100
100
AcDbEntity
  8
Calque_1
 62
7
100
AcDbSpline
 70
0
 71
3
 72
25
 73
21
 74
19
 40
0.000000
 40
0.000000
 40
0.000000
 40
0.000000
 40
0.710447
 40
1.473099
 40
2.334111
 40
3.290785
 40
4.314321
 40
5.387555
 40
6.460790
 40
7.484325
 40
8.440999
 40
9.302011
 40
10.064662
 40
10.775110
 40
12.241428
 40
14.005310
 40
16.116869
 40
18.228428
 40
19.992311
 40
21.458629
 40
21.458629
 40
21.458629
 40
21.458629
 10
35.452960
 20
89.494800
 30
0.0
 10
35.423542
 20
89.256769
 30
0.0
 10
35.362543
 20
88.763216
 30
0.0
 10
34.905495
 20
88.102519
 30
0.0
 10
34.239686
 20
87.549780
 30
0.0
 10
33.379846
 20
87.132107
 30
0.0
 10
32.390912
 20
86.870834
 30
0.0
 10
31.332713
 20
86.781690
 30
0.0
 10
30.274733
 20
86.870832
 30
0.0
 10
29.285188
 20
87.132116
 30
0.0
 10
28.427356
 20
87.549751
 30
0.0
 10
27.755124
 20
88.102611
 30
0.0
 10
27.318475
 20
88.762924
 30
0.0
 10
27.103535
 20
89.749513
 30
0.0
 10
27.728583
 20
91.054965
 30
0.0
 10
29.327745
 20
91.962127
 30
0.0
 10
31.340396
 20
92.295314
 30
0.0
 10
33.309690
 20
91.961662
 30
0.0
 10
35.012168
 20
91.056371
 30
0.0
 10
35.315339
 20
89.982344
 30
0.0
 10
35.452960
 20
89.494800
 30
0.0
 11
35.452960
 21
89.494800
 31
0.0
 11
35.311800
 21
88.798517
 31
0.0
 11
34.902467
 21
88.155025
 31
0.0
 11
34.246180
 21
87.597682
 31
0.0
 11
33.390262
 21
87.170332
 31
0.0
 11
32.402041
 21
86.903789
 31
0.0
 11
31.332750
 21
86.811870
 31
0.0
 11
30.263459
 21
86.903789
 31
0.0
 11
29.275239
 21
87.170332
 31
0.0
 11
28.419321
 21
87.597682
 31
0.0
 11
27.763034
 21
88.155025
 31
0.0
 11
27.353701
 21
88.798518
 31
0.0
 11
27.212541
 21
89.494800
 31
0.0
 11
27.775074
 21
90.848922
 31
0.0
 11
29.253205
 21
91.811423
 31
0.0
 11
31.332750
 21
92.177720
 31
0.0
 11
33.412296
 21
91.811423
 31
0.0
 11
34.890427
 21
90.848922
 31
0.0
 11
35.452960
 21
89.494800
 31
0.0
  0
LWPOLYLINE
  5
101
100
AcDbEntity
  8
Calque_1
 62
7
100
AcDbPolyline
 90
1
 70
1
 10
35.452960
 20
89.494800
 30
0.0
  0
LWPOLYLINE
  5
102
100
AcDbEntity
  8
Calque_1
 62
7
100
AcDbPolyline
 90
1
 70
1
 10
208.979570
 20
80.059510
 30
0.0
  0
LWPOLYLINE
  5
103
100
AcDbEntity
  8
Calque_1
 62
7
100
AcDbPolyline
 90
9
 70
1
 10
316.017626
 20
122.822786
 30
0.0
 10
313.979574
 20
122.817899
 30
0.0
 10
310.070093
 20
111.487757
 30
0.0
 10
311.833659
 20
111.487757
 30
0.0
 10
312.763801
 20
114.166790
 30
0.0
 10
316.953951
 20
114.176569
 30
0.0
 10
319.249402
 20
107.391958
 30
0.0
 10
321.489669
 20
107.388281
 30
0.0
 10
316.017626
 20
122.821495
 30
0.0
  0
LWPOLYLINE
  5
104
100
AcDbEntity
  8
Calque_1
 62
7
100
AcDbPolyline
 90
4
 70
1
 10
314.864407
 20
120.197687
 30
0.0
 10
316.376716
 20
115.839633
 30
0.0
 10
313.358218
 20
115.832293
 30
0.0
 10
314.864407
 20
120.197655
 30
0.0
  0
SPLINE
  5
105
100
AcDbEntity
  8
Calque_1
 62
7
100
AcDbSpline
 70
0
 71
3
 72
25
 73
21
 74
19
 40
0.000000
 40
0.000000
 40
0.000000
 40
0.000000
 40
1.447917
 40
2.852889
 40
4.300806
 40
5.748724
 40
7.153696
 40
8.601613
 40
9.326529
 40
10.045447
 40
10.770363
 40
11.495280
 40
12.214197
 40
12.939114
 40
13.664030
 40
14.382948
 40
15.107864
 40
15.832781
 40
16.551698
 40
17.276615
 40
17.276615
 40
17.276615
 40
17.276615
 10
208.979570
 20
80.059510
 30
0.0
 10
208.903457
 20
79.571338
 30
0.0
 10
208.753490
 20
78.609474
 30
0.0
 10
207.651022
 20
77.550575
 30
0.0
 10
206.212852
 20
77.158093
 30
0.0
 10
204.759757
 20
77.550891
 30
0.0
 10
203.701179
 20
78.608239
 30
0.0
 10
203.376129
 20
79.819528
 30
0.0
 10
203.505029
 20
80.784179
 30
0.0
 10
203.784554
 20
81.460042
 30
0.0
 10
204.229588
 20
82.040256
 30
0.0
 10
204.809890
 20
82.485252
 30
0.0
 10
205.485356
 20
82.765029
 30
0.0
 10
206.210328
 20
82.860743
 30
0.0
 10
206.935372
 20
82.765030
 30
0.0
 10
207.610622
 20
82.485246
 30
0.0
 10
208.191722
 20
82.040279
 30
0.0
 10
208.633783
 20
81.459956
 30
0.0
 10
208.924344
 20
80.784498
 30
0.0
 10
208.961110
 20
80.301841
 30
0.0
 10
208.979570
 20
80.059510
 30
0.0
 11
208.979570
 21
80.059510
 31
0.0
 11
208.601489
 21
78.661827
 31
0.0
 11
207.608023
 21
77.668361
 31
0.0
 11
206.210340
 21
77.290280
 31
0.0
 11
204.812657
 21
77.668361
 31
0.0
 11
203.819191
 21
78.661827
 31
0.0
 11
203.441110
 21
80.059510
 31
0.0
 11
203.535983
 21
80.778191
 31
0.0
 11
203.811099
 21
81.442385
 31
0.0
 11
204.252195
 21
82.017658
 31
0.0
 11
204.827466
 21
82.458756
 31
0.0
 11
205.491659
 21
82.733874
 31
0.0
 11
206.210340
 21
82.828750
 31
0.0
 11
206.929021
 21
82.733874
 31
0.0
 11
207.593214
 21
82.458756
 31
0.0
 11
208.168485
 21
82.017658
 31
0.0
 11
208.609581
 21
81.442385
 31
0.0
 11
208.884697
 21
80.778191
 31
0.0
 11
208.979570
 21
80.059510
 31
0.0
  0
SPLINE
  5
106
100
AcDbEntity
  8
Calque_1
 62
7
100
AcDbSpline
 70
0
 71
3
 72
10
 73
6
 74
4
 40
0.000000
 40
0.000000
 40
0.000000
 40
0.000000
 40
2.289701
 40
4.011494
 40
5.653489
 40
5.653489
 40
5.653489
 40
5.653489
 10
325.635877
 20
115.818664
 30
0.0
 10
326.471527
 20
115.963606
 30
0.0
 10
327.935563
 20
116.217539
 30
0.0
 10
328.252436
 20
118.609647
 30
0.0
 10
327.224655
 20
119.233606
 30
0.0
 10
326.722956
 20
119.538184
 30
0.0
 11
325.635877
 21
115.818664
 31
0.0
 11
327.739102
 21
116.723746
 31
0.0
 11
327.938231
 21
118.433985
 31
0.0
 11
326.722956
 21
119.538184
 31
0.0
  0
LWPOLYLINE
  5
107
100
AcDbEntity
  8
Calque_1
 62
7
100
AcDbPolyline
 90
3
 70
0
 10
322.188154
 20
123.070495
 30
0.0
 10
322.196986
 20
115.815297
 30
0.0
 10
325.635877
 20
115.818664
 30
0.0
  0
SPLINE
  5
108
100
AcDbEntity
  8
Calque_1
 62
7
100
AcDbSpline
 70
0
 71
3
 72
10
 73
6
 74
4
 40
0.000000
 40
0.000000
 40
0.000000
 40
0.000000
 40
1.561741
 40
3.109159
 40
4.642940
 40
4.642940
 40
4.642940
 40
4.642940
 10
326.722956
 20
119.538184
 30
0.0
 10
327.120970
 20
119.908291
 30
0.0
 10
327.913346
 20
120.645110
 30
0.0
 10
327.634075
 20
122.524271
 30
0.0
 10
326.602736
 20
122.888758
 30
0.0
 10
326.089349
 20
123.070195
 30
0.0
 11
326.722956
 21
119.538184
 31
0.0
 11
327.669888
 21
120.780100
 31
0.0
 11
327.419877
 21
122.307188
 31
0.0
 11
326.089349
 21
123.070195
 31
0.0
  0
LWPOLYLINE
  5
109
100
AcDbEntity
  8
Calque_1
 62
7
100
AcDbPolyline
 90
2
 70
0
 10
326.089349
 20
123.070195
 30
0.0
 10
322.188154
 20
123.070495
 30
0.0
  0
LWPOLYLINE
  5
10a
100
AcDbEntity
  8
Calque_1
 62
7
100
AcDbPolyline
 90
4
 70
0
 10
325.551062
 20
120.038521
 30
0.0
 10
323.611000
 20
120.038521
 30
0.0
 10
323.611000
 20
121.852311
 30
0.0
 10
325.551062
 20
121.853534
 30
0.0
  0
SPLINE
  5
10b
100
AcDbEntity
  8
Calque_1
 62
7
100
AcDbSpline
 70
0
 71
3
 72
10
 73
6
 74
4
 40
0.000000
 40
0.000000
 40
0.000000
 40
0.000000
 40
0.851495
 40
1.723252
 40
2.577627
 40
2.577627
 40
2.577627
 40
2.577627
 10
325.551062
 20
121.853534
 30
0.0
 10
325.834025
 20
121.738602
 30
0.0
 10
326.406684
 20
121.506001
 30
0.0
 10
326.409875
 20
120.386983
 30
0.0
 10
325.835405
 20
120.153893
 30
0.0
 10
325.551062
 20
120.038521
 30
0.0
 11
325.551062
 21
121.853534
 31
0.0
 11
326.260654
 21
121.382871
 31
0.0
 11
326.262827
 21
120.511117
 31
0.0
 11
325.551062
 21
120.038521
 31
0.0
  0
LWPOLYLINE
  5
10c
100
AcDbEntity
  8
Calque_1
 62
7
100
AcDbPolyline
 90
2
 70
0
 10
323.617141
 20
118.920803
 30
0.0
 10
325.775317
 20
118.920803
 30
0.0
  0
SPLINE
  5
10d
100
AcDbEntity
  8
Calque_1
 62
7
100
AcDbSpline
 70
0
 71
3
 72
10
 73
6
 74
4
 40
0.000000
 40
0.000000
 40
0.000000
 40
0.000000
 40
0.907534
 40
1.792379
 40
2.696673
 40
2.696673
 40
2.696673
 40
2.696673
 10
325.775317
 20
118.920803
 30
0.0
 10
326.080329
 20
118.798035
 30
0.0
 10
326.682727
 20
118.555570
 30
0.0
 10
326.652108
 20
117.400249
 30
0.0
 10
326.069691
 20
117.142789
 30
0.0
 10
325.775317
 20
117.012660
 30
0.0
 11
325.775317
 21
118.920803
 31
0.0
 11
326.530699
 21
118.417796
 31
0.0
 11
326.514842
 21
117.533092
 31
0.0
 11
325.775317
 21
117.012660
 31
0.0
  0
LWPOLYLINE
  5
10e
100
AcDbEntity
  8
Calque_1
 62
7
100
AcDbPolyline
 90
3
 70
0
 10
325.775317
 20
117.012660
 30
0.0
 10
323.609780
 20
117.012660
 30
0.0
 10
323.617141
 20
118.920803
 30
0.0
  0
SPLINE
  5
10f
100
AcDbEntity
  8
Calque_1
 62
7
100
AcDbSpline
 70
0
 71
3
 72
10
 73
6
 74
4
 40
0.000000
 40
0.000000
 40
0.000000
 40
0.000000
 40
0.741338
 40
1.460866
 40
2.202207
 40
2.202207
 40
2.202207
 40
2.202207
 10
304.864134
 20
126.232411
 30
0.0
 10
304.615699
 20
126.193374
 30
0.0
 10
304.126137
 20
126.116449
 30
0.0
 10
303.562053
 20
125.552364
 30
0.0
 10
303.485129
 20
125.062802
 30
0.0
 10
303.446092
 20
124.814366
 30
0.0
 11
304.864134
 21
126.232411
 31
0.0
 11
304.148538
 21
126.038748
 31
0.0
 11
303.639755
 21
125.529964
 31
0.0
 11
303.446092
 21
124.814366
 31
0.0
  0
LWPOLYLINE
  5
110
100
AcDbEntity
  8
Calque_1
 62
7
100
AcDbPolyline
 90
2
 70
0
 10
303.446092
 20
124.814366
 30
0.0
 10
303.446092
 20
100.173970
 30
0.0
  0
SPLINE
  5
111
100
AcDbEntity
  8
Calque_1
 62
7
100
AcDbSpline
 70
0
 71
3
 72
10
 73
6
 74
4
 40
0.000000
 40
0.000000
 40
0.000000
 40
0.000000
 40
0.741303
 40
1.460821
 40
2.202158
 40
2.202158
 40
2.202158
 40
2.202158
 10
303.446092
 20
100.173970
 30
0.0
 10
303.485131
 20
99.925547
 30
0.0
 10
303.562060
 20
99.436002
 30
0.0
 10
304.126143
 20
98.871942
 30
0.0
 10
304.615699
 20
98.795018
 30
0.0
 10
304.864134
 20
98.755981
 30
0.0
 11
303.446092
 21
100.173970
 31
0.0
 11
303.639755
 21
99.458411
 31
0.0
 11
304.148538
 21
98.949642
 31
0.0
 11
304.864134
 21
98.755981
 31
0.0
  0
LWPOLYLINE
  5
112
100
AcDbEntity
  8
Calque_1
 62
7
100
AcDbPolyline
 90
2
 70
0
 10
304.864134
 20
98.755981
 30
0.0
 10
329.556568
 20
98.755981
 30
0.0
  0
SPLINE
  5
113
100
AcDbEntity
  8
Calque_1
 62
7
100
AcDbSpline
 70
0
 71
3
 72
10
 73
6
 74
4
 40
0.000000
 40
0.000000
 40
0.000000
 40
0.000000
 40
0.741323
 40
1.460838
 40
2.202140
 40
2.202140
 40
2.202140
 40
2.202140
 10
329.556568
 20
98.755981
 30
0.0
 10
329.804997
 20
98.795018
 30
0.0
 10
330.294547
 20
98.871944
 30
0.0
 10
330.858621
 20
99.436004
 30
0.0
 10
330.935550
 20
99.925548
 30
0.0
 10
330.974588
 20
100.173970
 30
0.0
 11
329.556568
 21
98.755981
 31
0.0
 11
330.272149
 21
98.949642
 31
0.0
 11
330.780926
 21
99.458411
 31
0.0
 11
330.974588
 21
100.173970
 31
0.0
  0
LWPOLYLINE
  5
114
100
AcDbEntity
  8
Calque_1
 62
7
100
AcDbPolyline
 90
2
 70
0
 10
330.974588
 20
100.173970
 30
0.0
 10
330.974588
 20
124.814366
 30
0.0
  0
LWPOLYLINE
  5
115
100
AcDbEntity
  8
Calque_1
 62
7
100
AcDbPolyline
 90
2
 70
0
 10
329.556568
 20
126.232411
 30
0.0
 10
304.864134
 20
126.232411
 30
0.0
  0
SPLINE
  5
116
100
AcDbEntity
  8
Calque_1
 62
7
100
AcDbSpline
 70
0
 71
3
 72
10
 73
6
 74
4
 40
0.000000
 40
0.000000
 40
0.000000
 40
0.000000
 40
0.741340
 40
1.460865
 40
2.202189
 40
2.202189
 40
2.202189
 40
2.202189
 10
330.974588
 20
124.814366
 30
0.0
 10
330.935552
 20
125.062802
 30
0.0
 10
330.858628
 20
125.552362
 30
0.0
 10
330.294553
 20
126.116447
 30
0.0
 10
329.804998
 20
126.193373
 30
0.0
 10
329.556568
 20
126.232411
 30
0.0
 11
330.974588
 21
124.814366
 31
0.0
 11
330.780926
 21
125.529964
 31
0.0
 11
330.272149
 21
126.038748
 31
0.0
 11
329.556568
 21
126.232411
 31
0.0
  0
SPLINE
  5
117
100
AcDbEntity
  8
Calque_1
 62
7
100
AcDbSpline
 70
0
 71
3
 72
10
 73
6
 74
4
 40
0.000000
 40
0.000000
 40
0.000000
 40
0.000000
 40
2.289729
 40
4.011530
 40
5.653540
 40
5.653540
 40
5.653540
 40
5.653540
 10
325.669924
 20
107.394414
 30
0.0
 10
326.505583
 20
107.539361
 30
0.0
 10
327.969629
 20
107.793304
 30
0.0
 10
328.286509
 20
110.185433
 30
0.0
 10
327.258712
 20
110.809386
 30
0.0
 10
326.757004
 20
111.113962
 30
0.0
 11
325.669924
 21
107.394414
 31
0.0
 11
327.773171
 21
108.299518
 31
0.0
 11
327.972299
 21
110.009766
 31
0.0
 11
326.757004
 21
111.113962
 31
0.0
  0
LWPOLYLINE
  5
118
100
AcDbEntity
  8
Calque_1
 62
7
100
AcDbPolyline
 90
3
 70
0
 10
322.222580
 20
114.645970
 30
0.0
 10
322.231097
 20
107.390736
 30
0.0
 10
325.669924
 20
107.394414
 30
0.0
  0
SPLINE
  5
119
100
AcDbEntity
  8
Calque_1
 62
7
100
AcDbSpline
 70
0
 71
3
 72
10
 73
6
 74
4
 40
0.000000
 40
0.000000
 40
0.000000
 40
0.000000
 40
1.561770
 40
3.109191
 40
4.642981
 40
4.642981
 40
4.642981
 40
4.642981
 10
326.757004
 20
111.113962
 30
0.0
 10
327.155027
 20
111.484074
 30
0.0
 10
327.947415
 20
112.220897
 30
0.0
 10
327.668147
 20
114.100083
 30
0.0
 10
326.636793
 20
114.464551
 30
0.0
 10
326.123397
 20
114.645978
 30
0.0
 11
326.757004
 21
111.113962
 31
0.0
 11
327.703956
 21
112.355900
 31
0.0
 11
327.453946
 21
113.882990
 31
0.0
 11
326.123397
 21
114.645978
 31
0.0
  0
LWPOLYLINE
  5
11a
100
AcDbEntity
  8
Calque_1
 62
7
100
AcDbPolyline
 90
2
 70
0
 10
326.123397
 20
114.645978
 30
0.0
 10
322.222580
 20
114.645970
 30
0.0
  0
LWPOLYLINE
  5
11b
100
AcDbEntity
  8
Calque_1
 62
7
100
AcDbPolyline
 90
4
 70
0
 10
325.585425
 20
111.613988
 30
0.0
 10
323.645427
 20
111.613988
 30
0.0
 10
323.645427
 20
113.427786
 30
0.0
 10
325.585425
 20
113.429009
 30
0.0
  0
SPLINE
  5
11c
100
AcDbEntity
  8
Calque_1
 62
7
100
AcDbSpline
 70
0
 71
3
 72
10
 73
6
 74
4
 40
0.000000
 40
0.000000
 40
0.000000
 40
0.000000
 40
0.851597
 40
1.723295
 40
2.577658
 40
2.577658
 40
2.577658
 40
2.577658
 10
325.585425
 20
113.429009
 30
0.0
 10
325.868401
 20
113.314031
 30
0.0
 10
326.441031
 20
113.081362
 30
0.0
 10
326.444281
 20
111.962357
 30
0.0
 10
325.869787
 20
111.729331
 30
0.0
 10
325.585425
 20
111.613988
 30
0.0
 11
325.585425
 21
113.429009
 31
0.0
 11
326.295045
 21
112.958204
 31
0.0
 11
326.297225
 21
112.086509
 31
0.0
 11
325.585425
 21
111.613988
 31
0.0
  0
LWPOLYLINE
  5
11d
100
AcDbEntity
  8
Calque_1
 62
7
100
AcDbPolyline
 90
2
 70
0
 10
323.651546
 20
110.496309
 30
0.0
 10
325.809743
 20
110.496309
 30
0.0
  0
LWPOLYLINE
  5
11e
100
AcDbEntity
  8
Calque_1
 62
7
100
AcDbPolyline
 90
3
 70
0
 10
325.809743
 20
108.588129
 30
0.0
 10
323.644207
 20
108.588129
 30
0.0
 10
323.651546
 20
110.496309
 30
0.0
  0
LWPOLYLINE
  5
11f
100
AcDbEntity
  8
Calque_1
 62
7
100
AcDbPolyline
 90
10
 70
1
 10
306.577648
 20
122.972476
 30
0.0
 10
311.448271
 20
122.965441
 30
0.0
 10
311.451948
 20
121.722371
 30
0.0
 10
307.995919
 20
121.729405
 30
0.0
 10
307.992241
 20
119.863087
 30
0.0
 10
310.877555
 20
119.859416
 30
0.0
 10
310.877555
 20
118.717912
 30
0.0
 10
307.995753
 20
118.717912
 30
0.0
 10
307.995753
 20
115.713574
 30
0.0
 10
306.577648
 20
115.713574
 30
0.0
  0
LWPOLYLINE
  5
120
100
AcDbEntity
  8
Calque_1
 62
7
100
AcDbPolyline
 90
6
 70
1
 10
306.573971
 20
114.642301
 30
0.0
 10
307.974652
 20
114.642301
 30
0.0
 10
307.974652
 20
108.633596
 30
0.0
 10
311.686282
 20
108.633596
 30
0.0
 10
311.686282
 20
107.397560
 30
0.0
 10
306.577514
 20
107.397560
 30
0.0
  0
LWPOLYLINE
  5
121
100
AcDbEntity
  8
Calque_1
 62
7
100
AcDbPolyline
 90
3
 70
0
 10
306.692380
 20
105.350679
 30
0.0
 10
306.692380
 20
101.699588
 30
0.0
 10
308.744665
 20
101.699588
 30
0.0
  0
LWPOLYLINE
  5
122
100
AcDbEntity
  8
Calque_1
 62
7
100
AcDbPolyline
 90
2
 70
0
 10
310.454902
 20
105.350679
 30
0.0
 10
309.086712
 20
101.699588
 30
0.0
  0
LWPOLYLINE
  5
123
100
AcDbEntity
  8
Calque_1
 62
7
100
AcDbPolyline
 90
2
 70
0
 10
310.454902
 20
105.350679
 30
0.0
 10
311.823092
 20
101.699588
 30
0.0
  0
LWPOLYLINE
  5
124
100
AcDbEntity
  8
Calque_1
 62
7
100
AcDbPolyline
 90
2
 70
0
 10
309.599783
 20
102.916618
 30
0.0
 10
311.310021
 20
102.916618
 30
0.0
  0
LWPOLYLINE
  5
125
100
AcDbEntity
  8
Calque_1
 62
7
100
AcDbPolyline
 90
2
 70
0
 10
312.678211
 20
105.350679
 30
0.0
 10
312.678211
 20
101.699588
 30
0.0
  0
LWPOLYLINE
  5
126
100
AcDbEntity
  8
Calque_1
 62
7
100
AcDbPolyline
 90
2
 70
0
 10
312.678211
 20
105.350679
 30
0.0
 10
315.072543
 20
101.699588
 30
0.0
  0
LWPOLYLINE
  5
127
100
AcDbEntity
  8
Calque_1
 62
7
100
AcDbPolyline
 90
2
 70
0
 10
315.072543
 20
105.350679
 30
0.0
 10
315.072543
 20
101.699588
 30
0.0
  0
LWPOLYLINE
  5
128
100
AcDbEntity
  8
Calque_1
 62
7
100
AcDbPolyline
 90
2
 70
0
 10
316.440733
 20
105.350679
 30
0.0
 10
316.440733
 20
101.699588
 30
0.0
  0
LWPOLYLINE
  5
129
100
AcDbEntity
  8
Calque_1
 62
7
100
AcDbPolyline
 90
2
 70
0
 10
316.440733
 20
105.350679
 30
0.0
 10
318.835066
 20
101.699588
 30
0.0
  0
LWPOLYLINE
  5
12a
100
AcDbEntity
  8
Calque_1
 62
7
100
AcDbPolyline
 90
2
 70
0
 10
318.835066
 20
105.350679
 30
0.0
 10
318.835066
 20
101.699588
 30
0.0
  0
LWPOLYLINE
  5
12b
100
AcDbEntity
  8
Calque_1
 62
7
100
AcDbPolyline
 90
2
 70
0
 10
320.203256
 20
105.350679
 30
0.0
 10
320.203256
 20
101.699588
 30
0.0
  0
LWPOLYLINE
  5
12c
100
AcDbEntity
  8
Calque_1
 62
7
100
AcDbPolyline
 90
20
 70
1
 10
322.426564
 20
105.350679
 30
0.0
 10
322.084517
 20
105.176817
 30
0.0
 10
321.742469
 20
104.829094
 30
0.0
 10
321.571446
 20
104.481372
 30
0.0
 10
321.400422
 20
103.959787
 30
0.0
 10
321.400422
 20
103.090480
 30
0.0
 10
321.571446
 20
102.568896
 30
0.0
 10
321.742469
 20
102.221173
 30
0.0
 10
322.084517
 20
101.873450
 30
0.0
 10
322.426564
 20
101.699588
 30
0.0
 10
323.110659
 20
101.699588
 30
0.0
 10
323.452707
 20
101.873450
 30
0.0
 10
323.794754
 20
102.221173
 30
0.0
 10
323.965778
 20
102.568896
 30
0.0
 10
324.136802
 20
103.090480
 30
0.0
 10
324.136802
 20
103.959787
 30
0.0
 10
323.965778
 20
104.481372
 30
0.0
 10
323.794754
 20
104.829094
 30
0.0
 10
323.452707
 20
105.176817
 30
0.0
 10
323.110659
 20
105.350679
 30
0.0
  0
LWPOLYLINE
  5
12d
100
AcDbEntity
  8
Calque_1
 62
7
100
AcDbPolyline
 90
2
 70
0
 10
325.333968
 20
105.350679
 30
0.0
 10
325.333968
 20
101.699588
 30
0.0
  0
LWPOLYLINE
  5
12e
100
AcDbEntity
  8
Calque_1
 62
7
100
AcDbPolyline
 90
2
 70
0
 10
325.333968
 20
105.350679
 30
0.0
 10
327.728300
 20
101.699588
 30
0.0
  0
LWPOLYLINE
  5
12f
100
AcDbEntity
  8
Calque_1
 62
7
100
AcDbPolyline
 90
2
 70
0
 10
327.728300
 20
105.350679
 30
0.0
 10
327.728300
 20
101.699588
 30
0.0
  0
LWPOLYLINE
  5
130
100
AcDbEntity
  8
Calque_1
 62
1
100
AcDbPolyline
 90
109
 70
1
 10
152.210339
 20
132.494191
 30
0.0
 10
157.403197
 20
132.494191
 30
0.0
 10
157.403197
 20
129.494191
 30
0.0
 10
162.446054
 20
129.494191
 30
0.0
 10
162.446054
 20
132.494191
 30
0.0
 10
167.688911
 20
132.494191
 30
0.0
 10
167.688911
 20
129.494191
 30
0.0
 10
172.731768
 20
129.494191
 30
0.0
 10
172.731768
 20
132.494191
 30
0.0
 10
177.974625
 20
132.494191
 30
0.0
 10
177.974625
 20
129.494191
 30
0.0
 10
183.017482
 20
129.494191
 30
0.0
 10
183.017482
 20
132.494191
 30
0.0
 10
188.260339
 20
132.494191
 30
0.0
 10
188.260339
 20
129.494191
 30
0.0
 10
193.303197
 20
129.494191
 30
0.0
 10
193.303197
 20
132.494191
 30
0.0
 10
198.546054
 20
132.494191
 30
0.0
 10
198.546054
 20
129.494191
 30
0.0
 10
203.588911
 20
129.494191
 30
0.0
 10
203.588911
 20
132.494191
 30
0.0
 10
208.831768
 20
132.494191
 30
0.0
 10
208.831768
 20
129.494191
 30
0.0
 10
213.874625
 20
129.494191
 30
0.0
 10
213.874625
 20
132.494191
 30
0.0
 10
219.117482
 20
132.494191
 30
0.0
 10
219.117482
 20
129.494191
 30
0.0
 10
224.160339
 20
129.494191
 30
0.0
 10
224.160339
 20
132.494191
 30
0.0
 10
229.403197
 20
132.494191
 30
0.0
 10
229.403197
 20
129.494191
 30
0.0
 10
234.446054
 20
129.494191
 30
0.0
 10
234.446054
 20
132.494191
 30
0.0
 10
239.688911
 20
132.494191
 30
0.0
 10
239.688911
 20
129.494191
 30
0.0
 10
244.731768
 20
129.494191
 30
0.0
 10
244.731768
 20
132.494191
 30
0.0
 10
249.974625
 20
132.494191
 30
0.0
 10
249.974625
 20
129.494191
 30
0.0
 10
255.017482
 20
129.494191
 30
0.0
 10
255.017482
 20
132.494191
 30
0.0
 10
260.210339
 20
132.494191
 30
0.0
 10
260.210339
 20
126.729906
 30
0.0
 10
257.210339
 20
126.729906
 30
0.0
 10
257.210339
 20
121.115620
 30
0.0
 10
260.210339
 20
121.115620
 30
0.0
 10
260.210339
 20
115.301334
 30
0.0
 10
257.210339
 20
115.301334
 30
0.0
 10
257.210339
 20
109.687048
 30
0.0
 10
260.210339
 20
109.687048
 30
0.0
 10
260.210339
 20
103.872763
 30
0.0
 10
257.210339
 20
103.872763
 30
0.0
 10
257.210339
 20
98.258477
 30
0.0
 10
260.210339
 20
98.258477
 30
0.0
 10
260.210339
 20
92.494191
 30
0.0
 10
255.017482
 20
92.494191
 30
0.0
 10
255.017482
 20
95.494191
 30
0.0
 10
249.974625
 20
95.494191
 30
0.0
 10
249.974625
 20
92.494191
 30
0.0
 10
244.731768
 20
92.494191
 30
0.0
 10
244.731768
 20
95.494191
 30
0.0
 10
239.688911
 20
95.494191
 30
0.0
 10
239.688911
 20
92.494191
 30
0.0
 10
234.446054
 20
92.494191
 30
0.0
 10
234.446054
 20
95.494191
 30
0.0
 10
229.403197
 20
95.494191
 30
0.0
 10
229.403197
 20
92.494191
 30
0.0
 10
224.160339
 20
92.494191
 30
0.0
 10
224.160339
 20
95.494191
 30
0.0
 10
219.117482
 20
95.494191
 30
0.0
 10
219.117482
 20
92.494191
 30
0.0
 10
213.874625
 20
92.494191
 30
0.0
 10
213.874625
 20
95.494191
 30
0.0
 10
208.831768
 20
95.494191
 30
0.0
 10
208.831768
 20
92.494191
 30
0.0
 10
203.588911
 20
92.494191
 30
0.0
 10
203.588911
 20
95.494191
 30
0.0
 10
198.546054
 20
95.494191
 30
0.0
 10
198.546054
 20
92.494191
 30
0.0
 10
193.303197
 20
92.494191
 30
0.0
 10
193.303197
 20
95.494191
 30
0.0
 10
188.260339
 20
95.494191
 30
0.0
 10
188.260339
 20
92.494191
 30
0.0
 10
183.017482
 20
92.494191
 30
0.0
 10
183.017482
 20
95.494191
 30
0.0
 10
177.974625
 20
95.494191
 30
0.0
 10
177.974625
 20
92.494191
 30
0.0
 10
172.731768
 20
92.494191
 30
0.0
 10
172.731768
 20
95.494191
 30
0.0
 10
167.688911
 20
95.494191
 30
0.0
 10
167.688911
 20
92.494191
 30
0.0
 10
162.446054
 20
92.494191
 30
0.0
 10
162.446054
 20
95.494191
 30
0.0
 10
157.403197
 20
95.494191
 30
0.0
 10
157.403197
 20
92.494191
 30
0.0
 10
152.210339
 20
92.494191
 30
0.0
 10
152.210339
 20
98.258477
 30
0.0
 10
155.210339
 20
98.258477
 30
0.0
 10
155.210339
 20
103.872763
 30
0.0
 10
152.210339
 20
103.872763
 30
0.0
 10
152.210339
 20
109.687048
 30
0.0
 10
155.210339
 20
109.687048
 30
0.0
 10
155.210339
 20
115.301334
 30
0.0
 10
152.210339
 20
115.301334
 30
0.0
 10
152.210339
 20
121.115620
 30
0.0
 10
155.210339
 20
121.115620
 30
0.0
 10
155.210339
 20
126.729906
 30
0.0
 10
152.210339
 20
126.729906
 30
0.0
 10
152.210339
 20
132.494191
 30
0.0
  0
LWPOLYLINE
  5
131
100
AcDbEntity
  8
Calque_1
 62
1
100
AcDbPolyline
 90
109
 70
1
 10
263.210339
 20
132.494191
 30
0.0
 10
268.403197
 20
132.494191
 30
0.0
 10
268.403197
 20
129.494191
 30
0.0
 10
273.446054
 20
129.494191
 30
0.0
 10
273.446054
 20
132.494191
 30
0.0
 10
278.688911
 20
132.494191
 30
0.0
 10
278.688911
 20
129.494191
 30
0.0
 10
283.731768
 20
129.494191
 30
0.0
 10
283.731768
 20
132.494191
 30
0.0
 10
288.974625
 20
132.494191
 30
0.0
 10
288.974625
 20
129.494191
 30
0.0
 10
294.017482
 20
129.494191
 30
0.0
 10
294.017482
 20
132.494191
 30
0.0
 10
299.260339
 20
132.494191
 30
0.0
 10
299.260339
 20
129.494191
 30
0.0
 10
304.303197
 20
129.494191
 30
0.0
 10
304.303197
 20
132.494191
 30
0.0
 10
309.546054
 20
132.494191
 30
0.0
 10
309.546054
 20
129.494191
 30
0.0
 10
314.588911
 20
129.494191
 30
0.0
 10
314.588911
 20
132.494191
 30
0.0
 10
319.831768
 20
132.494191
 30
0.0
 10
319.831768
 20
129.494191
 30
0.0
 10
324.874625
 20
129.494191
 30
0.0
 10
324.874625
 20
132.494191
 30
0.0
 10
330.117482
 20
132.494191
 30
0.0
 10
330.117482
 20
129.494191
 30
0.0
 10
335.160339
 20
129.494191
 30
0.0
 10
335.160339
 20
132.494191
 30
0.0
 10
340.403197
 20
132.494191
 30
0.0
 10
340.403197
 20
129.494191
 30
0.0
 10
345.446054
 20
129.494191
 30
0.0
 10
345.446054
 20
132.494191
 30
0.0
 10
350.688911
 20
132.494191
 30
0.0
 10
350.688911
 20
129.494191
 30
0.0
 10
355.731768
 20
129.494191
 30
0.0
 10
355.731768
 20
132.494191
 30
0.0
 10
360.974625
 20
132.494191
 30
0.0
 10
360.974625
 20
129.494191
 30
0.0
 10
366.017482
 20
129.494191
 30
0.0
 10
366.017482
 20
132.494191
 30
0.0
 10
371.210339
 20
132.494191
 30
0.0
 10
371.210339
 20
126.729906
 30
0.0
 10
368.210339
 20
126.729906
 30
0.0
 10
368.210339
 20
121.115620
 30
0.0
 10
371.210339
 20
121.115620
 30
0.0
 10
371.210339
 20
115.301334
 30
0.0
 10
368.210339
 20
115.301334
 30
0.0
 10
368.210339
 20
109.687048
 30
0.0
 10
371.210339
 20
109.687048
 30
0.0
 10
371.210339
 20
103.872763
 30
0.0
 10
368.210339
 20
103.872763
 30
0.0
 10
368.210339
 20
98.258477
 30
0.0
 10
371.210339
 20
98.258477
 30
0.0
 10
371.210339
 20
92.494191
 30
0.0
 10
366.017482
 20
92.494191
 30
0.0
 10
366.017482
 20
95.494191
 30
0.0
 10
360.974625
 20
95.494191
 30
0.0
 10
360.974625
 20
92.494191
 30
0.0
 10
355.731768
 20
92.494191
 30
0.0
 10
355.731768
 20
95.494191
 30
0.0
 10
350.688911
 20
95.494191
 30
0.0
 10
350.688911
 20
92.494191
 30
0.0
 10
345.446054
 20
92.494191
 30
0.0
 10
345.446054
 20
95.494191
 30
0.0
 10
340.403197
 20
95.494191
 30
0.0
 10
340.403197
 20
92.494191
 30
0.0
 10
335.160339
 20
92.494191
 30
0.0
 10
335.160339
 20
95.494191
 30
0.0
 10
330.117482
 20
95.494191
 30
0.0
 10
330.117482
 20
92.494191
 30
0.0
 10
324.874625
 20
92.494191
 30
0.0
 10
324.874625
 20
95.494191
 30
0.0
 10
319.831768
 20
95.494191
 30
0.0
 10
319.831768
 20
92.494191
 30
0.0
 10
314.588911
 20
92.494191
 30
0.0
 10
314.588911
 20
95.494191
 30
0.0
 10
309.546054
 20
95.494191
 30
0.0
 10
309.546054
 20
92.494191
 30
0.0
 10
304.303197
 20
92.494191
 30
0.0
 10
304.303197
 20
95.494191
 30
0.0
 10
299.260339
 20
95.494191
 30
0.0
 10
299.260339
 20
92.494191
 30
0.0
 10
294.017482
 20
92.494191
 30
0.0
 10
294.017482
 20
95.494191
 30
0.0
 10
288.974625
 20
95.494191
 30
0.0
 10
288.974625
 20
92.494191
 30
0.0
 10
283.731768
 20
92.494191
 30
0.0
 10
283.731768
 20
95.494191
 30
0.0
 10
278.688911
 20
95.494191
 30
0.0
 10
278.688911
 20
92.494191
 30
0.0
 10
273.446054
 20
92.494191
 30
0.0
 10
273.446054
 20
95.494191
 30
0.0
 10
268.403197
 20
95.494191
 30
0.0
 10
268.403197
 20
92.494191
 30
0.0
 10
263.210339
 20
92.494191
 30
0.0
 10
263.210339
 20
98.258477
 30
0.0
 10
266.210339
 20
98.258477
 30
0.0
 10
266.210339
 20
103.872763
 30
0.0
 10
263.210339
 20
103.872763
 30
0.0
 10
263.210339
 20
109.687048
 30
0.0
 10
266.210339
 20
109.687048
 30
0.0
 10
266.210339
 20
115.301334
 30
0.0
 10
263.210339
 20
115.301334
 30
0.0
 10
263.210339
 20
121.115620
 30
0.0
 10
266.210339
 20
121.115620
 30
0.0
 10
266.210339
 20
126.729906
 30
0.0
 10
263.210339
 20
126.729906
 30
0.0
 10
263.210339
 20
132.494191
 30
0.0
  0
LWPOLYLINE
  5
132
100
AcDbEntity
  8
Calque_1
 62
1
100
AcDbPolyline
 90
101
 70
1
 10
263.210339
 20
86.494191
 30
0.0
 10
268.303197
 20
86.494191
 30
0.0
 10
268.303197
 20
89.494191
 30
0.0
 10
273.546054
 20
89.494191
 30
0.0
 10
273.546054
 20
86.494191
 30
0.0
 10
278.588911
 20
86.494191
 30
0.0
 10
278.588911
 20
89.494191
 30
0.0
 10
283.831768
 20
89.494191
 30
0.0
 10
283.831768
 20
86.494191
 30
0.0
 10
288.874625
 20
86.494191
 30
0.0
 10
288.874625
 20
89.494191
 30
0.0
 10
294.117482
 20
89.494191
 30
0.0
 10
294.117482
 20
86.494191
 30
0.0
 10
299.160339
 20
86.494191
 30
0.0
 10
299.160339
 20
89.494191
 30
0.0
 10
304.403197
 20
89.494191
 30
0.0
 10
304.403197
 20
86.494191
 30
0.0
 10
309.446054
 20
86.494191
 30
0.0
 10
309.446054
 20
89.494191
 30
0.0
 10
314.688911
 20
89.494191
 30
0.0
 10
314.688911
 20
86.494191
 30
0.0
 10
319.731768
 20
86.494191
 30
0.0
 10
319.731768
 20
89.494191
 30
0.0
 10
324.974625
 20
89.494191
 30
0.0
 10
324.974625
 20
86.494191
 30
0.0
 10
330.017482
 20
86.494191
 30
0.0
 10
330.017482
 20
89.494191
 30
0.0
 10
335.260339
 20
89.494191
 30
0.0
 10
335.260339
 20
86.494191
 30
0.0
 10
340.303197
 20
86.494191
 30
0.0
 10
340.303197
 20
89.494191
 30
0.0
 10
345.546054
 20
89.494191
 30
0.0
 10
345.546054
 20
86.494191
 30
0.0
 10
350.588911
 20
86.494191
 30
0.0
 10
350.588911
 20
89.494191
 30
0.0
 10
355.831768
 20
89.494191
 30
0.0
 10
355.831768
 20
86.494191
 30
0.0
 10
360.874625
 20
86.494191
 30
0.0
 10
360.874625
 20
89.494191
 30
0.0
 10
366.117482
 20
89.494191
 30
0.0
 10
366.117482
 20
86.494191
 30
0.0
 10
371.210339
 20
86.494191
 30
0.0
 10
371.210339
 20
80.644191
 30
0.0
 10
368.210339
 20
80.644191
 30
0.0
 10
368.210339
 20
74.944191
 30
0.0
 10
371.210339
 20
74.944191
 30
0.0
 10
371.210339
 20
69.044191
 30
0.0
 10
368.210339
 20
69.044191
 30
0.0
 10
368.210339
 20
63.344191
 30
0.0
 10
371.210339
 20
63.344191
 30
0.0
 10
371.210339
 20
57.494191
 30
0.0
 10
366.117482
 20
57.494191
 30
0.0
 10
366.117482
 20
54.494191
 30
0.0
 10
360.874625
 20
54.494191
 30
0.0
 10
360.874625
 20
57.494191
 30
0.0
 10
355.831768
 20
57.494191
 30
0.0
 10
355.831768
 20
54.494191
 30
0.0
 10
350.588911
 20
54.494191
 30
0.0
 10
350.588911
 20
57.494191
 30
0.0
 10
345.546054
 20
57.494191
 30
0.0
 10
345.546054
 20
54.494191
 30
0.0
 10
340.303197
 20
54.494191
 30
0.0
 10
340.303197
 20
57.494191
 30
0.0
 10
335.260339
 20
57.494191
 30
0.0
 10
335.260339
 20
54.494191
 30
0.0
 10
330.017482
 20
54.494191
 30
0.0
 10
330.017482
 20
57.494191
 30
0.0
 10
324.974625
 20
57.494191
 30
0.0
 10
324.974625
 20
54.494191
 30
0.0
 10
319.731768
 20
54.494191
 30
0.0
 10
319.731768
 20
57.494191
 30
0.0
 10
314.688911
 20
57.494191
 30
0.0
 10
314.688911
 20
54.494191
 30
0.0
 10
309.446054
 20
54.494191
 30
0.0
 10
309.446054
 20
57.494191
 30
0.0
 10
304.403197
 20
57.494191
 30
0.0
 10
304.403197
 20
54.494191
 30
0.0
 10
299.160339
 20
54.494191
 30
0.0
 10
299.160339
 20
57.494191
 30
0.0
 10
294.117482
 20
57.494191
 30
0.0
 10
294.117482
 20
54.494191
 30
0.0
 10
288.874625
 20
54.494191
 30
0.0
 10
288.874625
 20
57.494191
 30
0.0
 10
283.831768
 20
57.494191
 30
0.0
 10
283.831768
 20
54.494191
 30
0.0
 10
278.588911
 20
54.494191
 30
0.0
 10
278.588911
 20
57.494191
 30
0.0
 10
273.546054
 20
57.494191
 30
0.0
 10
273.546054
 20
54.494191
 30
0.0
 10
268.303197
 20
54.494191
 30
0.0
 10
268.303197
 20
57.494191
 30
0.0
 10
263.210339
 20
57.494191
 30
0.0
 10
263.210339
 20
63.344191
 30
0.0
 10
266.210339
 20
63.344191
 30
0.0
 10
266.210339
 20
69.044191
 30
0.0
 10
263.210339
 20
69.044191
 30
0.0
 10
263.210339
 20
74.944191
 30
0.0
 10
266.210339
 20
74.944191
 30
0.0
 10
266.210339
 20
80.644191
 30
0.0
 10
263.210339
 20
80.644191
 30
0.0
 10
263.210339
 20
86.494191
 30
0.0
  0
LWPOLYLINE
  5
133
100
AcDbEntity
  8
Calque_1
 62
1
100
AcDbPolyline
 90
101
 70
1
 10
152.210339
 20
86.494191
 30
0.0
 10
157.303197
 20
86.494191
 30
0.0
 10
157.303197
 20
89.494191
 30
0.0
 10
162.546054
 20
89.494191
 30
0.0
 10
162.546054
 20
86.494191
 30
0.0
 10
167.588911
 20
86.494191
 30
0.0
 10
167.588911
 20
89.494191
 30
0.0
 10
172.831768
 20
89.494191
 30
0.0
 10
172.831768
 20
86.494191
 30
0.0
 10
177.874625
 20
86.494191
 30
0.0
 10
177.874625
 20
89.494191
 30
0.0
 10
183.117482
 20
89.494191
 30
0.0
 10
183.117482
 20
86.494191
 30
0.0
 10
188.160339
 20
86.494191
 30
0.0
 10
188.160339
 20
89.494191
 30
0.0
 10
193.403197
 20
89.494191
 30
0.0
 10
193.403197
 20
86.494191
 30
0.0
 10
198.446054
 20
86.494191
 30
0.0
 10
198.446054
 20
89.494191
 30
0.0
 10
203.688911
 20
89.494191
 30
0.0
 10
203.688911
 20
86.494191
 30
0.0
 10
208.731768
 20
86.494191
 30
0.0
 10
208.731768
 20
89.494191
 30
0.0
 10
213.974625
 20
89.494191
 30
0.0
 10
213.974625
 20
86.494191
 30
0.0
 10
219.017482
 20
86.494191
 30
0.0
 10
219.017482
 20
89.494191
 30
0.0
 10
224.260339
 20
89.494191
 30
0.0
 10
224.260339
 20
86.494191
 30
0.0
 10
229.303197
 20
86.494191
 30
0.0
 10
229.303197
 20
89.494191
 30
0.0
 10
234.546054
 20
89.494191
 30
0.0
 10
234.546054
 20
86.494191
 30
0.0
 10
239.588911
 20
86.494191
 30
0.0
 10
239.588911
 20
89.494191
 30
0.0
 10
244.831768
 20
89.494191
 30
0.0
 10
244.831768
 20
86.494191
 30
0.0
 10
249.874625
 20
86.494191
 30
0.0
 10
249.874625
 20
89.494191
 30
0.0
 10
255.117482
 20
89.494191
 30
0.0
 10
255.117482
 20
86.494191
 30
0.0
 10
260.210339
 20
86.494191
 30
0.0
 10
260.210339
 20
80.644191
 30
0.0
 10
257.210339
 20
80.644191
 30
0.0
 10
257.210339
 20
74.944191
 30
0.0
 10
260.210339
 20
74.944191
 30
0.0
 10
260.210339
 20
69.044191
 30
0.0
 10
257.210339
 20
69.044191
 30
0.0
 10
257.210339
 20
63.344191
 30
0.0
 10
260.210339
 20
63.344191
 30
0.0
 10
260.210339
 20
57.494191
 30
0.0
 10
255.117482
 20
57.494191
 30
0.0
 10
255.117482
 20
54.494191
 30
0.0
 10
249.874625
 20
54.494191
 30
0.0
 10
249.874625
 20
57.494191
 30
0.0
 10
244.831768
 20
57.494191
 30
0.0
 10
244.831768
 20
54.494191
 30
0.0
 10
239.588911
 20
54.494191
 30
0.0
 10
239.588911
 20
57.494191
 30
0.0
 10
234.546054
 20
57.494191
 30
0.0
 10
234.546054
 20
54.494191
 30
0.0
 10
229.303197
 20
54.494191
 30
0.0
 10
229.303197
 20
57.494191
 30
0.0
 10
224.260339
 20
57.494191
 30
0.0
 10
224.260339
 20
54.494191
 30
0.0
 10
219.017482
 20
54.494191
 30
0.0
 10
219.017482
 20
57.494191
 30
0.0
 10
213.974625
 20
57.494191
 30
0.0
 10
213.974625
 20
54.494191
 30
0.0
 10
208.731768
 20
54.494191
 30
0.0
 10
208.731768
 20
57.494191
 30
0.0
 10
203.688911
 20
57.494191
 30
0.0
 10
203.688911
 20
54.494191
 30
0.0
 10
198.446054
 20
54.494191
 30
0.0
 10
198.446054
 20
57.494191
 30
0.0
 10
193.403197
 20
57.494191
 30
0.0
 10
193.403197
 20
54.494191
 30
0.0
 10
188.160339
 20
54.494191
 30
0.0
 10
188.160339
 20
57.494191
 30
0.0
 10
183.117482
 20
57.494191
 30
0.0
 10
183.117482
 20
54.494191
 30
0.0
 10
177.874625
 20
54.494191
 30
0.0
 10
177.874625
 20
57.494191
 30
0.0
 10
172.831768
 20
57.494191
 30
0.0
 10
172.831768
 20
54.494191
 30
0.0
 10
167.588911
 20
54.494191
 30
0.0
 10
167.588911
 20
57.494191
 30
0.0
 10
162.546054
 20
57.494191
 30
0.0
 10
162.546054
 20
54.494191
 30
0.0
 10
157.303197
 20
54.494191
 30
0.0
 10
157.303197
 20
57.494191
 30
0.0
 10
152.210339
 20
57.494191
 30
0.0
 10
152.210339
 20
63.344191
 30
0.0
 10
155.210339
 20
63.344191
 30
0.0
 10
155.210339
 20
69.044191
 30
0.0
 10
152.210339
 20
69.044191
 30
0.0
 10
152.210339
 20
74.944191
 30
0.0
 10
155.210339
 20
74.944191
 30
0.0
 10
155.210339
 20
80.644191
 30
0.0
 10
152.210339
 20
80.644191
 30
0.0
 10
152.210339
 20
86.494191
 30
0.0
  0
LWPOLYLINE
  5
134
100
AcDbEntity
  8
Calque_1
 62
1
100
AcDbPolyline
 90
45
 70
1
 10
198.210339
 20
48.494191
 30
0.0
 10
200.874625
 20
48.494191
 30
0.0
 10
200.874625
 20
51.494191
 30
0.0
 10
206.688911
 20
51.494191
 30
0.0
 10
206.688911
 20
48.494191
 30
0.0
 10
212.303197
 20
48.494191
 30
0.0
 10
212.303197
 20
51.494191
 30
0.0
 10
218.117482
 20
51.494191
 30
0.0
 10
218.117482
 20
48.494191
 30
0.0
 10
223.731768
 20
48.494191
 30
0.0
 10
223.731768
 20
51.494191
 30
0.0
 10
229.546054
 20
51.494191
 30
0.0
 10
229.546054
 20
48.494191
 30
0.0
 10
232.210339
 20
48.494191
 30
0.0
 10
232.210339
 20
42.744191
 30
0.0
 10
235.210339
 20
42.744191
 30
0.0
 10
235.210339
 20
36.844191
 30
0.0
 10
232.210339
 20
36.844191
 30
0.0
 10
232.210339
 20
31.144191
 30
0.0
 10
235.210339
 20
31.144191
 30
0.0
 10
235.210339
 20
25.244191
 30
0.0
 10
232.210339
 20
25.244191
 30
0.0
 10
232.210339
 20
19.494191
 30
0.0
 10
229.546054
 20
19.494191
 30
0.0
 10
229.546054
 20
16.494191
 30
0.0
 10
223.731768
 20
16.494191
 30
0.0
 10
223.731768
 20
19.494191
 30
0.0
 10
218.117482
 20
19.494191
 30
0.0
 10
218.117482
 20
16.494191
 30
0.0
 10
212.303197
 20
16.494191
 30
0.0
 10
212.303197
 20
19.494191
 30
0.0
 10
206.688911
 20
19.494191
 30
0.0
 10
206.688911
 20
16.494191
 30
0.0
 10
200.874625
 20
16.494191
 30
0.0
 10
200.874625
 20
19.494191
 30
0.0
 10
198.210339
 20
19.494191
 30
0.0
 10
198.210339
 20
25.244191
 30
0.0
 10
195.210339
 20
25.244191
 30
0.0
 10
195.210339
 20
31.144191
 30
0.0
 10
198.210339
 20
31.144191
 30
0.0
 10
198.210339
 20
36.844191
 30
0.0
 10
195.210339
 20
36.844191
 30
0.0
 10
195.210339
 20
42.744191
 30
0.0
 10
198.210339
 20
42.744191
 30
0.0
 10
198.210339
 20
48.494191
 30
0.0
  0
LWPOLYLINE
  5
135
100
AcDbEntity
  8
Calque_1
 62
1
100
AcDbPolyline
 90
45
 70
1
 10
155.210339
 20
48.494191
 30
0.0
 10
157.874625
 20
48.494191
 30
0.0
 10
157.874625
 20
51.494191
 30
0.0
 10
163.688911
 20
51.494191
 30
0.0
 10
163.688911
 20
48.494191
 30
0.0
 10
169.303197
 20
48.494191
 30
0.0
 10
169.303197
 20
51.494191
 30
0.0
 10
175.117482
 20
51.494191
 30
0.0
 10
175.117482
 20
48.494191
 30
0.0
 10
180.731768
 20
48.494191
 30
0.0
 10
180.731768
 20
51.494191
 30
0.0
 10
186.546054
 20
51.494191
 30
0.0
 10
186.546054
 20
48.494191
 30
0.0
 10
189.210339
 20
48.494191
 30
0.0
 10
189.210339
 20
42.744191
 30
0.0
 10
192.210339
 20
42.744191
 30
0.0
 10
192.210339
 20
36.844191
 30
0.0
 10
189.210339
 20
36.844191
 30
0.0
 10
189.210339
 20
31.144191
 30
0.0
 10
192.210339
 20
31.144191
 30
0.0
 10
192.210339
 20
25.244191
 30
0.0
 10
189.210339
 20
25.244191
 30
0.0
 10
189.210339
 20
19.494191
 30
0.0
 10
186.546054
 20
19.494191
 30
0.0
 10
186.546054
 20
16.494191
 30
0.0
 10
180.731768
 20
16.494191
 30
0.0
 10
180.731768
 20
19.494191
 30
0.0
 10
175.117482
 20
19.494191
 30
0.0
 10
175.117482
 20
16.494191
 30
0.0
 10
169.303197
 20
16.494191
 30
0.0
 10
169.303197
 20
19.494191
 30
0.0
 10
163.688911
 20
19.494191
 30
0.0
 10
163.688911
 20
16.494191
 30
0.0
 10
157.874625
 20
16.494191
 30
0.0
 10
157.874625
 20
19.494191
 30
0.0
 10
155.210339
 20
19.494191
 30
0.0
 10
155.210339
 20
25.244191
 30
0.0
 10
152.210339
 20
25.244191
 30
0.0
 10
152.210339
 20
31.144191
 30
0.0
 10
155.210339
 20
31.144191
 30
0.0
 10
155.210339
 20
36.844191
 30
0.0
 10
152.210339
 20
36.844191
 30
0.0
 10
152.210339
 20
42.744191
 30
0.0
 10
155.210339
 20
42.744191
 30
0.0
 10
155.210339
 20
48.494191
 30
0.0
  0
SPLINE
  5
136
100
AcDbEntity
  8
Calque_1
 62
7
100
AcDbSpline
 70
0
 71
3
 72
10
 73
6
 74
4
 40
0.000000
 40
0.000000
 40
0.000000
 40
0.000000
 40
0.907548
 40
1.792398
 40
2.696695
 40
2.696695
 40
2.696695
 40
2.696695
 10
325.809743
 20
110.496309
 30
0.0
 10
326.114750
 20
110.373528
 30
0.0
 10
326.717136
 20
110.131037
 30
0.0
 10
326.686550
 20
108.975715
 30
0.0
 10
326.104122
 20
108.718257
 30
0.0
 10
325.809743
 20
108.588129
 30
0.0
 11
325.809743
 21
110.496309
 31
0.0
 11
326.565118
 21
109.993266
 31
0.0
 11
326.549275
 21
109.108558
 31
0.0
 11
325.809743
 21
108.588129
 31
0.0
  0
LWPOLYLINE
  5
137
100
AcDbEntity
  8
Calque_1
 62
7
100
AcDbPolyline
 90
4
 70
1
 10
304.738560
 20
83.462510
 30
0.0
 10
349.738560
 20
83.462510
 30
0.0
 10
349.738560
 20
73.462510
 30
0.0
 10
304.738560
 20
73.462510
 30
0.0
  0
ENDSEC
  0
SECTION
  2
OBJECTS
  0
DICTIONARY
  5
C
330
0
100
AcDbDictionary
  3
ACAD_GROUP
350
D
  3
ACAD_MLINESTYLE
350
17
  0
DICTIONARY
  5
D
330
C
100
AcDbDictionary
  0
DICTIONARY
  5
1A
330
C
100
AcDbDictionary
  0
DICTIONARY
  5
17
330
C
100
AcDbDictionary
  3
STANDARD
350
18
  0
DICTIONARY
  5
19
330
C
100
AcDbDictionary
  0
ENDSEC
  0
EOF
