<?xml version="1.0" encoding="UTF-8" standalone="no"?>
<!-- Created with Inkscape (http://www.inkscape.org/) -->

<svg
   xmlns:dc="http://purl.org/dc/elements/1.1/"
   xmlns:cc="http://creativecommons.org/ns#"
   xmlns:rdf="http://www.w3.org/1999/02/22-rdf-syntax-ns#"
   xmlns:svg="http://www.w3.org/2000/svg"
   xmlns="http://www.w3.org/2000/svg"
   xmlns:sodipodi="http://sodipodi.sourceforge.net/DTD/sodipodi-0.dtd"
   xmlns:inkscape="http://www.inkscape.org/namespaces/inkscape"
   sodipodi:docname="boitierwemosgps.svg"
   inkscape:version="0.92.3 (2405546, 2018-03-11)"
   id="svg8"
   version="1.1"
   viewBox="0 0 210 297"
   height="297mm"
   width="210mm">
  <sodipodi:namedview
     inkscape:window-maximized="1"
     inkscape:window-y="27"
     inkscape:window-x="67"
     inkscape:window-height="995"
     inkscape:window-width="1613"
     showgrid="false"
     inkscape:current-layer="layer1"
     inkscape:document-units="mm"
     inkscape:cy="251.35613"
     inkscape:cx="517.16688"
     inkscape:zoom="1.3806439"
     inkscape:pageshadow="2"
     inkscape:pageopacity="0.0"
     borderopacity="1.0"
     bordercolor="#666666"
     pagecolor="#ffffff"
     id="base" />
  <defs
     id="defs2" />
  <metadata
     id="metadata5">
    <rdf:RDF>
      <cc:Work
         rdf:about="">
        <dc:format>image/svg+xml</dc:format>
        <dc:type
           rdf:resource="http://purl.org/dc/dcmitype/StillImage" />
        <dc:title />
      </cc:Work>
    </rdf:RDF>
  </metadata>
  <g
     inkscape:label="Calque 1"
     inkscape:groupmode="layer"
     id="layer1">
    <path
       id="path854"
       d="m 35.45296,207.5052 a 4.1202092,2.6829269 0 0 1 -4.12021,2.68293 4.1202092,2.6829269 0 0 1 -4.120209,-2.68293 4.1202092,2.6829269 0 0 1 4.120209,-2.68292 4.1202092,2.6829269 0 0 1 4.12021,2.68292 z"
       style="opacity:0;fill:#00000f;fill-opacity:1;stroke:none;stroke-width:1;stroke-miterlimit:4;stroke-dasharray:none;stroke-opacity:1" />
    <path
       id="path856"
       d="m 157.634,261.83333 a 6,6 0 0 1 -6,6 6,6 0 0 1 -6,-6 6,6 0 0 1 6,-6 6,6 0 0 1 6,6 z"
       style="opacity:1;fill:#00000f;fill-opacity:1;stroke:#000000;stroke-width:1;stroke-miterlimit:4;stroke-dasharray:none;stroke-opacity:1"
       inkscape:connector-curvature="0" />
    <g
       id="layer1-6"
       inkscape:label="Calque 1"
       transform="matrix(0.37258124,0,0,0.37258124,112.51297,167.50502)">
      <g
         inkscape:label="Calque 1"
         id="layer1-3"
         transform="matrix(0.28222221,0,0,0.28222221,1.0914915,20.012734)">
        <g
           style="display:inline;stroke:#000000"
           inkscape:label="Hershey Text"
           transform="matrix(0.60197956,0,0,0.60197956,239.05517,600.18978)"
           id="g5437">
          <path
             sodipodi:nodetypes="cccccccccccccccccccccccccccccccssssssssscccccccccccccccccccccccccccccccccc"
             d="m -223.34269,-403.9115 -32.19744,0.0772 -61.76256,178.99523 h 27.86108 l 14.69451,-42.32376 66.1966,-0.15449 36.26386,107.18427 35.39207,0.0581 -86.44812,-243.81615 z m -18.21873,41.47169 23.89168,68.84918 -47.68667,0.11595 23.79499,-68.96462 z m 115.70161,-45.38503 0.13954,114.61867 54.328086,-0.0532 c 50.846411,-0.50716 44.966643,-53.53583 17.173839,-58.76151 25.027594,-11.84196 18.932038,-55.30606 -10.009809,-55.79922 z m 53.127713,19.22572 c 16.763858,0.0532 16.918349,28.57484 0,28.67384 h -30.649383 v -28.65452 z m -30.552363,46.33172 h 34.095175 c 18.276201,1.00322 17.148921,28.72895 0,30.14512 h -34.211465 z m -296.26272,-115.50984 c -12.36836,0 -22.40242,10.03405 -22.40242,22.40247 v 389.27254 c 0,12.36753 10.03406,22.401591 22.40242,22.401591 H -9.4525396 c 12.3680279,0 22.4020896,-10.034061 22.4020896,-22.401591 v -389.27254 c 0,-12.36842 -10.0340617,-22.40247 -22.4020896,-22.40247 z m 274.23124,183.04427 0.13455,114.61923 54.327098,-0.0581 c 50.846909,-0.50766 44.967141,-53.53637 17.173839,-58.76197 25.028092,-11.84242 18.932536,-55.30664 -10.009809,-55.7993 z m 53.126719,19.22572 c 16.764356,0.058 16.919345,28.57529 0,28.67397 H -102.8376 v -28.65465 z m -30.551699,46.33121 h 34.095507 c 18.275703,1.00419 17.149419,28.72955 0,30.14571 h -34.211457 z m -269.73591,-197.10028 76.9468,0.11113 0.0581,19.63821 -54.59886,-0.11113 -0.0581,29.48436 45.58261,0.058 v 18.03365 h -45.52713 v 47.46296 h -22.40342 z m -0.0581,131.60131 h 22.12816 v 94.92638 h 58.63688 v 19.52708 h -80.70906 z"
             style="fill:none;stroke:#000000"
             transform="translate(419)"
             id="path5487"
             inkscape:connector-curvature="0" />
        </g>
      </g>
      <g
         id="g5903"
         transform="matrix(0.45902404,0,0,0.46664038,74.933925,173.27273)"
         inkscape:label="Hershey Text"
         style="stroke-width:0.57168078">
        <path
           id="path5889"
           transform="translate(10)"
           style="fill:none;stroke:#000000;stroke-width:0.57168078"
           d="M -6,-12 V 9 m 0,0 H 6"
           inkscape:connector-curvature="0" />
        <path
           id="path5891"
           transform="translate(26)"
           style="fill:none;stroke:#000000;stroke-width:0.57168078"
           d="M 0,-12 -8,9 M 0,-12 8,9 M -5,2 H 5"
           inkscape:connector-curvature="0" />
        <path
           id="path5893"
           transform="translate(46)"
           style="fill:none;stroke:#000000;stroke-width:0.57168078"
           d="M -7,-12 V 9 M -7,-12 7,9 M 7,-12 V 9"
           inkscape:connector-curvature="0" />
        <path
           id="path5895"
           transform="translate(68)"
           style="fill:none;stroke:#000000;stroke-width:0.57168078"
           d="M -7,-12 V 9 M -7,-12 7,9 M 7,-12 V 9"
           inkscape:connector-curvature="0" />
        <path
           id="path5897"
           transform="translate(83)"
           style="fill:none;stroke:#000000;stroke-width:0.57168078"
           d="M 0,-12 V 9"
           inkscape:connector-curvature="0" />
        <path
           id="path5899"
           transform="translate(98)"
           style="fill:none;stroke:#000000;stroke-width:0.57168078"
           d="m -2,-12 -2,1 -2,2 -1,2 -1,3 v 5 l 1,3 1,2 2,2 2,1 H 2 L 4,8 6,6 7,4 8,1 V -4 L 7,-7 6,-9 4,-11 2,-12 h -4"
           inkscape:connector-curvature="0" />
        <path
           id="path5901"
           transform="translate(120)"
           style="fill:none;stroke:#000000;stroke-width:0.57168078"
           d="M -7,-12 V 9 M -7,-12 7,9 M 7,-12 V 9"
           inkscape:connector-curvature="0" />
      </g>
    </g>
    <path
       transform="translate(97.6340023731,202.833334523)"
       style="fill:none;stroke:#FF0000;"
       id="TTGO_GPD_bottom"
       d="m 0.0,0.0 5.1928571436,0.0 0.0,3.0 5.04285714137,0.0 0.0,-3.0 5.24285714435,0.0 0.0,3.0 5.04285714137,0.0 0.0,-3.0 5.24285714435,0.0 0.0,3.0 5.04285714137,0.0 0.0,-3.0 5.24285714435,0.0 0.0,3.0 5.04285714137,0.0 0.0,-3.0 5.24285714435,0.0 0.0,3.0 5.04285714137,0.0 0.0,-3.0 5.24285714435,0.0 0.0,3.0 5.04285714137,0.0 0.0,-3.0 5.24285714435,0.0 0.0,3.0 5.04285714137,0.0 0.0,-3.0 5.24285714435,0.0 0.0,3.0 5.04285714137,0.0 0.0,-3.0 5.24285714435,0.0 0.0,3.0 5.04285714137,0.0 0.0,-3.0 5.24285714435,0.0 0.0,3.0 5.04285714137,0.0 0.0,-3.0 5.1928571436,0.0 0.0,5.76428571503 -3.0,0.0 0.0,5.6142857128 3.0,0.0 0.0,5.81428571578 -3.0,0.0 0.0,5.6142857128 3.0,0.0 0.0,5.81428571578 -3.0,0.0 0.0,5.6142857128 3.0,0.0 0.0,5.76428571503 -5.1928571436,0.0 0.0,-3.0 -5.04285714137,0.0 0.0,3.0 -5.24285714435,0.0 0.0,-3.0 -5.04285714137,0.0 0.0,3.0 -5.24285714435,0.0 0.0,-3.0 -5.04285714137,0.0 0.0,3.0 -5.24285714435,0.0 0.0,-3.0 -5.04285714137,0.0 0.0,3.0 -5.24285714435,0.0 0.0,-3.0 -5.04285714137,0.0 0.0,3.0 -5.24285714435,0.0 0.0,-3.0 -5.04285714137,0.0 0.0,3.0 -5.24285714435,0.0 0.0,-3.0 -5.04285714137,0.0 0.0,3.0 -5.24285714435,0.0 0.0,-3.0 -5.04285714137,0.0 0.0,3.0 -5.24285714435,0.0 0.0,-3.0 -5.04285714137,0.0 0.0,3.0 -5.24285714435,0.0 0.0,-3.0 -5.04285714137,0.0 0.0,3.0 -5.1928571436,0.0 0.0,-5.76428571503 3.0,0.0 0.0,-5.6142857128 -3.0,0.0 0.0,-5.81428571578 3.0,0.0 0.0,-5.6142857128 -3.0,0.0 0.0,-5.81428571578 3.0,0.0 0.0,-5.6142857128 -3.0,0.0 0.0,-5.76428571503 z" />
    <path
       transform="translate(208.634002373,202.833334523)"
       style="fill:none;stroke:#FF0000;"
       id="TTGO_GPD_top"
       d="m 0.0,0.0 5.1928571436,0.0 0.0,3.0 5.04285714137,0.0 0.0,-3.0 5.24285714435,0.0 0.0,3.0 5.04285714137,0.0 0.0,-3.0 5.24285714435,0.0 0.0,3.0 5.04285714137,0.0 0.0,-3.0 5.24285714435,0.0 0.0,3.0 5.04285714137,0.0 0.0,-3.0 5.24285714435,0.0 0.0,3.0 5.04285714137,0.0 0.0,-3.0 5.24285714435,0.0 0.0,3.0 5.04285714137,0.0 0.0,-3.0 5.24285714435,0.0 0.0,3.0 5.04285714137,0.0 0.0,-3.0 5.24285714435,0.0 0.0,3.0 5.04285714137,0.0 0.0,-3.0 5.24285714435,0.0 0.0,3.0 5.04285714137,0.0 0.0,-3.0 5.24285714435,0.0 0.0,3.0 5.04285714137,0.0 0.0,-3.0 5.1928571436,0.0 0.0,5.76428571503 -3.0,0.0 0.0,5.6142857128 3.0,0.0 0.0,5.81428571578 -3.0,0.0 0.0,5.6142857128 3.0,0.0 0.0,5.81428571578 -3.0,0.0 0.0,5.6142857128 3.0,0.0 0.0,5.76428571503 -5.1928571436,0.0 0.0,-3.0 -5.04285714137,0.0 0.0,3.0 -5.24285714435,0.0 0.0,-3.0 -5.04285714137,0.0 0.0,3.0 -5.24285714435,0.0 0.0,-3.0 -5.04285714137,0.0 0.0,3.0 -5.24285714435,0.0 0.0,-3.0 -5.04285714137,0.0 0.0,3.0 -5.24285714435,0.0 0.0,-3.0 -5.04285714137,0.0 0.0,3.0 -5.24285714435,0.0 0.0,-3.0 -5.04285714137,0.0 0.0,3.0 -5.24285714435,0.0 0.0,-3.0 -5.04285714137,0.0 0.0,3.0 -5.24285714435,0.0 0.0,-3.0 -5.04285714137,0.0 0.0,3.0 -5.24285714435,0.0 0.0,-3.0 -5.04285714137,0.0 0.0,3.0 -5.24285714435,0.0 0.0,-3.0 -5.04285714137,0.0 0.0,3.0 -5.1928571436,0.0 0.0,-5.76428571503 3.0,0.0 0.0,-5.6142857128 -3.0,0.0 0.0,-5.81428571578 3.0,0.0 0.0,-5.6142857128 -3.0,0.0 0.0,-5.81428571578 3.0,0.0 0.0,-5.6142857128 -3.0,0.0 0.0,-5.76428571503 z" />
    <path
       transform="translate(208.634002373,245.833334523)"
       style="fill:none;stroke:#FF0000;"
       id="TTGO_GPD_font"
       d="m 0.0,3.0 5.09285714211,0.0 0.0,-3.0 5.24285714435,0.0 0.0,3.0 5.04285714137,0.0 0.0,-3.0 5.24285714435,0.0 0.0,3.0 5.04285714137,0.0 0.0,-3.0 5.24285714435,0.0 0.0,3.0 5.04285714137,0.0 0.0,-3.0 5.24285714435,0.0 0.0,3.0 5.04285714137,0.0 0.0,-3.0 5.24285714435,0.0 0.0,3.0 5.04285714137,0.0 0.0,-3.0 5.24285714435,0.0 0.0,3.0 5.04285714137,0.0 0.0,-3.0 5.24285714435,0.0 0.0,3.0 5.04285714137,0.0 0.0,-3.0 5.24285714435,0.0 0.0,3.0 5.04285714137,0.0 0.0,-3.0 5.24285714435,0.0 0.0,3.0 5.04285714137,0.0 0.0,-3.0 5.24285714435,0.0 0.0,3.0 5.09285714211,0.0 0.0,5.25000000075 -3.0,0.0 0.0,5.09999999851 3.0,0.0 0.0,5.30000000149 -3.0,0.0 0.0,5.09999999851 3.0,0.0 0.0,5.25000000075 -5.09285714211,0.0 0.0,3.0 -5.24285714435,0.0 0.0,-3.0 -5.04285714137,0.0 0.0,3.0 -5.24285714435,0.0 0.0,-3.0 -5.04285714137,0.0 0.0,3.0 -5.24285714435,0.0 0.0,-3.0 -5.04285714137,0.0 0.0,3.0 -5.24285714435,0.0 0.0,-3.0 -5.04285714137,0.0 0.0,3.0 -5.24285714435,0.0 0.0,-3.0 -5.04285714137,0.0 0.0,3.0 -5.24285714435,0.0 0.0,-3.0 -5.04285714137,0.0 0.0,3.0 -5.24285714435,0.0 0.0,-3.0 -5.04285714137,0.0 0.0,3.0 -5.24285714435,0.0 0.0,-3.0 -5.04285714137,0.0 0.0,3.0 -5.24285714435,0.0 0.0,-3.0 -5.04285714137,0.0 0.0,3.0 -5.24285714435,0.0 0.0,-3.0 -5.09285714211,0.0 0.0,-5.25000000075 3.0,0.0 0.0,-5.09999999851 -3.0,0.0 0.0,-5.30000000149 3.0,0.0 0.0,-5.09999999851 -3.0,0.0 0.0,-5.25000000075 z" />
    <path
       transform="translate(97.6340023731,245.833334523)"
       style="fill:none;stroke:#FF0000;"
       id="TTGO_GPD_back"
       d="m 0.0,3.0 5.09285714211,0.0 0.0,-3.0 5.24285714435,0.0 0.0,3.0 5.04285714137,0.0 0.0,-3.0 5.24285714435,0.0 0.0,3.0 5.04285714137,0.0 0.0,-3.0 5.24285714435,0.0 0.0,3.0 5.04285714137,0.0 0.0,-3.0 5.24285714435,0.0 0.0,3.0 5.04285714137,0.0 0.0,-3.0 5.24285714435,0.0 0.0,3.0 5.04285714137,0.0 0.0,-3.0 5.24285714435,0.0 0.0,3.0 5.04285714137,0.0 0.0,-3.0 5.24285714435,0.0 0.0,3.0 5.04285714137,0.0 0.0,-3.0 5.24285714435,0.0 0.0,3.0 5.04285714137,0.0 0.0,-3.0 5.24285714435,0.0 0.0,3.0 5.04285714137,0.0 0.0,-3.0 5.24285714435,0.0 0.0,3.0 5.09285714211,0.0 0.0,5.25000000075 -3.0,0.0 0.0,5.09999999851 3.0,0.0 0.0,5.30000000149 -3.0,0.0 0.0,5.09999999851 3.0,0.0 0.0,5.25000000075 -5.09285714211,0.0 0.0,3.0 -5.24285714435,0.0 0.0,-3.0 -5.04285714137,0.0 0.0,3.0 -5.24285714435,0.0 0.0,-3.0 -5.04285714137,0.0 0.0,3.0 -5.24285714435,0.0 0.0,-3.0 -5.04285714137,0.0 0.0,3.0 -5.24285714435,0.0 0.0,-3.0 -5.04285714137,0.0 0.0,3.0 -5.24285714435,0.0 0.0,-3.0 -5.04285714137,0.0 0.0,3.0 -5.24285714435,0.0 0.0,-3.0 -5.04285714137,0.0 0.0,3.0 -5.24285714435,0.0 0.0,-3.0 -5.04285714137,0.0 0.0,3.0 -5.24285714435,0.0 0.0,-3.0 -5.04285714137,0.0 0.0,3.0 -5.24285714435,0.0 0.0,-3.0 -5.04285714137,0.0 0.0,3.0 -5.24285714435,0.0 0.0,-3.0 -5.09285714211,0.0 0.0,-5.25000000075 3.0,0.0 0.0,-5.09999999851 -3.0,0.0 0.0,-5.30000000149 3.0,0.0 0.0,-5.09999999851 -3.0,0.0 0.0,-5.25000000075 z" />
    <path
       transform="translate(140.634002373,280.833334523)"
       style="fill:none;stroke:#FF0000;"
       id="TTGO_GPD_left_side"
       d="m 3.0,3.0 2.66428571354,0.0 0.0,-3.0 5.81428571578,0.0 0.0,3.0 5.6142857128,0.0 0.0,-3.0 5.81428571578,0.0 0.0,3.0 5.6142857128,0.0 0.0,-3.0 5.81428571578,0.0 0.0,3.0 2.66428571354,0.0 0.0,5.14999999925 3.0,0.0 0.0,5.30000000149 -3.0,0.0 0.0,5.09999999851 3.0,0.0 0.0,5.30000000149 -3.0,0.0 0.0,5.14999999925 -2.66428571354,0.0 0.0,3.0 -5.81428571578,0.0 0.0,-3.0 -5.6142857128,0.0 0.0,3.0 -5.81428571578,0.0 0.0,-3.0 -5.6142857128,0.0 0.0,3.0 -5.81428571578,0.0 0.0,-3.0 -2.66428571354,0.0 0.0,-5.14999999925 -3.0,0.0 0.0,-5.30000000149 3.0,0.0 0.0,-5.09999999851 -3.0,0.0 0.0,-5.30000000149 3.0,0.0 0.0,-5.14999999925 z" />
    <path
       transform="translate(97.6340023731,280.833334523)"
       style="fill:none;stroke:#FF0000;"
       id="TTGO_GPD_right_side"
       d="m 3.0,3.0 2.66428571354,0.0 0.0,-3.0 5.81428571578,0.0 0.0,3.0 5.6142857128,0.0 0.0,-3.0 5.81428571578,0.0 0.0,3.0 5.6142857128,0.0 0.0,-3.0 5.81428571578,0.0 0.0,3.0 2.66428571354,0.0 0.0,5.14999999925 3.0,0.0 0.0,5.30000000149 -3.0,0.0 0.0,5.09999999851 3.0,0.0 0.0,5.30000000149 -3.0,0.0 0.0,5.14999999925 -2.66428571354,0.0 0.0,3.0 -5.81428571578,0.0 0.0,-3.0 -5.6142857128,0.0 0.0,3.0 -5.81428571578,0.0 0.0,-3.0 -5.6142857128,0.0 0.0,3.0 -5.81428571578,0.0 0.0,-3.0 -2.66428571354,0.0 0.0,-5.14999999925 -3.0,0.0 0.0,-5.30000000149 3.0,0.0 0.0,-5.09999999851 -3.0,0.0 0.0,-5.30000000149 3.0,0.0 0.0,-5.14999999925 z" />
  </g>
</svg>
