  0
SECTION
  2
HEADER
  9
$ACADVER
  1
AC1014
  9
$HANDSEED
  5
FFFF
  9
$MEASUREMENT
 70
     1
  0
ENDSEC
  0
SECTION
  2
TABLES
  0
TABLE
  2
VPORT
  5
8
330
0
100
AcDbSymbolTable
 70
     4
  0
VPORT
  5
2E
330
8
100
AcDbSymbolTableRecord
100
AcDbViewportTableRecord
  2
*ACTIVE
 70
     0
 10
0.0
 20
0.0
 11
1.0
 21
1.0
 12
210.0
 22
148.5
 13
0.0
 23
0.0
 14
10.0
 24
10.0
 15
10.0
 25
10.0
 16
0.0
 26
0.0
 36
1.0
 17
0.0
 27
0.0
 37
0.0
 40
341.0
 41
1.24
 42
50.0
 43
0.0
 44
0.0
 50
0.0
 51
0.0
 71
     0
 72
   100
 73
     1
 74
     3
 75
     0
 76
     0
 77
     0
 78
     0
  0
ENDTAB
  0
TABLE
  2
LTYPE
  5
5
330
0
100
AcDbSymbolTable
 70
     1
  0
LTYPE
  5
14
330
5
100
AcDbSymbolTableRecord
100
AcDbLinetypeTableRecord
  2
BYBLOCK
 70
     0
  3

 72
    65
 73
     0
 40
0.0
  0
LTYPE
  5
15
330
5
100
AcDbSymbolTableRecord
100
AcDbLinetypeTableRecord
  2
BYLAYER
 70
     0
  3

 72
    65
 73
     0
 40
0.0
  0
LTYPE
  5
16
330
5
100
AcDbSymbolTableRecord
100
AcDbLinetypeTableRecord
  2
CONTINUOUS
 70
     0
  3
Solid line
 72
    65
 73
     0
 40
0.0
  0
ENDTAB
  0
TABLE
  2
LAYER
  5
2
100
AcDbSymbolTable
 70
2
  0
LAYER
  5
50
100
AcDbSymbolTableRecord
100
AcDbLayerTableRecord
  2
0
 70
0
  6
CONTINUOUS
  0
LAYER
  5
51
100
AcDbSymbolTableRecord
100
AcDbLayerTableRecord
  2
Calque_1
 70
0
  6
CONTINUOUS
  0
ENDTAB
  0
TABLE
  2
STYLE
  5
3
330
0
100
AcDbSymbolTable
 70
     1
  0
STYLE
  5
11
330
3
100
AcDbSymbolTableRecord
100
AcDbTextStyleTableRecord
  2
STANDARD
 70
     0
 40
0.0
 41
1.0
 50
0.0
 71
     0
 42
2.5
  3
txt
  4

  0
ENDTAB
  0
TABLE
  2
VIEW
  5
6
330
0
100
AcDbSymbolTable
 70
     0
  0
ENDTAB
  0
TABLE
  2
UCS
  5
7
330
0
100
AcDbSymbolTable
 70
     0
  0
ENDTAB
  0
TABLE
  2
APPID
  5
9
330
0
100
AcDbSymbolTable
 70
     2
  0
APPID
  5
12
330
9
100
AcDbSymbolTableRecord
100
AcDbRegAppTableRecord
  2
ACAD
 70
     0
  0
ENDTAB
  0
TABLE
  2
DIMSTYLE
  5
A
330
0
100
AcDbSymbolTable
 70
     1
  0
DIMSTYLE
105
27
330
A
100
AcDbSymbolTableRecord
100
AcDbDimStyleTableRecord
  2
ISO-25
 70
     0
  3

  4

  5

  6

  7

 40
1.0
 41
2.5
 42
0.625
 43
3.75
 44
1.25
 45
0.0
 46
0.0
 47
0.0
 48
0.0
140
2.5
141
2.5
142
0.0
143
0.03937007874016
144
1.0
145
0.0
146
1.0
147
0.625
 71
     0
 72
     0
 73
     0
 74
     0
 75
     0
 76
     0
 77
     1
 78
     8
170
     0
171
     3
172
     1
173
     0
174
     0
175
     0
176
     0
177
     0
178
     0
270
     2
271
     2
272
     2
273
     2
274
     3
340
11
275
     0
280
     0
281
     0
282
     0
283
     0
284
     8
285
     0
286
     0
287
     3
288
     0
  0
ENDTAB
  0
TABLE
  2
BLOCK_RECORD
  5
1
330
0
100
AcDbSymbolTable
 70
     1
  0
BLOCK_RECORD
  5
1F
330
1
100
AcDbSymbolTableRecord
100
AcDbBlockTableRecord
  2
*MODEL_SPACE
  0
BLOCK_RECORD
  5
1B
330
1
100
AcDbSymbolTableRecord
100
AcDbBlockTableRecord
  2
*PAPER_SPACE
  0
ENDTAB
  0
ENDSEC
  0
SECTION
  2
BLOCKS
  0
BLOCK
  5
20
330
1F
100
AcDbEntity
  8
0
100
AcDbBlockBegin
  2
*MODEL_SPACE
 70
     0
 10
0.0
 20
0.0
 30
0.0
  3
*MODEL_SPACE
  1

  0
ENDBLK
  5
21
330
1F
100
AcDbEntity
  8
0
100
AcDbBlockEnd
  0
BLOCK
  5
1C
330
1B
100
AcDbEntity
 67
     1
  8
0
100
AcDbBlockBegin
  2
*PAPER_SPACE
  1

  0
ENDBLK
  5
1D
330
1B
100
AcDbEntity
 67
     1
  8
0
100
AcDbBlockEnd
  0
ENDSEC
  0
SECTION
  2
ENTITIES
  0
LWPOLYLINE
  5
100
100
AcDbEntity
  8
Calque_1
 62
1
100
AcDbPolyline
 90
109
 70
1
 10
-14.386905
 20
145.166667
 30
0.0
 10
-9.194048
 20
145.166667
 30
0.0
 10
-9.194048
 20
142.166667
 30
0.0
 10
-4.151191
 20
142.166667
 30
0.0
 10
-4.151191
 20
145.166667
 30
0.0
 10
1.091667
 20
145.166667
 30
0.0
 10
1.091667
 20
142.166667
 30
0.0
 10
6.134524
 20
142.166667
 30
0.0
 10
6.134524
 20
145.166667
 30
0.0
 10
11.377381
 20
145.166667
 30
0.0
 10
11.377381
 20
142.166667
 30
0.0
 10
16.420238
 20
142.166667
 30
0.0
 10
16.420238
 20
145.166667
 30
0.0
 10
21.663095
 20
145.166667
 30
0.0
 10
21.663095
 20
142.166667
 30
0.0
 10
26.705952
 20
142.166667
 30
0.0
 10
26.705952
 20
145.166667
 30
0.0
 10
31.948809
 20
145.166667
 30
0.0
 10
31.948809
 20
142.166667
 30
0.0
 10
36.991667
 20
142.166667
 30
0.0
 10
36.991667
 20
145.166667
 30
0.0
 10
42.234524
 20
145.166667
 30
0.0
 10
42.234524
 20
142.166667
 30
0.0
 10
47.277381
 20
142.166667
 30
0.0
 10
47.277381
 20
145.166667
 30
0.0
 10
52.520238
 20
145.166667
 30
0.0
 10
52.520238
 20
142.166667
 30
0.0
 10
57.563095
 20
142.166667
 30
0.0
 10
57.563095
 20
145.166667
 30
0.0
 10
62.805952
 20
145.166667
 30
0.0
 10
62.805952
 20
142.166667
 30
0.0
 10
67.848809
 20
142.166667
 30
0.0
 10
67.848809
 20
145.166667
 30
0.0
 10
73.091667
 20
145.166667
 30
0.0
 10
73.091667
 20
142.166667
 30
0.0
 10
78.134524
 20
142.166667
 30
0.0
 10
78.134524
 20
145.166667
 30
0.0
 10
83.377381
 20
145.166667
 30
0.0
 10
83.377381
 20
142.166667
 30
0.0
 10
88.420238
 20
142.166667
 30
0.0
 10
88.420238
 20
145.166667
 30
0.0
 10
93.613095
 20
145.166667
 30
0.0
 10
93.613095
 20
139.402381
 30
0.0
 10
90.613095
 20
139.402381
 30
0.0
 10
90.613095
 20
133.788095
 30
0.0
 10
93.613095
 20
133.788095
 30
0.0
 10
93.613095
 20
127.973810
 30
0.0
 10
90.613095
 20
127.973810
 30
0.0
 10
90.613095
 20
122.359524
 30
0.0
 10
93.613095
 20
122.359524
 30
0.0
 10
93.613095
 20
116.545238
 30
0.0
 10
90.613095
 20
116.545238
 30
0.0
 10
90.613095
 20
110.930952
 30
0.0
 10
93.613095
 20
110.930952
 30
0.0
 10
93.613095
 20
105.166667
 30
0.0
 10
88.420238
 20
105.166667
 30
0.0
 10
88.420238
 20
108.166667
 30
0.0
 10
83.377381
 20
108.166667
 30
0.0
 10
83.377381
 20
105.166667
 30
0.0
 10
78.134524
 20
105.166667
 30
0.0
 10
78.134524
 20
108.166667
 30
0.0
 10
73.091667
 20
108.166667
 30
0.0
 10
73.091667
 20
105.166667
 30
0.0
 10
67.848809
 20
105.166667
 30
0.0
 10
67.848809
 20
108.166667
 30
0.0
 10
62.805952
 20
108.166667
 30
0.0
 10
62.805952
 20
105.166667
 30
0.0
 10
57.563095
 20
105.166667
 30
0.0
 10
57.563095
 20
108.166667
 30
0.0
 10
52.520238
 20
108.166667
 30
0.0
 10
52.520238
 20
105.166667
 30
0.0
 10
47.277381
 20
105.166667
 30
0.0
 10
47.277381
 20
108.166667
 30
0.0
 10
42.234524
 20
108.166667
 30
0.0
 10
42.234524
 20
105.166667
 30
0.0
 10
36.991667
 20
105.166667
 30
0.0
 10
36.991667
 20
108.166667
 30
0.0
 10
31.948809
 20
108.166667
 30
0.0
 10
31.948809
 20
105.166667
 30
0.0
 10
26.705952
 20
105.166667
 30
0.0
 10
26.705952
 20
108.166667
 30
0.0
 10
21.663095
 20
108.166667
 30
0.0
 10
21.663095
 20
105.166667
 30
0.0
 10
16.420238
 20
105.166667
 30
0.0
 10
16.420238
 20
108.166667
 30
0.0
 10
11.377381
 20
108.166667
 30
0.0
 10
11.377381
 20
105.166667
 30
0.0
 10
6.134524
 20
105.166667
 30
0.0
 10
6.134524
 20
108.166667
 30
0.0
 10
1.091667
 20
108.166667
 30
0.0
 10
1.091667
 20
105.166667
 30
0.0
 10
-4.151191
 20
105.166667
 30
0.0
 10
-4.151191
 20
108.166667
 30
0.0
 10
-9.194048
 20
108.166667
 30
0.0
 10
-9.194048
 20
105.166667
 30
0.0
 10
-14.386905
 20
105.166667
 30
0.0
 10
-14.386905
 20
110.930952
 30
0.0
 10
-11.386905
 20
110.930952
 30
0.0
 10
-11.386905
 20
116.545238
 30
0.0
 10
-14.386905
 20
116.545238
 30
0.0
 10
-14.386905
 20
122.359524
 30
0.0
 10
-11.386905
 20
122.359524
 30
0.0
 10
-11.386905
 20
127.973810
 30
0.0
 10
-14.386905
 20
127.973810
 30
0.0
 10
-14.386905
 20
133.788095
 30
0.0
 10
-11.386905
 20
133.788095
 30
0.0
 10
-11.386905
 20
139.402381
 30
0.0
 10
-14.386905
 20
139.402381
 30
0.0
 10
-14.386905
 20
145.166667
 30
0.0
  0
LWPOLYLINE
  5
101
100
AcDbEntity
  8
Calque_1
 62
1
100
AcDbPolyline
 90
109
 70
1
 10
96.613095
 20
145.166667
 30
0.0
 10
101.805952
 20
145.166667
 30
0.0
 10
101.805952
 20
142.166667
 30
0.0
 10
106.848809
 20
142.166667
 30
0.0
 10
106.848809
 20
145.166667
 30
0.0
 10
112.091667
 20
145.166667
 30
0.0
 10
112.091667
 20
142.166667
 30
0.0
 10
117.134524
 20
142.166667
 30
0.0
 10
117.134524
 20
145.166667
 30
0.0
 10
122.377381
 20
145.166667
 30
0.0
 10
122.377381
 20
142.166667
 30
0.0
 10
127.420238
 20
142.166667
 30
0.0
 10
127.420238
 20
145.166667
 30
0.0
 10
132.663095
 20
145.166667
 30
0.0
 10
132.663095
 20
142.166667
 30
0.0
 10
137.705952
 20
142.166667
 30
0.0
 10
137.705952
 20
145.166667
 30
0.0
 10
142.948809
 20
145.166667
 30
0.0
 10
142.948809
 20
142.166667
 30
0.0
 10
147.991667
 20
142.166667
 30
0.0
 10
147.991667
 20
145.166667
 30
0.0
 10
153.234524
 20
145.166667
 30
0.0
 10
153.234524
 20
142.166667
 30
0.0
 10
158.277381
 20
142.166667
 30
0.0
 10
158.277381
 20
145.166667
 30
0.0
 10
163.520238
 20
145.166667
 30
0.0
 10
163.520238
 20
142.166667
 30
0.0
 10
168.563095
 20
142.166667
 30
0.0
 10
168.563095
 20
145.166667
 30
0.0
 10
173.805952
 20
145.166667
 30
0.0
 10
173.805952
 20
142.166667
 30
0.0
 10
178.848809
 20
142.166667
 30
0.0
 10
178.848809
 20
145.166667
 30
0.0
 10
184.091667
 20
145.166667
 30
0.0
 10
184.091667
 20
142.166667
 30
0.0
 10
189.134524
 20
142.166667
 30
0.0
 10
189.134524
 20
145.166667
 30
0.0
 10
194.377381
 20
145.166667
 30
0.0
 10
194.377381
 20
142.166667
 30
0.0
 10
199.420238
 20
142.166667
 30
0.0
 10
199.420238
 20
145.166667
 30
0.0
 10
204.613095
 20
145.166667
 30
0.0
 10
204.613095
 20
139.402381
 30
0.0
 10
201.613095
 20
139.402381
 30
0.0
 10
201.613095
 20
133.788095
 30
0.0
 10
204.613095
 20
133.788095
 30
0.0
 10
204.613095
 20
127.973810
 30
0.0
 10
201.613095
 20
127.973810
 30
0.0
 10
201.613095
 20
122.359524
 30
0.0
 10
204.613095
 20
122.359524
 30
0.0
 10
204.613095
 20
116.545238
 30
0.0
 10
201.613095
 20
116.545238
 30
0.0
 10
201.613095
 20
110.930952
 30
0.0
 10
204.613095
 20
110.930952
 30
0.0
 10
204.613095
 20
105.166667
 30
0.0
 10
199.420238
 20
105.166667
 30
0.0
 10
199.420238
 20
108.166667
 30
0.0
 10
194.377381
 20
108.166667
 30
0.0
 10
194.377381
 20
105.166667
 30
0.0
 10
189.134524
 20
105.166667
 30
0.0
 10
189.134524
 20
108.166667
 30
0.0
 10
184.091667
 20
108.166667
 30
0.0
 10
184.091667
 20
105.166667
 30
0.0
 10
178.848809
 20
105.166667
 30
0.0
 10
178.848809
 20
108.166667
 30
0.0
 10
173.805952
 20
108.166667
 30
0.0
 10
173.805952
 20
105.166667
 30
0.0
 10
168.563095
 20
105.166667
 30
0.0
 10
168.563095
 20
108.166667
 30
0.0
 10
163.520238
 20
108.166667
 30
0.0
 10
163.520238
 20
105.166667
 30
0.0
 10
158.277381
 20
105.166667
 30
0.0
 10
158.277381
 20
108.166667
 30
0.0
 10
153.234524
 20
108.166667
 30
0.0
 10
153.234524
 20
105.166667
 30
0.0
 10
147.991667
 20
105.166667
 30
0.0
 10
147.991667
 20
108.166667
 30
0.0
 10
142.948809
 20
108.166667
 30
0.0
 10
142.948809
 20
105.166667
 30
0.0
 10
137.705952
 20
105.166667
 30
0.0
 10
137.705952
 20
108.166667
 30
0.0
 10
132.663095
 20
108.166667
 30
0.0
 10
132.663095
 20
105.166667
 30
0.0
 10
127.420238
 20
105.166667
 30
0.0
 10
127.420238
 20
108.166667
 30
0.0
 10
122.377381
 20
108.166667
 30
0.0
 10
122.377381
 20
105.166667
 30
0.0
 10
117.134524
 20
105.166667
 30
0.0
 10
117.134524
 20
108.166667
 30
0.0
 10
112.091667
 20
108.166667
 30
0.0
 10
112.091667
 20
105.166667
 30
0.0
 10
106.848809
 20
105.166667
 30
0.0
 10
106.848809
 20
108.166667
 30
0.0
 10
101.805952
 20
108.166667
 30
0.0
 10
101.805952
 20
105.166667
 30
0.0
 10
96.613095
 20
105.166667
 30
0.0
 10
96.613095
 20
110.930952
 30
0.0
 10
99.613095
 20
110.930952
 30
0.0
 10
99.613095
 20
116.545238
 30
0.0
 10
96.613095
 20
116.545238
 30
0.0
 10
96.613095
 20
122.359524
 30
0.0
 10
99.613095
 20
122.359524
 30
0.0
 10
99.613095
 20
127.973810
 30
0.0
 10
96.613095
 20
127.973810
 30
0.0
 10
96.613095
 20
133.788095
 30
0.0
 10
99.613095
 20
133.788095
 30
0.0
 10
99.613095
 20
139.402381
 30
0.0
 10
96.613095
 20
139.402381
 30
0.0
 10
96.613095
 20
145.166667
 30
0.0
  0
LWPOLYLINE
  5
102
100
AcDbEntity
  8
Calque_1
 62
1
100
AcDbPolyline
 90
93
 70
1
 10
96.613095
 20
99.166667
 30
0.0
 10
101.705952
 20
99.166667
 30
0.0
 10
101.705952
 20
102.166667
 30
0.0
 10
106.948809
 20
102.166667
 30
0.0
 10
106.948809
 20
99.166667
 30
0.0
 10
111.991667
 20
99.166667
 30
0.0
 10
111.991667
 20
102.166667
 30
0.0
 10
117.234524
 20
102.166667
 30
0.0
 10
117.234524
 20
99.166667
 30
0.0
 10
122.277381
 20
99.166667
 30
0.0
 10
122.277381
 20
102.166667
 30
0.0
 10
127.520238
 20
102.166667
 30
0.0
 10
127.520238
 20
99.166667
 30
0.0
 10
132.563095
 20
99.166667
 30
0.0
 10
132.563095
 20
102.166667
 30
0.0
 10
137.805952
 20
102.166667
 30
0.0
 10
137.805952
 20
99.166667
 30
0.0
 10
142.848809
 20
99.166667
 30
0.0
 10
142.848809
 20
102.166667
 30
0.0
 10
148.091667
 20
102.166667
 30
0.0
 10
148.091667
 20
99.166667
 30
0.0
 10
153.134524
 20
99.166667
 30
0.0
 10
153.134524
 20
102.166667
 30
0.0
 10
158.377381
 20
102.166667
 30
0.0
 10
158.377381
 20
99.166667
 30
0.0
 10
163.420238
 20
99.166667
 30
0.0
 10
163.420238
 20
102.166667
 30
0.0
 10
168.663095
 20
102.166667
 30
0.0
 10
168.663095
 20
99.166667
 30
0.0
 10
173.705952
 20
99.166667
 30
0.0
 10
173.705952
 20
102.166667
 30
0.0
 10
178.948809
 20
102.166667
 30
0.0
 10
178.948809
 20
99.166667
 30
0.0
 10
183.991667
 20
99.166667
 30
0.0
 10
183.991667
 20
102.166667
 30
0.0
 10
189.234524
 20
102.166667
 30
0.0
 10
189.234524
 20
99.166667
 30
0.0
 10
194.277381
 20
99.166667
 30
0.0
 10
194.277381
 20
102.166667
 30
0.0
 10
199.520238
 20
102.166667
 30
0.0
 10
199.520238
 20
99.166667
 30
0.0
 10
204.613095
 20
99.166667
 30
0.0
 10
204.613095
 20
92.783333
 30
0.0
 10
201.613095
 20
92.783333
 30
0.0
 10
201.613095
 20
86.550000
 30
0.0
 10
204.613095
 20
86.550000
 30
0.0
 10
204.613095
 20
80.166667
 30
0.0
 10
199.520238
 20
80.166667
 30
0.0
 10
199.520238
 20
77.166667
 30
0.0
 10
194.277381
 20
77.166667
 30
0.0
 10
194.277381
 20
80.166667
 30
0.0
 10
189.234524
 20
80.166667
 30
0.0
 10
189.234524
 20
77.166667
 30
0.0
 10
183.991667
 20
77.166667
 30
0.0
 10
183.991667
 20
80.166667
 30
0.0
 10
178.948809
 20
80.166667
 30
0.0
 10
178.948809
 20
77.166667
 30
0.0
 10
173.705952
 20
77.166667
 30
0.0
 10
173.705952
 20
80.166667
 30
0.0
 10
168.663095
 20
80.166667
 30
0.0
 10
168.663095
 20
77.166667
 30
0.0
 10
163.420238
 20
77.166667
 30
0.0
 10
163.420238
 20
80.166667
 30
0.0
 10
158.377381
 20
80.166667
 30
0.0
 10
158.377381
 20
77.166667
 30
0.0
 10
153.134524
 20
77.166667
 30
0.0
 10
153.134524
 20
80.166667
 30
0.0
 10
148.091667
 20
80.166667
 30
0.0
 10
148.091667
 20
77.166667
 30
0.0
 10
142.848809
 20
77.166667
 30
0.0
 10
142.848809
 20
80.166667
 30
0.0
 10
137.805952
 20
80.166667
 30
0.0
 10
137.805952
 20
77.166667
 30
0.0
 10
132.563095
 20
77.166667
 30
0.0
 10
132.563095
 20
80.166667
 30
0.0
 10
127.520238
 20
80.166667
 30
0.0
 10
127.520238
 20
77.166667
 30
0.0
 10
122.277381
 20
77.166667
 30
0.0
 10
122.277381
 20
80.166667
 30
0.0
 10
117.234524
 20
80.166667
 30
0.0
 10
117.234524
 20
77.166667
 30
0.0
 10
111.991667
 20
77.166667
 30
0.0
 10
111.991667
 20
80.166667
 30
0.0
 10
106.948809
 20
80.166667
 30
0.0
 10
106.948809
 20
77.166667
 30
0.0
 10
101.705952
 20
77.166667
 30
0.0
 10
101.705952
 20
80.166667
 30
0.0
 10
96.613095
 20
80.166667
 30
0.0
 10
96.613095
 20
86.550000
 30
0.0
 10
99.613095
 20
86.550000
 30
0.0
 10
99.613095
 20
92.783333
 30
0.0
 10
96.613095
 20
92.783333
 30
0.0
 10
96.613095
 20
99.166667
 30
0.0
  0
LWPOLYLINE
  5
103
100
AcDbEntity
  8
Calque_1
 62
1
100
AcDbPolyline
 90
92
 70
1
 10
-14.386905
 20
99.166670
 30
0.0
 10
-9.294048
 20
99.166670
 30
0.0
 10
-9.294048
 20
102.166670
 30
0.0
 10
-4.051191
 20
102.166670
 30
0.0
 10
-4.051191
 20
99.166670
 30
0.0
 10
0.991667
 20
99.166670
 30
0.0
 10
0.991667
 20
102.166670
 30
0.0
 10
6.234524
 20
102.166670
 30
0.0
 10
6.234524
 20
99.166670
 30
0.0
 10
11.277381
 20
99.166670
 30
0.0
 10
11.277381
 20
102.166670
 30
0.0
 10
16.520238
 20
102.166670
 30
0.0
 10
16.520238
 20
99.166670
 30
0.0
 10
21.563095
 20
99.166670
 30
0.0
 10
21.563095
 20
102.166670
 30
0.0
 10
26.805952
 20
102.166670
 30
0.0
 10
26.805952
 20
99.166670
 30
0.0
 10
31.848809
 20
99.166670
 30
0.0
 10
31.848809
 20
102.166670
 30
0.0
 10
37.091667
 20
102.166670
 30
0.0
 10
37.091667
 20
99.166670
 30
0.0
 10
42.134524
 20
99.166670
 30
0.0
 10
42.134524
 20
102.166670
 30
0.0
 10
47.377381
 20
102.166670
 30
0.0
 10
47.377381
 20
99.166670
 30
0.0
 10
52.420238
 20
99.166670
 30
0.0
 10
52.420238
 20
102.166670
 30
0.0
 10
57.663095
 20
102.166670
 30
0.0
 10
57.663095
 20
99.166670
 30
0.0
 10
62.705952
 20
99.166670
 30
0.0
 10
62.705952
 20
102.166670
 30
0.0
 10
67.948809
 20
102.166670
 30
0.0
 10
67.948809
 20
99.166670
 30
0.0
 10
72.991667
 20
99.166670
 30
0.0
 10
72.991667
 20
102.166670
 30
0.0
 10
78.234524
 20
102.166670
 30
0.0
 10
78.234524
 20
99.166670
 30
0.0
 10
83.277381
 20
99.166670
 30
0.0
 10
83.277381
 20
102.166670
 30
0.0
 10
88.520238
 20
102.166670
 30
0.0
 10
88.520238
 20
99.166670
 30
0.0
 10
93.613095
 20
99.166670
 30
0.0
 10
93.613095
 20
92.783340
 30
0.0
 10
90.613095
 20
92.783340
 30
0.0
 10
90.613095
 20
86.550000
 30
0.0
 10
93.613095
 20
86.550000
 30
0.0
 10
93.613095
 20
80.166670
 30
0.0
 10
88.520238
 20
80.166670
 30
0.0
 10
88.520238
 20
77.166670
 30
0.0
 10
83.277381
 20
77.166670
 30
0.0
 10
83.277381
 20
80.166670
 30
0.0
 10
78.234524
 20
80.166670
 30
0.0
 10
78.234524
 20
77.166670
 30
0.0
 10
72.991667
 20
77.166670
 30
0.0
 10
72.991667
 20
80.166670
 30
0.0
 10
67.948809
 20
80.166670
 30
0.0
 10
67.948809
 20
77.166670
 30
0.0
 10
62.705952
 20
77.166670
 30
0.0
 10
62.705952
 20
80.166670
 30
0.0
 10
57.663095
 20
80.166670
 30
0.0
 10
57.663095
 20
77.166670
 30
0.0
 10
52.420238
 20
77.166670
 30
0.0
 10
52.420238
 20
80.166670
 30
0.0
 10
47.377381
 20
80.166670
 30
0.0
 10
47.377381
 20
77.166670
 30
0.0
 10
42.134524
 20
77.166670
 30
0.0
 10
42.134524
 20
80.166670
 30
0.0
 10
37.091667
 20
80.166670
 30
0.0
 10
37.091667
 20
77.166670
 30
0.0
 10
31.848809
 20
77.166670
 30
0.0
 10
31.848809
 20
80.166670
 30
0.0
 10
26.805952
 20
80.166670
 30
0.0
 10
26.805952
 20
77.166670
 30
0.0
 10
21.563095
 20
77.166670
 30
0.0
 10
21.563095
 20
80.166670
 30
0.0
 10
16.520238
 20
80.166670
 30
0.0
 10
16.520238
 20
77.166670
 30
0.0
 10
11.277381
 20
77.166670
 30
0.0
 10
11.277381
 20
80.166670
 30
0.0
 10
6.234524
 20
80.166670
 30
0.0
 10
6.234524
 20
77.166670
 30
0.0
 10
0.991667
 20
77.166670
 30
0.0
 10
0.991667
 20
80.166670
 30
0.0
 10
-4.051191
 20
80.166670
 30
0.0
 10
-4.051191
 20
77.166670
 30
0.0
 10
-9.294048
 20
77.166670
 30
0.0
 10
-9.294048
 20
80.166670
 30
0.0
 10
-14.386905
 20
80.166670
 30
0.0
 10
-14.386905
 20
86.550000
 30
0.0
 10
-11.386905
 20
86.550000
 30
0.0
 10
-11.386905
 20
92.783340
 30
0.0
 10
-14.386905
 20
92.783340
 30
0.0
  0
LWPOLYLINE
  5
104
100
AcDbEntity
  8
Calque_1
 62
1
100
AcDbPolyline
 90
37
 70
1
 10
31.613095
 20
71.166667
 30
0.0
 10
34.277381
 20
71.166667
 30
0.0
 10
34.277381
 20
74.166667
 30
0.0
 10
40.091667
 20
74.166667
 30
0.0
 10
40.091667
 20
71.166667
 30
0.0
 10
45.705952
 20
71.166667
 30
0.0
 10
45.705952
 20
74.166667
 30
0.0
 10
51.520238
 20
74.166667
 30
0.0
 10
51.520238
 20
71.166667
 30
0.0
 10
57.134524
 20
71.166667
 30
0.0
 10
57.134524
 20
74.166667
 30
0.0
 10
62.948809
 20
74.166667
 30
0.0
 10
62.948809
 20
71.166667
 30
0.0
 10
65.613095
 20
71.166667
 30
0.0
 10
65.613095
 20
64.883333
 30
0.0
 10
68.613095
 20
64.883333
 30
0.0
 10
68.613095
 20
58.450000
 30
0.0
 10
65.613095
 20
58.450000
 30
0.0
 10
65.613095
 20
52.166667
 30
0.0
 10
62.948809
 20
52.166667
 30
0.0
 10
62.948809
 20
49.166667
 30
0.0
 10
57.134524
 20
49.166667
 30
0.0
 10
57.134524
 20
52.166667
 30
0.0
 10
51.520238
 20
52.166667
 30
0.0
 10
51.520238
 20
49.166667
 30
0.0
 10
45.705952
 20
49.166667
 30
0.0
 10
45.705952
 20
52.166667
 30
0.0
 10
40.091667
 20
52.166667
 30
0.0
 10
40.091667
 20
49.166667
 30
0.0
 10
34.277381
 20
49.166667
 30
0.0
 10
34.277381
 20
52.166667
 30
0.0
 10
31.613095
 20
52.166667
 30
0.0
 10
31.613095
 20
58.450000
 30
0.0
 10
28.613095
 20
58.450000
 30
0.0
 10
28.613095
 20
64.883333
 30
0.0
 10
31.613095
 20
64.883333
 30
0.0
 10
31.613095
 20
71.166667
 30
0.0
  0
LWPOLYLINE
  5
105
100
AcDbEntity
  8
Calque_1
 62
1
100
AcDbPolyline
 90
37
 70
1
 10
-11.386905
 20
71.166667
 30
0.0
 10
-8.722619
 20
71.166667
 30
0.0
 10
-8.722619
 20
74.166667
 30
0.0
 10
-2.908333
 20
74.166667
 30
0.0
 10
-2.908333
 20
71.166667
 30
0.0
 10
2.705952
 20
71.166667
 30
0.0
 10
2.705952
 20
74.166667
 30
0.0
 10
8.520238
 20
74.166667
 30
0.0
 10
8.520238
 20
71.166667
 30
0.0
 10
14.134524
 20
71.166667
 30
0.0
 10
14.134524
 20
74.166667
 30
0.0
 10
19.948809
 20
74.166667
 30
0.0
 10
19.948809
 20
71.166667
 30
0.0
 10
22.613095
 20
71.166667
 30
0.0
 10
22.613095
 20
64.883333
 30
0.0
 10
25.613095
 20
64.883333
 30
0.0
 10
25.613095
 20
58.450000
 30
0.0
 10
22.613095
 20
58.450000
 30
0.0
 10
22.613095
 20
52.166667
 30
0.0
 10
19.948809
 20
52.166667
 30
0.0
 10
19.948809
 20
49.166667
 30
0.0
 10
14.134524
 20
49.166667
 30
0.0
 10
14.134524
 20
52.166667
 30
0.0
 10
8.520238
 20
52.166667
 30
0.0
 10
8.520238
 20
49.166667
 30
0.0
 10
2.705952
 20
49.166667
 30
0.0
 10
2.705952
 20
52.166667
 30
0.0
 10
-2.908333
 20
52.166667
 30
0.0
 10
-2.908333
 20
49.166667
 30
0.0
 10
-8.722619
 20
49.166667
 30
0.0
 10
-8.722619
 20
52.166667
 30
0.0
 10
-11.386905
 20
52.166667
 30
0.0
 10
-11.386905
 20
58.450000
 30
0.0
 10
-14.386905
 20
58.450000
 30
0.0
 10
-14.386905
 20
64.883333
 30
0.0
 10
-11.386905
 20
64.883333
 30
0.0
 10
-11.386905
 20
71.166667
 30
0.0
  0
SPLINE
  5
106
100
AcDbEntity
  8
Calque_1
 62
7
100
AcDbSpline
 70
0
 71
3
 72
25
 73
21
 74
19
 40
0.000000
 40
0.000000
 40
0.000000
 40
0.000000
 40
0.710447
 40
1.473099
 40
2.334111
 40
3.290785
 40
4.314321
 40
5.387555
 40
6.460790
 40
7.484325
 40
8.440999
 40
9.302011
 40
10.064662
 40
10.775110
 40
12.241428
 40
14.005310
 40
16.116869
 40
18.228428
 40
19.992311
 40
21.458629
 40
21.458629
 40
21.458629
 40
21.458629
 10
35.452960
 20
89.494800
 30
0.0
 10
35.423542
 20
89.256769
 30
0.0
 10
35.362543
 20
88.763216
 30
0.0
 10
34.905495
 20
88.102519
 30
0.0
 10
34.239686
 20
87.549780
 30
0.0
 10
33.379846
 20
87.132107
 30
0.0
 10
32.390912
 20
86.870834
 30
0.0
 10
31.332713
 20
86.781690
 30
0.0
 10
30.274733
 20
86.870832
 30
0.0
 10
29.285188
 20
87.132116
 30
0.0
 10
28.427356
 20
87.549751
 30
0.0
 10
27.755124
 20
88.102611
 30
0.0
 10
27.318475
 20
88.762924
 30
0.0
 10
27.103535
 20
89.749513
 30
0.0
 10
27.728583
 20
91.054965
 30
0.0
 10
29.327745
 20
91.962127
 30
0.0
 10
31.340396
 20
92.295314
 30
0.0
 10
33.309690
 20
91.961662
 30
0.0
 10
35.012168
 20
91.056371
 30
0.0
 10
35.315339
 20
89.982344
 30
0.0
 10
35.452960
 20
89.494800
 30
0.0
 11
35.452960
 21
89.494800
 31
0.0
 11
35.311800
 21
88.798517
 31
0.0
 11
34.902467
 21
88.155025
 31
0.0
 11
34.246180
 21
87.597682
 31
0.0
 11
33.390262
 21
87.170332
 31
0.0
 11
32.402041
 21
86.903789
 31
0.0
 11
31.332750
 21
86.811870
 31
0.0
 11
30.263459
 21
86.903789
 31
0.0
 11
29.275239
 21
87.170332
 31
0.0
 11
28.419321
 21
87.597682
 31
0.0
 11
27.763034
 21
88.155025
 31
0.0
 11
27.353701
 21
88.798518
 31
0.0
 11
27.212541
 21
89.494800
 31
0.0
 11
27.775074
 21
90.848922
 31
0.0
 11
29.253205
 21
91.811423
 31
0.0
 11
31.332750
 21
92.177720
 31
0.0
 11
33.412296
 21
91.811423
 31
0.0
 11
34.890427
 21
90.848922
 31
0.0
 11
35.452960
 21
89.494800
 31
0.0
  0
LWPOLYLINE
  5
107
100
AcDbEntity
  8
Calque_1
 62
7
100
AcDbPolyline
 90
1
 70
1
 10
35.452960
 20
89.494800
 30
0.0
  0
LWPOLYLINE
  5
108
100
AcDbEntity
  8
Calque_1
 62
7
100
AcDbPolyline
 90
1
 70
1
 10
45.613094
 20
89.666670
 30
0.0
  0
LWPOLYLINE
  5
109
100
AcDbEntity
  8
Calque_1
 62
7
100
AcDbPolyline
 90
9
 70
1
 10
149.420376
 20
135.495256
 30
0.0
 10
147.382324
 20
135.490369
 30
0.0
 10
143.472843
 20
124.160227
 30
0.0
 10
145.236409
 20
124.160227
 30
0.0
 10
146.166551
 20
126.839260
 30
0.0
 10
150.356701
 20
126.849039
 30
0.0
 10
152.652152
 20
120.064428
 30
0.0
 10
154.892419
 20
120.060751
 30
0.0
 10
149.420376
 20
135.493965
 30
0.0
  0
LWPOLYLINE
  5
10a
100
AcDbEntity
  8
Calque_1
 62
7
100
AcDbPolyline
 90
4
 70
1
 10
148.267157
 20
132.870157
 30
0.0
 10
149.779466
 20
128.512103
 30
0.0
 10
146.760968
 20
128.504763
 30
0.0
 10
148.267157
 20
132.870125
 30
0.0
  0
SPLINE
  5
10b
100
AcDbEntity
  8
Calque_1
 62
7
100
AcDbSpline
 70
0
 71
3
 72
31
 73
27
 74
25
 40
0.000000
 40
0.000000
 40
0.000000
 40
0.000000
 40
1.570649
 40
3.128301
 40
4.698950
 40
6.269599
 40
7.827251
 40
9.397900
 40
10.968550
 40
12.526201
 40
14.096851
 40
15.667500
 40
17.225151
 40
18.795801
 40
20.366450
 40
21.924102
 40
23.494751
 40
25.065400
 40
26.623052
 40
28.193701
 40
29.764350
 40
31.322002
 40
32.892651
 40
34.463300
 40
36.020952
 40
37.591601
 40
37.591601
 40
37.591601
 40
37.591601
 10
45.613094
 20
89.666670
 30
0.0
 10
45.573097
 20
89.141620
 30
0.0
 10
45.493433
 20
88.095865
 30
0.0
 10
44.863881
 20
86.632378
 30
0.0
 10
43.906082
 20
85.375015
 30
0.0
 10
42.647032
 20
84.410925
 30
0.0
 10
41.183994
 20
83.804728
 30
0.0
 10
39.613068
 20
83.597354
 30
0.0
 10
38.042296
 20
83.804728
 30
0.0
 10
36.578800
 20
84.410925
 30
0.0
 10
35.321440
 20
85.375015
 30
0.0
 10
34.357349
 20
86.632378
 30
0.0
 10
33.751152
 20
88.095865
 30
0.0
 10
33.543778
 20
89.666670
 30
0.0
 10
33.751152
 20
91.237475
 30
0.0
 10
34.357349
 20
92.700962
 30
0.0
 10
35.321440
 20
93.958325
 30
0.0
 10
36.578800
 20
94.922415
 30
0.0
 10
38.042296
 20
95.528612
 30
0.0
 10
39.613068
 20
95.735986
 30
0.0
 10
41.183994
 20
95.528612
 30
0.0
 10
42.647032
 20
94.922415
 30
0.0
 10
43.906082
 20
93.958325
 30
0.0
 10
44.863881
 20
92.700962
 30
0.0
 10
45.493433
 20
91.237475
 30
0.0
 10
45.573097
 20
90.191720
 30
0.0
 10
45.613094
 20
89.666670
 30
0.0
 11
45.613094
 21
89.666670
 31
0.0
 11
45.407531
 21
88.109531
 31
0.0
 11
44.811443
 21
86.670448
 31
0.0
 11
43.855735
 21
85.424029
 31
0.0
 11
42.609316
 21
84.468321
 31
0.0
 11
41.170233
 21
83.872233
 31
0.0
 11
39.613094
 21
83.666670
 31
0.0
 11
38.055955
 21
83.872233
 31
0.0
 11
36.616872
 21
84.468321
 31
0.0
 11
35.370453
 21
85.424029
 31
0.0
 11
34.414745
 21
86.670448
 31
0.0
 11
33.818657
 21
88.109531
 31
0.0
 11
33.613094
 21
89.666670
 31
0.0
 11
33.818657
 21
91.223809
 31
0.0
 11
34.414745
 21
92.662892
 31
0.0
 11
35.370453
 21
93.909311
 31
0.0
 11
36.616872
 21
94.865019
 31
0.0
 11
38.055955
 21
95.461107
 31
0.0
 11
39.613094
 21
95.666670
 31
0.0
 11
41.170233
 21
95.461107
 31
0.0
 11
42.609316
 21
94.865019
 31
0.0
 11
43.855735
 21
93.909311
 31
0.0
 11
44.811443
 21
92.662892
 31
0.0
 11
45.407531
 21
91.223809
 31
0.0
 11
45.613094
 21
89.666670
 31
0.0
  0
SPLINE
  5
10c
100
AcDbEntity
  8
Calque_1
 62
7
100
AcDbSpline
 70
0
 71
3
 72
10
 73
6
 74
4
 40
0.000000
 40
0.000000
 40
0.000000
 40
0.000000
 40
2.289701
 40
4.011494
 40
5.653489
 40
5.653489
 40
5.653489
 40
5.653489
 10
159.038627
 20
128.491134
 30
0.0
 10
159.874277
 20
128.636076
 30
0.0
 10
161.338313
 20
128.890009
 30
0.0
 10
161.655186
 20
131.282117
 30
0.0
 10
160.627405
 20
131.906076
 30
0.0
 10
160.125706
 20
132.210654
 30
0.0
 11
159.038627
 21
128.491134
 31
0.0
 11
161.141852
 21
129.396216
 31
0.0
 11
161.340981
 21
131.106455
 31
0.0
 11
160.125706
 21
132.210654
 31
0.0
  0
LWPOLYLINE
  5
10d
100
AcDbEntity
  8
Calque_1
 62
7
100
AcDbPolyline
 90
3
 70
0
 10
155.590904
 20
135.742965
 30
0.0
 10
155.599736
 20
128.487767
 30
0.0
 10
159.038627
 20
128.491134
 30
0.0
  0
SPLINE
  5
10e
100
AcDbEntity
  8
Calque_1
 62
7
100
AcDbSpline
 70
0
 71
3
 72
10
 73
6
 74
4
 40
0.000000
 40
0.000000
 40
0.000000
 40
0.000000
 40
1.561741
 40
3.109159
 40
4.642940
 40
4.642940
 40
4.642940
 40
4.642940
 10
160.125706
 20
132.210654
 30
0.0
 10
160.523720
 20
132.580761
 30
0.0
 10
161.316096
 20
133.317580
 30
0.0
 10
161.036825
 20
135.196741
 30
0.0
 10
160.005486
 20
135.561228
 30
0.0
 10
159.492099
 20
135.742665
 30
0.0
 11
160.125706
 21
132.210654
 31
0.0
 11
161.072638
 21
133.452570
 31
0.0
 11
160.822627
 21
134.979658
 31
0.0
 11
159.492099
 21
135.742665
 31
0.0
  0
LWPOLYLINE
  5
10f
100
AcDbEntity
  8
Calque_1
 62
7
100
AcDbPolyline
 90
2
 70
0
 10
159.492099
 20
135.742665
 30
0.0
 10
155.590904
 20
135.742965
 30
0.0
  0
LWPOLYLINE
  5
110
100
AcDbEntity
  8
Calque_1
 62
7
100
AcDbPolyline
 90
4
 70
0
 10
158.953812
 20
132.710991
 30
0.0
 10
157.013750
 20
132.710991
 30
0.0
 10
157.013750
 20
134.524781
 30
0.0
 10
158.953812
 20
134.526004
 30
0.0
  0
SPLINE
  5
111
100
AcDbEntity
  8
Calque_1
 62
7
100
AcDbSpline
 70
0
 71
3
 72
10
 73
6
 74
4
 40
0.000000
 40
0.000000
 40
0.000000
 40
0.000000
 40
0.851495
 40
1.723252
 40
2.577627
 40
2.577627
 40
2.577627
 40
2.577627
 10
158.953812
 20
134.526004
 30
0.0
 10
159.236775
 20
134.411072
 30
0.0
 10
159.809434
 20
134.178471
 30
0.0
 10
159.812625
 20
133.059453
 30
0.0
 10
159.238155
 20
132.826363
 30
0.0
 10
158.953812
 20
132.710991
 30
0.0
 11
158.953812
 21
134.526004
 31
0.0
 11
159.663404
 21
134.055341
 31
0.0
 11
159.665577
 21
133.183587
 31
0.0
 11
158.953812
 21
132.710991
 31
0.0
  0
LWPOLYLINE
  5
112
100
AcDbEntity
  8
Calque_1
 62
7
100
AcDbPolyline
 90
2
 70
0
 10
157.019891
 20
131.593273
 30
0.0
 10
159.178067
 20
131.593273
 30
0.0
  0
SPLINE
  5
113
100
AcDbEntity
  8
Calque_1
 62
7
100
AcDbSpline
 70
0
 71
3
 72
10
 73
6
 74
4
 40
0.000000
 40
0.000000
 40
0.000000
 40
0.000000
 40
0.907534
 40
1.792379
 40
2.696673
 40
2.696673
 40
2.696673
 40
2.696673
 10
159.178067
 20
131.593273
 30
0.0
 10
159.483079
 20
131.470505
 30
0.0
 10
160.085477
 20
131.228040
 30
0.0
 10
160.054858
 20
130.072719
 30
0.0
 10
159.472441
 20
129.815259
 30
0.0
 10
159.178067
 20
129.685130
 30
0.0
 11
159.178067
 21
131.593273
 31
0.0
 11
159.933449
 21
131.090266
 31
0.0
 11
159.917592
 21
130.205562
 31
0.0
 11
159.178067
 21
129.685130
 31
0.0
  0
LWPOLYLINE
  5
114
100
AcDbEntity
  8
Calque_1
 62
7
100
AcDbPolyline
 90
3
 70
0
 10
159.178067
 20
129.685130
 30
0.0
 10
157.012530
 20
129.685130
 30
0.0
 10
157.019891
 20
131.593273
 30
0.0
  0
SPLINE
  5
115
100
AcDbEntity
  8
Calque_1
 62
7
100
AcDbSpline
 70
0
 71
3
 72
10
 73
6
 74
4
 40
0.000000
 40
0.000000
 40
0.000000
 40
0.000000
 40
0.741338
 40
1.460866
 40
2.202207
 40
2.202207
 40
2.202207
 40
2.202207
 10
138.266884
 20
138.904881
 30
0.0
 10
138.018449
 20
138.865844
 30
0.0
 10
137.528887
 20
138.788919
 30
0.0
 10
136.964803
 20
138.224834
 30
0.0
 10
136.887879
 20
137.735272
 30
0.0
 10
136.848842
 20
137.486836
 30
0.0
 11
138.266884
 21
138.904881
 31
0.0
 11
137.551288
 21
138.711218
 31
0.0
 11
137.042505
 21
138.202434
 31
0.0
 11
136.848842
 21
137.486836
 31
0.0
  0
LWPOLYLINE
  5
116
100
AcDbEntity
  8
Calque_1
 62
7
100
AcDbPolyline
 90
2
 70
0
 10
136.848842
 20
137.486836
 30
0.0
 10
136.848842
 20
112.846440
 30
0.0
  0
SPLINE
  5
117
100
AcDbEntity
  8
Calque_1
 62
7
100
AcDbSpline
 70
0
 71
3
 72
10
 73
6
 74
4
 40
0.000000
 40
0.000000
 40
0.000000
 40
0.000000
 40
0.741303
 40
1.460821
 40
2.202158
 40
2.202158
 40
2.202158
 40
2.202158
 10
136.848842
 20
112.846440
 30
0.0
 10
136.887881
 20
112.598017
 30
0.0
 10
136.964810
 20
112.108472
 30
0.0
 10
137.528893
 20
111.544412
 30
0.0
 10
138.018449
 20
111.467488
 30
0.0
 10
138.266884
 20
111.428451
 30
0.0
 11
136.848842
 21
112.846440
 31
0.0
 11
137.042505
 21
112.130881
 31
0.0
 11
137.551288
 21
111.622112
 31
0.0
 11
138.266884
 21
111.428451
 31
0.0
  0
LWPOLYLINE
  5
118
100
AcDbEntity
  8
Calque_1
 62
7
100
AcDbPolyline
 90
2
 70
0
 10
138.266884
 20
111.428451
 30
0.0
 10
162.959318
 20
111.428451
 30
0.0
  0
SPLINE
  5
119
100
AcDbEntity
  8
Calque_1
 62
7
100
AcDbSpline
 70
0
 71
3
 72
10
 73
6
 74
4
 40
0.000000
 40
0.000000
 40
0.000000
 40
0.000000
 40
0.741323
 40
1.460838
 40
2.202140
 40
2.202140
 40
2.202140
 40
2.202140
 10
162.959318
 20
111.428451
 30
0.0
 10
163.207747
 20
111.467488
 30
0.0
 10
163.697297
 20
111.544414
 30
0.0
 10
164.261371
 20
112.108474
 30
0.0
 10
164.338300
 20
112.598018
 30
0.0
 10
164.377338
 20
112.846440
 30
0.0
 11
162.959318
 21
111.428451
 31
0.0
 11
163.674899
 21
111.622112
 31
0.0
 11
164.183676
 21
112.130881
 31
0.0
 11
164.377338
 21
112.846440
 31
0.0
  0
LWPOLYLINE
  5
11a
100
AcDbEntity
  8
Calque_1
 62
7
100
AcDbPolyline
 90
2
 70
0
 10
164.377338
 20
112.846440
 30
0.0
 10
164.377338
 20
137.486836
 30
0.0
  0
LWPOLYLINE
  5
11b
100
AcDbEntity
  8
Calque_1
 62
7
100
AcDbPolyline
 90
2
 70
0
 10
162.959318
 20
138.904881
 30
0.0
 10
138.266884
 20
138.904881
 30
0.0
  0
SPLINE
  5
11c
100
AcDbEntity
  8
Calque_1
 62
7
100
AcDbSpline
 70
0
 71
3
 72
10
 73
6
 74
4
 40
0.000000
 40
0.000000
 40
0.000000
 40
0.000000
 40
0.741340
 40
1.460865
 40
2.202189
 40
2.202189
 40
2.202189
 40
2.202189
 10
164.377338
 20
137.486836
 30
0.0
 10
164.338302
 20
137.735272
 30
0.0
 10
164.261378
 20
138.224832
 30
0.0
 10
163.697303
 20
138.788917
 30
0.0
 10
163.207748
 20
138.865843
 30
0.0
 10
162.959318
 20
138.904881
 30
0.0
 11
164.377338
 21
137.486836
 31
0.0
 11
164.183676
 21
138.202434
 31
0.0
 11
163.674899
 21
138.711218
 31
0.0
 11
162.959318
 21
138.904881
 31
0.0
  0
SPLINE
  5
11d
100
AcDbEntity
  8
Calque_1
 62
7
100
AcDbSpline
 70
0
 71
3
 72
10
 73
6
 74
4
 40
0.000000
 40
0.000000
 40
0.000000
 40
0.000000
 40
2.289729
 40
4.011530
 40
5.653540
 40
5.653540
 40
5.653540
 40
5.653540
 10
159.072674
 20
120.066884
 30
0.0
 10
159.908333
 20
120.211831
 30
0.0
 10
161.372379
 20
120.465774
 30
0.0
 10
161.689259
 20
122.857903
 30
0.0
 10
160.661462
 20
123.481856
 30
0.0
 10
160.159754
 20
123.786432
 30
0.0
 11
159.072674
 21
120.066884
 31
0.0
 11
161.175921
 21
120.971988
 31
0.0
 11
161.375049
 21
122.682236
 31
0.0
 11
160.159754
 21
123.786432
 31
0.0
  0
LWPOLYLINE
  5
11e
100
AcDbEntity
  8
Calque_1
 62
7
100
AcDbPolyline
 90
3
 70
0
 10
155.625330
 20
127.318440
 30
0.0
 10
155.633847
 20
120.063206
 30
0.0
 10
159.072674
 20
120.066884
 30
0.0
  0
SPLINE
  5
11f
100
AcDbEntity
  8
Calque_1
 62
7
100
AcDbSpline
 70
0
 71
3
 72
10
 73
6
 74
4
 40
0.000000
 40
0.000000
 40
0.000000
 40
0.000000
 40
1.561770
 40
3.109191
 40
4.642981
 40
4.642981
 40
4.642981
 40
4.642981
 10
160.159754
 20
123.786432
 30
0.0
 10
160.557777
 20
124.156544
 30
0.0
 10
161.350165
 20
124.893367
 30
0.0
 10
161.070897
 20
126.772553
 30
0.0
 10
160.039543
 20
127.137021
 30
0.0
 10
159.526147
 20
127.318448
 30
0.0
 11
160.159754
 21
123.786432
 31
0.0
 11
161.106706
 21
125.028370
 31
0.0
 11
160.856696
 21
126.555460
 31
0.0
 11
159.526147
 21
127.318448
 31
0.0
  0
LWPOLYLINE
  5
120
100
AcDbEntity
  8
Calque_1
 62
7
100
AcDbPolyline
 90
2
 70
0
 10
159.526147
 20
127.318448
 30
0.0
 10
155.625330
 20
127.318440
 30
0.0
  0
LWPOLYLINE
  5
121
100
AcDbEntity
  8
Calque_1
 62
7
100
AcDbPolyline
 90
4
 70
0
 10
158.988175
 20
124.286458
 30
0.0
 10
157.048177
 20
124.286458
 30
0.0
 10
157.048177
 20
126.100256
 30
0.0
 10
158.988175
 20
126.101479
 30
0.0
  0
SPLINE
  5
122
100
AcDbEntity
  8
Calque_1
 62
7
100
AcDbSpline
 70
0
 71
3
 72
10
 73
6
 74
4
 40
0.000000
 40
0.000000
 40
0.000000
 40
0.000000
 40
0.851597
 40
1.723295
 40
2.577658
 40
2.577658
 40
2.577658
 40
2.577658
 10
158.988175
 20
126.101479
 30
0.0
 10
159.271151
 20
125.986501
 30
0.0
 10
159.843781
 20
125.753832
 30
0.0
 10
159.847031
 20
124.634827
 30
0.0
 10
159.272537
 20
124.401801
 30
0.0
 10
158.988175
 20
124.286458
 30
0.0
 11
158.988175
 21
126.101479
 31
0.0
 11
159.697795
 21
125.630674
 31
0.0
 11
159.699975
 21
124.758979
 31
0.0
 11
158.988175
 21
124.286458
 31
0.0
  0
LWPOLYLINE
  5
123
100
AcDbEntity
  8
Calque_1
 62
7
100
AcDbPolyline
 90
2
 70
0
 10
157.054296
 20
123.168779
 30
0.0
 10
159.212493
 20
123.168779
 30
0.0
  0
LWPOLYLINE
  5
124
100
AcDbEntity
  8
Calque_1
 62
7
100
AcDbPolyline
 90
3
 70
0
 10
159.212493
 20
121.260599
 30
0.0
 10
157.046957
 20
121.260599
 30
0.0
 10
157.054296
 20
123.168779
 30
0.0
  0
LWPOLYLINE
  5
125
100
AcDbEntity
  8
Calque_1
 62
7
100
AcDbPolyline
 90
10
 70
1
 10
139.980398
 20
135.644946
 30
0.0
 10
144.851021
 20
135.637911
 30
0.0
 10
144.854698
 20
134.394841
 30
0.0
 10
141.398669
 20
134.401875
 30
0.0
 10
141.394991
 20
132.535557
 30
0.0
 10
144.280305
 20
132.531886
 30
0.0
 10
144.280305
 20
131.390382
 30
0.0
 10
141.398503
 20
131.390382
 30
0.0
 10
141.398503
 20
128.386044
 30
0.0
 10
139.980398
 20
128.386044
 30
0.0
  0
LWPOLYLINE
  5
126
100
AcDbEntity
  8
Calque_1
 62
7
100
AcDbPolyline
 90
6
 70
1
 10
139.976721
 20
127.314771
 30
0.0
 10
141.377402
 20
127.314771
 30
0.0
 10
141.377402
 20
121.306066
 30
0.0
 10
145.089032
 20
121.306066
 30
0.0
 10
145.089032
 20
120.070030
 30
0.0
 10
139.980264
 20
120.070030
 30
0.0
  0
LWPOLYLINE
  5
127
100
AcDbEntity
  8
Calque_1
 62
7
100
AcDbPolyline
 90
3
 70
0
 10
140.095130
 20
118.023149
 30
0.0
 10
140.095130
 20
114.372058
 30
0.0
 10
142.147415
 20
114.372058
 30
0.0
  0
LWPOLYLINE
  5
128
100
AcDbEntity
  8
Calque_1
 62
7
100
AcDbPolyline
 90
2
 70
0
 10
143.857652
 20
118.023149
 30
0.0
 10
142.489462
 20
114.372058
 30
0.0
  0
LWPOLYLINE
  5
129
100
AcDbEntity
  8
Calque_1
 62
7
100
AcDbPolyline
 90
2
 70
0
 10
143.857652
 20
118.023149
 30
0.0
 10
145.225842
 20
114.372058
 30
0.0
  0
LWPOLYLINE
  5
12a
100
AcDbEntity
  8
Calque_1
 62
7
100
AcDbPolyline
 90
2
 70
0
 10
143.002533
 20
115.589088
 30
0.0
 10
144.712771
 20
115.589088
 30
0.0
  0
LWPOLYLINE
  5
12b
100
AcDbEntity
  8
Calque_1
 62
7
100
AcDbPolyline
 90
2
 70
0
 10
146.080961
 20
118.023149
 30
0.0
 10
146.080961
 20
114.372058
 30
0.0
  0
LWPOLYLINE
  5
12c
100
AcDbEntity
  8
Calque_1
 62
7
100
AcDbPolyline
 90
2
 70
0
 10
146.080961
 20
118.023149
 30
0.0
 10
148.475293
 20
114.372058
 30
0.0
  0
LWPOLYLINE
  5
12d
100
AcDbEntity
  8
Calque_1
 62
7
100
AcDbPolyline
 90
2
 70
0
 10
148.475293
 20
118.023149
 30
0.0
 10
148.475293
 20
114.372058
 30
0.0
  0
LWPOLYLINE
  5
12e
100
AcDbEntity
  8
Calque_1
 62
7
100
AcDbPolyline
 90
2
 70
0
 10
149.843483
 20
118.023149
 30
0.0
 10
149.843483
 20
114.372058
 30
0.0
  0
LWPOLYLINE
  5
12f
100
AcDbEntity
  8
Calque_1
 62
7
100
AcDbPolyline
 90
2
 70
0
 10
149.843483
 20
118.023149
 30
0.0
 10
152.237816
 20
114.372058
 30
0.0
  0
LWPOLYLINE
  5
130
100
AcDbEntity
  8
Calque_1
 62
7
100
AcDbPolyline
 90
2
 70
0
 10
152.237816
 20
118.023149
 30
0.0
 10
152.237816
 20
114.372058
 30
0.0
  0
LWPOLYLINE
  5
131
100
AcDbEntity
  8
Calque_1
 62
7
100
AcDbPolyline
 90
2
 70
0
 10
153.606006
 20
118.023149
 30
0.0
 10
153.606006
 20
114.372058
 30
0.0
  0
LWPOLYLINE
  5
132
100
AcDbEntity
  8
Calque_1
 62
7
100
AcDbPolyline
 90
20
 70
1
 10
155.829314
 20
118.023149
 30
0.0
 10
155.487267
 20
117.849287
 30
0.0
 10
155.145219
 20
117.501564
 30
0.0
 10
154.974196
 20
117.153842
 30
0.0
 10
154.803172
 20
116.632257
 30
0.0
 10
154.803172
 20
115.762950
 30
0.0
 10
154.974196
 20
115.241366
 30
0.0
 10
155.145219
 20
114.893643
 30
0.0
 10
155.487267
 20
114.545920
 30
0.0
 10
155.829314
 20
114.372058
 30
0.0
 10
156.513409
 20
114.372058
 30
0.0
 10
156.855457
 20
114.545920
 30
0.0
 10
157.197504
 20
114.893643
 30
0.0
 10
157.368528
 20
115.241366
 30
0.0
 10
157.539552
 20
115.762950
 30
0.0
 10
157.539552
 20
116.632257
 30
0.0
 10
157.368528
 20
117.153842
 30
0.0
 10
157.197504
 20
117.501564
 30
0.0
 10
156.855457
 20
117.849287
 30
0.0
 10
156.513409
 20
118.023149
 30
0.0
  0
LWPOLYLINE
  5
133
100
AcDbEntity
  8
Calque_1
 62
7
100
AcDbPolyline
 90
2
 70
0
 10
158.736718
 20
118.023149
 30
0.0
 10
158.736718
 20
114.372058
 30
0.0
  0
LWPOLYLINE
  5
134
100
AcDbEntity
  8
Calque_1
 62
7
100
AcDbPolyline
 90
2
 70
0
 10
158.736718
 20
118.023149
 30
0.0
 10
161.131050
 20
114.372058
 30
0.0
  0
SPLINE
  5
135
100
AcDbEntity
  8
Calque_1
 62
7
100
AcDbSpline
 70
0
 71
3
 72
10
 73
6
 74
4
 40
0.000000
 40
0.000000
 40
0.000000
 40
0.000000
 40
0.907548
 40
1.792398
 40
2.696695
 40
2.696695
 40
2.696695
 40
2.696695
 10
159.212493
 20
123.168779
 30
0.0
 10
159.517500
 20
123.045998
 30
0.0
 10
160.119886
 20
122.803507
 30
0.0
 10
160.089300
 20
121.648185
 30
0.0
 10
159.506872
 20
121.390727
 30
0.0
 10
159.212493
 20
121.260599
 30
0.0
 11
159.212493
 21
123.168779
 31
0.0
 11
159.967868
 21
122.665736
 31
0.0
 11
159.952025
 21
121.781028
 31
0.0
 11
159.212493
 21
121.260599
 31
0.0
  0
LWPOLYLINE
  5
136
100
AcDbEntity
  8
Calque_1
 62
7
100
AcDbPolyline
 90
2
 70
0
 10
161.131050
 20
118.023149
 30
0.0
 10
161.131050
 20
114.372058
 30
0.0
  0
ENDSEC
  0
SECTION
  2
OBJECTS
  0
DICTIONARY
  5
C
330
0
100
AcDbDictionary
  3
ACAD_GROUP
350
D
  3
ACAD_MLINESTYLE
350
17
  0
DICTIONARY
  5
D
330
C
100
AcDbDictionary
  0
DICTIONARY
  5
1A
330
C
100
AcDbDictionary
  0
DICTIONARY
  5
17
330
C
100
AcDbDictionary
  3
STANDARD
350
18
  0
DICTIONARY
  5
19
330
C
100
AcDbDictionary
  0
ENDSEC
  0
EOF
